<svg xmlns="http://www.w3.org/2000/svg" width="62" height="62" viewBox="0 0 62 62">
  <g id="Group_31871" data-name="Group 31871" transform="translate(-591 -75)">
    <circle id="Ellipse_12574" data-name="Ellipse 12574" cx="31" cy="31" r="31" transform="translate(591 75)" fill="#f5f5f5"/>
    <g id="Group_31849" data-name="Group 31849" transform="translate(600.216 97.634)">
      <g id="Group_30175" data-name="Group 30175" transform="translate(0 0)">
        <g id="Group_280" data-name="Group 280" transform="translate(7.577 10.938)">
          <path id="Path_467" data-name="Path 467" d="M930.768,178.018a1.911,1.911,0,0,1-.415-.225c-.322-.3-.629-.608-.932-.924a.625.625,0,1,1,.877-.889c.327.313.645.636.958.962a.586.586,0,0,1,.1.684A.678.678,0,0,1,930.768,178.018Z" transform="translate(-903.052 -175.777)" fill="#2d2d2d" stroke="#e6e6e6" stroke-width="0.1"/>
          <path id="Path_468" data-name="Path 468" d="M903.963,178.007a.65.65,0,0,1-.563-.375.551.551,0,0,1,.057-.631c.348-.375.708-.742,1.085-1.086a.59.59,0,0,1,.809.053.578.578,0,0,1,.056.807c-.342.38-.711.736-1.083,1.085A1.124,1.124,0,0,1,903.963,178.007Z" transform="translate(-903.328 -175.777)" fill="#2d2d2d" stroke="#e6e6e6" stroke-width="0.1"/>
        </g>
        <path id="Path_469" data-name="Path 469" d="M928.205,173.628a3.873,3.873,0,0,0-1.726,3.717c.017.216-.033.286-.256.286l-6.688,0a.628.628,0,0,0-.629.628h0a.628.628,0,0,0,.629.628l7.082,0a.562.562,0,0,1,.543.281,3.976,3.976,0,1,0,1.046-5.535Zm2.238,6.014a2.724,2.724,0,1,1,2.718-2.737A2.723,2.723,0,0,1,930.443,179.642Z" transform="translate(-895.585 -164.869)" fill="#2d2d2d" stroke="#e6e6e6" stroke-width="0.1"/>
        <g id="Group_281" data-name="Group 281">
          <path id="Path_470" data-name="Path 470" d="M917.418,177.629c-3.361,0-5.379,0-8.74,0-.218,0-.282-.063-.26-.282a3.967,3.967,0,0,0-4.881-4.3,3.846,3.846,0,0,0-2.9,2.8c-.081.268-.118.548-.173.824h0a3.387,3.387,0,0,0,.219,1.533.657.657,0,0,1,.054.105,3.862,3.862,0,0,0,3.382,2.559,3.8,3.8,0,0,0,3.635-1.734.524.524,0,0,1,.49-.254c3.505,0,5.667,0,9.172,0a.629.629,0,0,0,.629-.629h0A.629.629,0,0,0,917.418,177.629Zm-12.952,2.013a2.724,2.724,0,1,1,0-5.448,2.724,2.724,0,0,1,0,5.448Z" transform="translate(-895.782 -164.869)" fill="#2d2d2d" stroke="#e6e6e6" stroke-width="0.1"/>
          <path id="Path_471" data-name="Path 471" d="M938.683,174.523a3.592,3.592,0,0,0-.069-.69,3.181,3.181,0,0,0-1.878-2.371,19.473,19.473,0,0,0-5.207-1.412,38.2,38.2,0,0,0-4.531-.388.782.782,0,0,1-.368-.133c-1.513-.957-3.034-1.9-4.528-2.888a9.97,9.97,0,0,0-5.723-1.686c-1.829.016-3.66,0-5.49,0a9.593,9.593,0,0,0-4.014.8c-1.241.568-2.454,1.2-3.678,1.8a9.094,9.094,0,0,1-2.738.9c-.971.14-1.943.276-2.918.388a2.01,2.01,0,0,0-1.712,1.97c.018,1.324,0,2.649.008,3.973a2.6,2.6,0,0,0,.078.636,2.552,2.552,0,0,0,1.8,1.9c.521.162,1.043.314,1.568.463a.621.621,0,0,0,.794-.592v-.014a.626.626,0,0,0-.457-.607c-.516-.143-1.033-.289-1.545-.45a1.293,1.293,0,0,1-.968-1.187c-.044-.613-.017-1.234-.009-1.852a.226.226,0,0,1,.154-.155c.167-.021.341,0,.512-.01a.627.627,0,1,0,.012-1.252c-.171-.01-.342-.007-.513,0-.121,0-.175-.047-.173-.172,0-.239,0-.476,0-.715a.671.671,0,0,1,.575-.668c.565-.089,1.132-.175,1.7-.229a11.632,11.632,0,0,0,4.336-1.18.317.317,0,0,1,.438.084,18.017,18.017,0,0,0,1.37,1.309,5.138,5.138,0,0,0,3.851.784.542.542,0,0,0,.458-.508.611.611,0,0,0-.66-.712c-.447-.011-.892-.013-1.339-.013-.171,0-.222-.071-.184-.234.2-.892.4-1.783.61-2.672a.3.3,0,0,1,.177-.2,7.517,7.517,0,0,1,1.332-.255c1.322-.051,2.646-.052,3.969-.076.228,0,.246.13.2.431a9.031,9.031,0,0,0,.005,2.623c.047.31-.012.4-.224.394-.439-.006-.878,0-1.317,0a4.11,4.11,0,0,0-.644.03.591.591,0,0,0-.48.612.6.6,0,0,0,.51.589,2.672,2.672,0,0,0,.422.024c4.367,0,8.733.012,13.1,0a37.083,37.083,0,0,1,7.431.627,16.512,16.512,0,0,1,3.425,1.032,5.378,5.378,0,0,1,.571.333l-.024.1-.28.014a4.07,4.07,0,0,0-.534.032.606.606,0,0,0-.419.835.644.644,0,0,0,.645.389c.372.005.744,0,1.116,0,.121,0,.2.031.2.174,0,.819.026,1.638-.019,2.455a.75.75,0,0,1-.74.822.607.607,0,0,0-.575.685.615.615,0,0,0,.691.55,2.276,2.276,0,0,0,.748-.187,2.005,2.005,0,0,0,1.14-1.833C938.717,176.137,938.691,175.33,938.683,174.523Zm-31.978-6.645c-.082.37-.167.738-.25,1.108-.028.124-.093.217-.207.1-.349-.362-.684-.737-1.038-1.122l1.574-.781.054.042C906.794,167.441,906.753,167.661,906.706,167.878Zm17.639,1.767c-.077.006-.155.017-.233.018q-4.316,0-8.632,0c-.216,0-.281-.073-.279-.284q.014-1.439,0-2.878c0-.205.055-.3.277-.288.668.025,1.338.011,2.005.056a7.45,7.45,0,0,1,3.455,1.136c1.1.684,2.2,1.39,3.292,2.087.045.028.086.065.128.1Z" transform="translate(-895.831 -164.954)" fill="#2d2d2d" stroke="#e6e6e6" stroke-width="0.1"/>
        </g>
      </g>
      <g id="Group_30176" data-name="Group 30176" transform="translate(4.67 8.016)">
        <g id="Group_283" data-name="Group 283" transform="translate(2.907 2.882)">
          <path id="Path_472" data-name="Path 472" d="M930.768,177.978a1.917,1.917,0,0,1-.415-.225c-.322-.3-.629-.607-.932-.924a.624.624,0,1,1,.877-.888c.327.312.645.635.958.961a.587.587,0,0,1,.1.684A.676.676,0,0,1,930.768,177.978Z" transform="translate(-903.052 -175.737)" fill="#2d2d2d" stroke="#e6e6e6" stroke-width="0.1"/>
          <path id="Path_473" data-name="Path 473" d="M903.963,177.967a.648.648,0,0,1-.563-.375.551.551,0,0,1,.057-.631c.348-.375.708-.741,1.085-1.086a.589.589,0,0,1,.809.054.578.578,0,0,1,.056.807c-.342.379-.711.735-1.083,1.084A1.124,1.124,0,0,1,903.963,177.967Z" transform="translate(-903.328 -175.737)" fill="#2d2d2d" stroke="#e6e6e6" stroke-width="0.1"/>
        </g>
        <path id="Path_474" data-name="Path 474" d="M927.079,179.124a3.976,3.976,0,1,0,1.046-5.535,3.873,3.873,0,0,0-1.726,3.718A5.081,5.081,0,0,0,927.079,179.124Zm3.283.478a2.724,2.724,0,1,1,2.718-2.737A2.722,2.722,0,0,1,930.363,179.6Z" transform="translate(-900.175 -172.886)" fill="#2d2d2d" stroke="#e6e6e6" stroke-width="0.1"/>
        <g id="Group_284" data-name="Group 284" transform="translate(0 0.009)">
          <path id="Path_475" data-name="Path 475" d="M908.418,177.31a3.967,3.967,0,0,0-4.881-4.3,3.846,3.846,0,0,0-2.9,2.8c-.081.268-.118.548-.173.824h0a3.386,3.386,0,0,0,.219,1.533.666.666,0,0,1,.054.105,3.862,3.862,0,0,0,3.382,2.559,3.729,3.729,0,0,0,3.635-1.734A5.092,5.092,0,0,0,908.418,177.31Zm-3.952,2.292a2.724,2.724,0,1,1,0-5.448,2.724,2.724,0,0,1,0,5.448Z" transform="translate(-900.452 -172.895)" fill="#2d2d2d" stroke="#e6e6e6" stroke-width="0.1"/>
        </g>
      </g>
    </g>
  </g>
</svg>
