<svg xmlns="http://www.w3.org/2000/svg" xmlns:xlink="http://www.w3.org/1999/xlink" width="20" height="20" viewBox="0 0 20 20">
  <defs>
    <linearGradient id="linear-gradient" x1="0.5" x2="0.5" y2="1.947" gradientUnits="objectBoundingBox">
      <stop offset="0" stop-color="#e91431"/>
      <stop offset="1" stop-color="#750a19"/>
    </linearGradient>
  </defs>
  <g id="Group_1" data-name="Group 1" transform="translate(-439.924 -316.121)">
    <rect id="Rectangle_7654" data-name="Rectangle 7654" width="20" height="20" rx="4" transform="translate(439.924 316.121)" fill="url(#linear-gradient)"/>
    <path id="Path_38412" data-name="Path 38412" d="M-5953.969,92.75a1.2,1.2,0,0,1-.755-.265l-3.025-2.47a1.05,1.05,0,0,1-.119-1.539,1.2,1.2,0,0,1,1.628-.113l2.095,1.71,3.924-4.892a1.2,1.2,0,0,1,1.616-.21,1.052,1.052,0,0,1,.223,1.528l-4.667,5.818a1.17,1.17,0,0,1-.8.426Q-5953.909,92.75-5953.969,92.75Z" transform="translate(6403.072 237.371)" fill="#fff"/>
  </g>
</svg>
