<svg xmlns="http://www.w3.org/2000/svg" width="174.379" height="100.428" viewBox="0 0 174.379 100.428">
  <g id="Group_31849" data-name="Group 31849" transform="translate(-597.156 -2977.561)">
    <path id="Path_21759" data-name="Path 21759" d="M340.139,2823.385c-4.335,5.358-10.684,8.425-17,11.049-6.345,2.636-12.927,4.787-18.952,8.063-10.516,5.716-19.771,14.975-31.653,16.126-8.894.861-17.472-3.3-23.248-9.394s-9.109-13.936-11.573-21.855c-2.879-9.253-4.55-19.833.709-28.507,3.142-5.18,8.4-8.992,13.889-11.984s11.35-5.319,16.758-8.448c6.175-3.575,11.659-8.138,17.6-12.069s12.574-7.3,19.666-7.943c7.522-.683,14.822,1.767,21.361,4.971,5.355,2.623,10.653,6.422,14.255,11.7,4.626,6.772,5.015,14.5,4.928,22.386-.076,7.042-.749,14.282-3.51,20.6A23.022,23.022,0,0,1,340.139,2823.385Z" transform="translate(385.403 219.254)" fill="#f4f4f4"/>
    <g id="Group_16816" data-name="Group 16816" transform="translate(0 -162.6)">
      <path id="Path_11931" data-name="Path 11931" d="M620.006,2833.814a23.735,23.735,0,0,0,16.672.841s-1.474,9.344,3.9,11.73c0,0,9.246,3.023,13,2.474a8.587,8.587,0,0,0,7.006-5.894l2.722-9.882s1.611,2.08,5.541,1.506,11.1-1.506,11.1-1.506,3.706-.36,5.83-.721l6.748-1.408,1.179-2.555,31.968-3.538,6.78,5.351,5.274.971s3.182,1.05,4.571-.852c1.235-1.691,3.257-5.191,3.257-5.191v-3.2l13.593-2.022,2.358-2.434,2.817-1.267.164-4.16-.23-1.638s7.344-1,8.123-2.891l-5.273-1.76-2.62.459,1.834-4.062,2.915-.654s1.06-3.751.393-5.438c0,0,2.446-6.707-3.472-7.01,0,0-3.627-7.5-10.346-6.911l-17.79-.185s-5.044-.765-11.5,6.2l-6.224-3.456s-11.322-5.217-26.822-1.033L691.9,2784.7l-1.573-2.547-4.945-.426.032-.327,3.505-.442a4.039,4.039,0,0,0-4.52-3.892l-23.55.9s-2.564,1.173-2.252,2.907c0,0-2.076.184-2.273,1.732,0,0-4.4-3.474-5.618,0h-.928s-4.2-2.286-4.881.844a2.454,2.454,0,0,0-3.616.223l-3.884,2.9-6.616,7.959s-27.512,2.591-28.857,7.43l-.606,3.739-2.745,1.546s-1.4,8.379,2.745,12.735a3.287,3.287,0,0,0-2.745,4.062s.375,4.793,3.748,6.42Z" transform="translate(-0.844 381.422)" fill="#fff"/>
      <path id="Path_11932" data-name="Path 11932" d="M602.876,2840.027l40.529,9.682,124.368-23.354-58.021-3.787-95.205,12.578Z" transform="translate(-0.844 381.422)" fill="#808285" opacity="0.83"/>
      <path id="Path_11933" data-name="Path 11933" d="M772.378,2807.526l-5.273-1.76-2.62.458,1.834-4.061,2.915-.654s1.06-3.751.393-5.438c0,0,1.265-3.5-.267-5.558-.143-.167-.3-.322-.453-.485a4.373,4.373,0,0,0-2.752-.967s-.179-.36-.511-.9c-.025-.017-.053-.029-.078-.048a11.4,11.4,0,0,1-1.872-2.515,11.846,11.846,0,0,0-3.342-2.564,22.138,22.138,0,0,0-2.641-.814,8.3,8.3,0,0,0-1.9-.068l-4.835-.05a8.154,8.154,0,0,0-1.163.41c-3.4,1.557-4,6.849-7.431,8.339-2.939,1.275-6.9,1.324-9.929,2.8-.632.307-1.04-2.66-1.638-2.883a38.234,38.234,0,0,1-6.716-3.884c-.236-.156-.481-.314-.73-.472l-3.068-1.7a26.788,26.788,0,0,0-4.136-1.362,7.172,7.172,0,0,0-2.48.071c-3.995.88-6.231,4.878-9.352,7.522-1.717,1.455-4.214,1.108-6.266,1.827-1.678.587-3.117,1.375-4.627,1.886.015.18-.608-7.672-2.478-11.152a4.776,4.776,0,0,0-1.114-1.388l-4.462-.385.032-.327,2.538-.32a15.079,15.079,0,0,0-5.578-.4c-7.1.492-15.312,1.622-19,7.714-1.094,1.8-1.694,3.942-3.173,5.447-1.826,1.859-4.587,2.362-7.161,2.772q-12.538,1.993-25.077,3.99l1.581,6.048a11.356,11.356,0,0,1,9.7,3.651c-6.009-1.046-11.606,4.356-13.036,10.285-.884,3.664-.4,7.174.015,10.85a24.722,24.722,0,0,1-.019,4.123,22.416,22.416,0,0,0,10.474-.9s-1.474,9.344,3.9,11.73c0,0,9.246,3.023,13,2.474a8.587,8.587,0,0,0,7.006-5.894l2.722-9.882s1.611,2.08,5.541,1.506,11.1-1.506,11.1-1.506,3.706-.36,5.831-.721l6.747-1.408,1.179-2.555,31.968-3.538,6.78,5.351,5.274.971s3.182,1.051,4.571-.851c1.235-1.692,3.257-5.192,3.257-5.192v-3.2l13.593-2.022,2.358-2.434,2.817-1.267.164-4.16-.23-1.638S771.6,2809.415,772.378,2807.526Z" transform="translate(-0.868 381.422)" fill="#bbb"/>
      <g id="Group_5509" data-name="Group 5509" transform="translate(597.156 3158.434)">
        <path id="Path_11934" data-name="Path 11934" d="M746.666,2791.067c2.866,0,5.364-.266,7.882-.409a28.033,28.033,0,0,0-.25-4.741,10.132,10.132,0,0,0-.712-2.743s-3.344-.336-3.71.09c-1.981,1.867-2.62,4.446-3.7,6.739A.713.713,0,0,0,746.666,2791.067Zm.59-.728c-.1-.066-.033-.23-.033-.328.23-.229.688-.033.819-.426.164-.36.1-.884.59-1.048.753.033,1.7-.426,2.227.164a2,2,0,0,1,.066,1.245c-.623.327-1.474.065-2.2.229C748.337,2790.4,747.715,2790.208,747.256,2790.339Zm.786.36h-.065v-.1h.065Zm6.027-4,.164,3.537-.229.164c-1.835.131-3.636.262-5.438.361a.17.17,0,0,0-.065-.132c.786-.327,1.8-.065,2.62-.294a1.99,1.99,0,0,0-.131-2.162,2.672,2.672,0,0,1,.721-1.965C752.333,2786.048,754.036,2785.458,754.069,2786.7Zm-4.029-3.177.361-.2,2.843.11a4.043,4.043,0,0,1,.53,2.15c-.982.1-2.129-.1-2.718.819-.459.557,0,1.933-1.081,1.769-.59,0-.262-.655-.524-.95-.262-.426-.394-.917-.885-1.179A4.845,4.845,0,0,1,750.04,2783.526Zm-1.7,2.882c.3.033.393.393.59.59.065.36.327.688.229,1.048-.393.164-.884.164-1.245.524C747.256,2787.817,748.108,2787.1,748.337,2786.408Zm-1.015,2h.131l.229,1.048c-.393.033-.917.131-.95.59a.942.942,0,0,0,.36.655c-.164.2-.458-.066-.458-.295C746.47,2789.585,747.158,2789.094,747.322,2788.406Zm-.819,1.179h.065v.131H746.5Z" transform="translate(-598 -2777.011)" fill="#777"/>
        <path id="Path_11935" data-name="Path 11935" d="M756.231,2790.6l6.845-.361.131-.131a11.735,11.735,0,0,0-3.234-6.534,16.853,16.853,0,0,0-4.987-.475c-.418.1-.254.434-.111.946A33.882,33.882,0,0,1,756.231,2790.6Zm6.538-.639c-.589.033-1.834.1-1.977.1-.033-.95-.434-2.149-.369-3.066.459.426,1.043,1.13,1.829.835A5.969,5.969,0,0,1,762.769,2789.962Zm-3.574-6.182c1.023.082,2.334,2.456,3.057,3.78-.721.393-1.485-.677-2.074-.873C760.014,2785.991,759.383,2784.3,759.2,2783.78Zm-4.078-.254a12.282,12.282,0,0,1,3.611.131l.254.753a16.942,16.942,0,0,1,1.38,5.675l-3.706.225c-.122-.553-.327-2.2-.589-3.312.655-.2,1.31.1,1.932,0v-.066a10.151,10.151,0,0,0-2-.295C755.838,2786.081,755.237,2783.93,755.117,2783.526Z" transform="translate(-598 -2777.011)" fill="#777"/>
        <path id="Path_11936" data-name="Path 11936" d="M725.606,2789.946c-2.031-2.457-4.848-3.734-7.3-5.5-2.129-.491-4.848-1.376-6.912-.1a48.922,48.922,0,0,0-4.945,6.845.463.463,0,0,1-.492-.295c-.131-.065-.2.1-.295.164.1.066.131.2.262.2,1.343.262.786,1.67.918,2.522-.079.55-.041,1.139-.17,1.673,0,.045.009.085,0,.048a.745.745,0,0,1,.005.176h0c.035.063.067.125.1.186a.526.526,0,0,1,.038.107c.029,0,.056,0,.086,0a.236.236,0,0,1-.061.179.524.524,0,0,1-.029.157l.025-.008a15.113,15.113,0,0,1-.033,2.719.4.4,0,0,1-.022.126,2.378,2.378,0,0,1,.021.936c.329.574-.284,1.076-.13,1.722-.328.819-.918,1.539-.426,2.489a5.389,5.389,0,0,0-1.507,1.474,5.078,5.078,0,0,0,1.638-1.015l1.539-.131a1.714,1.714,0,0,1,.819,0c.02,0,.037,0,.057-.005.9-.1,1.813-.176,2.724-.206.783-.026,1.564-.1,2.346-.138,1.632-.654,3.528.459,5.158-.045.754-.753,2.1-.524,3.046-.491.295-.033.557.131.721-.1a16.241,16.241,0,0,1-2.2-.229c-.295,0-.655.262-.95,0,1.212-.885.787-2.457,1.54-3.5.2-.3-.2-.884.229-.917a.467.467,0,0,1-.393-.2l.164-.163a13.542,13.542,0,0,1,2.293-.262c-.885-.164-1.736.1-2.654,0a9.45,9.45,0,0,1-.163-2.752c.065-.491.851-.851.458-1.376-.327-.818.23-2.161-.687-2.816,1.572-.131,3.209-.426,4.814-.656C725.606,2790.634,725.638,2790.273,725.606,2789.946Zm-7.075-4.258c.262.982.033,2.129.36,3.078-.164.655.59,1.671-.229,1.835a19.24,19.24,0,0,0-.59-4.422l-.131-.95C718.236,2785.295,718.334,2785.524,718.531,2785.688Zm-.459,4.946c-.557.294-1.015.163-1.605.36a3.32,3.32,0,0,0-.819-1.573c-.425-.13-.164-.589-.229-.884a4.234,4.234,0,0,1,2.457.164C717.843,2789.389,718.17,2789.913,718.072,2790.634Zm-4.192.491-1.245-.131a2.54,2.54,0,0,0-.295-1.409,1.057,1.057,0,0,0-.95-.426c.295-.884.23-2.325,1.54-2.456.72.1,1.31-.262,1.834.524l.229,1.9c-.262.327-.72.1-1.048.164-.033-.525.1-1.442-.36-1.638-.2.491.131,1.179-.066,1.768l-.163.1c.655.688,2.03-.393,2.456.72-.066.295.393.557.066.819-.459.033-1.114.2-1.409-.1-.131-.295.033-.819-.425-.852C713.945,2790.437,714.3,2790.928,713.88,2791.125Zm-2.85-2.064c-.459.2-1.048.1-1.539.295-.1,0-.262-.033-.328.065-.066-.2.1-.392.164-.589.2-.917,1.277-.622,1.834-.59C711.292,2788.5,710.9,2788.766,711.03,2789.061Zm.852.754.163.2c.033.426.262,1.245-.425,1.278-1.147.229-2.391.294-3.6.425-.164-.065-.524-.032-.524-.36.032-.328.294-.426.589-.459A3.429,3.429,0,0,1,711.882,2789.815Zm5.83-1.7-2.358-.131a1.528,1.528,0,0,0-.787-1.506,2.6,2.6,0,0,0-2.456.163,2.2,2.2,0,0,0-.721,1.114h-1.31a4.451,4.451,0,0,1,7.042-2.358C717.384,2786.277,717.515,2787.227,717.712,2788.111Zm-10.973,3.243a36.368,36.368,0,0,1,5.012-6.911,6.373,6.373,0,0,1,3.177-.327v.1a5.935,5.935,0,0,0-3.046.491C709.622,2786.539,708.639,2789.225,706.739,2791.354Zm14.216,8.09c-.539,1.467-.815,3.066-1.958,4.231a.468.468,0,0,1-.39.41,7.624,7.624,0,0,1-2.428-.133,18.464,18.464,0,0,0-2.937.032c-.955.063-1.905.178-2.861.219a18.943,18.943,0,0,0-2.746.213.539.539,0,0,1-.361-.056c-.245.17-.464.316-.6-.134-.1-.556-.328-1.441.164-1.9a10.2,10.2,0,0,0,.425-2.293c1.179-.328,2.424-.328,3.734-.59,1.409-.327,2.686-.327,4.127-.655v-.065c-2.686-.033-5.24.786-7.861.884v-.164c1.834-.163,3.57-.622,5.437-.786.033-.032.132-.065.1-.164a19.858,19.858,0,0,0-3.407.426,11.622,11.622,0,0,1-1.363.165.538.538,0,0,1-.245.063.653.653,0,0,1-.078-.021,4.064,4.064,0,0,0-.443.088.456.456,0,0,1,0-.5.6.6,0,0,1-.033-.149c0-.014-.008-.027-.008-.04,0-.07,0-.141,0-.211,0-.007,0-.013,0-.02,0-.174-.015-.348-.024-.522,0-.035-.009-.07-.009-.106a.132.132,0,0,1,0-.019c-.005-.058,0-.116-.008-.173l-.009-.056a.758.758,0,0,1-.008-.227.644.644,0,0,1,.223-.692,34.006,34.006,0,0,0,8.549-.132c1.114-.36,2.522.066,3.538-.589a.668.668,0,0,0,.523-.1l.23.458a2.091,2.091,0,0,0,.295,2.424l-.23.1C720.758,2798.691,720.693,2799.215,720.955,2799.444Zm-.3-6.911a16.84,16.84,0,0,0,.131,2.293c-.131.36-.459.229-.721.3-.2-.2.623-.557.164-.917a1.311,1.311,0,0,0-1.048-.2c-.492.328-1.245.524-1.31,1.179-.164.131-.426,0-.524.23.982.1,2.129-.393,3.079-.033-.3.262-.819-.1-1.082.295a47.041,47.041,0,0,1-11.2.524c-.557.1-.983-.066-1.114-.59.1-1.114.131-2.325.164-3.537l.589.1c3.767-.491,7.829-.328,11.4-1.278C720.037,2790.994,720.332,2791.911,720.66,2792.533Zm-2.424,2.49c.458-.459,1.245-1.147,1.834-.525A2.21,2.21,0,0,1,718.236,2795.023Zm5.241-4.914c-.787-.065-1.573.2-2.391.2-.263-1.015-.459-1.8-.787-2.784a1.7,1.7,0,0,0-.163-.885,13.63,13.63,0,0,1,3.7,3.014C724,2789.946,723.607,2789.978,723.477,2790.109Z" transform="translate(-598 -2777.011)" fill="#777"/>
        <path id="Path_11937" data-name="Path 11937" d="M708.574,2789.946c.065-.1.065-.3.229-.3C708.737,2789.749,708.737,2789.913,708.574,2789.946Z" transform="translate(-598 -2777.011)" fill="#777"/>
        <path id="Path_11938" data-name="Path 11938" d="M711.39,2790.175a3.459,3.459,0,0,0-2,0c-.3.2-.688.393-.786.72a1.2,1.2,0,0,0,.557.23C709.851,2790.732,711.39,2791.289,711.39,2790.175Zm-2.522.72c.459-.949,1.507-.622,2.293-.655l.131.1C710.7,2790.961,709.589,2790.9,708.868,2790.9Z" transform="translate(-598 -2777.011)" fill="#777"/>
        <path id="Path_11939" data-name="Path 11939" d="M756.46,2791.583c1.965-.131,3.767-.262,5.634-.458-1.8-.033-3.57.262-5.339.229C756.689,2791.485,756.394,2791.354,756.46,2791.583Z" transform="translate(-598 -2777.011)" fill="#777"/>
        <path id="Path_11940" data-name="Path 11940" d="M745.913,2792.468c1.6-.393,3.767-.164,5.372-.393v-.066c-1.507.066-3.341.066-4.717.23-.688.163-1.637-.1-2.194.229.458.1.95-.164,1.408,0v.426c-1.113-.066-1.932.393-3.177.229v.065a6.278,6.278,0,0,0,2.588-.065c.262.327.491-.131.851,0l.033,2.129h.066c.065-.721.13-1.343.2-2.129.295-.131.589.033.884-.1,2-.065,4.422-.392,6.584-.425l.2-.164c-3.014.229-4.947.2-7.8.459C746.077,2792.828,745.815,2792.7,745.913,2792.468Z" transform="translate(-598 -2777.011)" fill="#777"/>
        <path id="Path_11941" data-name="Path 11941" d="M755.346,2792.468l-.065.065c-.23.066-.754.2-.819-.1a.245.245,0,0,1-.295.164c.033.163-.033.393.066.524a10.084,10.084,0,0,0,1.564-.09c.1-.426-.418-.565-.614-.794Z" transform="translate(-598 -2777.011)" fill="#777"/>
        <path id="Path_11942" data-name="Path 11942" d="M628.031,2799.739a179.345,179.345,0,0,1,31.248-3.537,158.282,158.282,0,0,0-23.78,2.063C633.043,2798.822,630.357,2798.986,628.031,2799.739Z" transform="translate(-598 -2777.011)" fill="#777"/>
        <path id="Path_11943" data-name="Path 11943" d="M705.036,2796.595l0,.014h0Z" transform="translate(-598 -2777.011)" fill="#777"/>
        <path id="Path_11944" data-name="Path 11944" d="M720.234,2798.56c-2.064-.131-4.061-.262-6.256-.36,2,.229,4.422.294,6.256.426Z" transform="translate(-598 -2777.011)" fill="#777"/>
        <path id="Path_11945" data-name="Path 11945" d="M763.731,2798.494c-.884.328-1.048,1.376-1.179,2.261.885.065,0-.754.295-1.147.229.164.2.59.524.721.2-.426-.753-.754-.295-1.048l.361.393c.032-.328-.1-.721.13-1.016.656-.229.328.557.59.786.033-.131,0-.327.164-.425a1.268,1.268,0,0,1,.229,1.244h.2c.393.3-.295.557-.2.819h.131c0-.1.1-.164.164-.229l.066.065c-.1.328.294,1.016-.361,1.016.033.229.393.2.361.458a3.613,3.613,0,0,1-.754,2.064c-.295.262-.622.032-.884-.066a1,1,0,0,1-.262-1.244c-1.048-.262.655-.262.131-.885-.3-.033-.36.262-.524.361-.524-.525.819-.918-.131-1.245a5.566,5.566,0,0,0,.491,2.784c.229.327.557.786.983.59.884-.59.851-1.671,1.08-2.588C764.976,2800.787,765.074,2799.117,763.731,2798.494Z" transform="translate(-598 -2777.011)" fill="#777"/>
        <path id="Path_11946" data-name="Path 11946" d="M716.48,2798.849c-.219-.037-.44-.078-.668-.125A5.96,5.96,0,0,0,716.48,2798.849Z" transform="translate(-598 -2777.011)" fill="#777"/>
        <path id="Path_11947" data-name="Path 11947" d="M716.48,2798.849a16.6,16.6,0,0,0,3.885.17C719.049,2798.795,717.781,2799.022,716.48,2798.849Z" transform="translate(-598 -2777.011)" fill="#777"/>
        <path id="Path_11948" data-name="Path 11948" d="M741,2806.388a1.8,1.8,0,0,0,.885-.819,5.585,5.585,0,0,0-.295-5.666,1.14,1.14,0,0,0-1.8.065,5.467,5.467,0,0,0,0,5.962A1.242,1.242,0,0,0,741,2806.388Zm-1.212-1.769c-.131-.131-.557.132-.491-.229a1.175,1.175,0,0,0,.786-.524c0-.262-.36-.36-.557-.229l-.393.393c-.262-.393.2-.721.459-.917-.164-.262-.623-.2-.59-.59.295.1.491.361.819.3.2-.131.1-.393.131-.59a2.668,2.668,0,0,0-.885-.131c.132-.229.885-.2.525-.753-.066-.2-.1-.426-.164-.589.262.2.491.884.884.687a2.819,2.819,0,0,0-.72-.949l.2-.164.459.524c.2-.36-.2-1.081.36-1.179.655-.263.36,1.834.884.425.295.066.23.394.394.59l-.1.753.393.066c.164.393-.688.589-.327.95l.393-.361c-.131.426.393,1.18-.393,1.049a.172.172,0,0,1-.066.131c.033.294.426.163.459.458a2.735,2.735,0,0,1-1.245,2.358c-.655.23-1.114-.262-1.408-.753C739.461,2805.111,739.821,2804.914,739.788,2804.619Z" transform="translate(-598 -2777.011)" fill="#777"/>
        <path id="Path_11949" data-name="Path 11949" d="M718.465,2801.344a1.124,1.124,0,0,0-.2-.121A1.162,1.162,0,0,1,718.465,2801.344Z" transform="translate(-598 -2777.011)" fill="#777"/>
        <path id="Path_11950" data-name="Path 11950" d="M725.9,2801.377c.164.2.131.59.492.557.1-.131.262-.23.294-.361l.033.066c0,.1-.131.458-.033.3a2.491,2.491,0,0,0,.361-1.081c-.033-.262-.164-.557-.492-.524-.229.131-.589.294-.655.589.164,0,.525-.589.819-.425C726.425,2800.755,725.9,2800.918,725.9,2801.377Z" transform="translate(-598 -2777.011)" fill="#777"/>
        <path id="Path_11951" data-name="Path 11951" d="M727.44,2800.46a2.535,2.535,0,0,1,.786,1.7A1.708,1.708,0,0,0,727.44,2800.46Z" transform="translate(-598 -2777.011)" fill="#777"/>
        <path id="Path_11952" data-name="Path 11952" d="M763.731,2801.279l-.164-.2c-.13.164-.065.36-.065.557.065.1.229-.131.229.1.164.131-.032.262-.131.36.033.164-.065.557.131.459l.131-.524c.361,0,0,.524.295.59.426-.394-.327-.557,0-.983.033-.033.066,0,.1.033a.319.319,0,0,0,.131-.3c.033-.131-.032-.328-.2-.295.033.1-.066.131-.1.2-.133-.111-.073-.326-.07-.524h-.061v-.132h.05a.323.323,0,0,0-.05-.13H763.9C763.7,2800.755,764.026,2801.115,763.731,2801.279Zm-.065.065H763.6v-.131h.066Zm.131.884h-.066v-.131h.066Zm.458-1.08h.066v.131h-.066Z" transform="translate(-598 -2777.011)" fill="#777"/>
        <path id="Path_11953" data-name="Path 11953" d="M628.555,2800.689c.95,1.867.786,4.192.983,6.354h.262a.4.4,0,0,0-.131-.295C629.669,2804.587,629.636,2802.359,628.555,2800.689Z" transform="translate(-598 -2777.011)" fill="#777"/>
        <path id="Path_11954" data-name="Path 11954" d="M764.026,2800.755v-.132h-.015a.565.565,0,0,1,.011.132Z" transform="translate(-598 -2777.011)" fill="#777"/>
        <path id="Path_11955" data-name="Path 11955" d="M727.735,2802.163c.262-.033.262-.36.229-.59l-.459-.72c-.327.1-.2.557-.229.884C727.309,2801.934,727.505,2802.2,727.735,2802.163Z" transform="translate(-598 -2777.011)" fill="#777"/>
        <path id="Path_11956" data-name="Path 11956" d="M763.142,2801.442c.262-.622-.426-.36-.655-.589v.295C762.683,2801.213,762.912,2801.606,763.142,2801.442Z" transform="translate(-598 -2777.011)" fill="#777"/>
        <path id="Path_11957" data-name="Path 11957" d="M700.713,2801.213a8.205,8.205,0,0,0-1.114.754.943.943,0,0,0,.36.949c.328.131.524-.2.688-.393.1.131-.2.393-.066.524a2.244,2.244,0,0,0,.492-1.7c-.1-.36-.492-.295-.786-.295-.262.164-.655.328-.754.688C699.8,2801.573,700.287,2801.115,700.713,2801.213Z" transform="translate(-598 -2777.011)" fill="#777"/>
        <path id="Path_11958" data-name="Path 11958" d="M702.645,2803.342a.562.562,0,0,0,.2-.491,2.056,2.056,0,0,0-1.18-1.7A2.321,2.321,0,0,1,702.645,2803.342Z" transform="translate(-598 -2777.011)" fill="#777"/>
        <path id="Path_11959" data-name="Path 11959" d="M622.594,2809.6l.229-.295c.328-1.965-.131-3.8-.065-5.863a1.35,1.35,0,0,0-1.114-.982c-5.093-.418-9.957-.688-14.739-.885-1.163-.024-3.005-.516-3.374.524a16.5,16.5,0,0,0-.753,5.962Zm-1.474-3.9c-3.177-.294-6.354-.622-9.5-.949,3.046.327,6.453.294,9.5.72Zm.066-2.129c.131.131.1.328.1.525-4.815-.361-9.794-.656-14.608-1.114C611.458,2803.08,616.371,2803.473,621.186,2803.571Z" transform="translate(-598 -2777.011)" fill="#777"/>
        <path id="Path_11960" data-name="Path 11960" d="M702.186,2803.277a.577.577,0,0,0,.23-.754c-.131-.36-.393-.819-.819-.884a2.942,2.942,0,0,0-.131,1.212C701.63,2803.08,701.859,2803.408,702.186,2803.277Z" transform="translate(-598 -2777.011)" fill="#777"/>
        <path id="Path_11961" data-name="Path 11961" d="M740.476,2802.982l.131-.131c.229.1.033.327.164.426l-.23.131a.474.474,0,0,0,.132.622.9.9,0,0,0,.163-.622c.492-.1,0,.589.426.622l.1-.1c.1-.23.1-.655-.229-.655l.065-.066c-.13-.36.2-.164.361-.295.033-.164.164-.524-.131-.655l-.23.295-.2-.229c.2-.131.131-.459.066-.655H740.9c-.229.295.229.687-.2.884l-.229-.295-.1.131A.484.484,0,0,0,740.476,2802.982Zm.229.655h-.032v-.131h.032Zm.557-.2h.033v.131h-.033Zm.229-.884v.131l-.065-.164Zm-.491-.622v.1l-.033-.1Zm-.459.622v.131l-.065-.131Z" transform="translate(-598 -2777.011)" fill="#777"/>
        <path id="Path_11962" data-name="Path 11962" d="M726.031,2802.458c-.131-.2-.163-.59-.491-.524a2.384,2.384,0,0,0-.229,2.063c.131-.033.262.033.36-.065.328-.426.131-.918.164-1.376l.131.131a1.71,1.71,0,0,1-.295,1.539c-.131.066-.3.1-.229.295.065.033.1-.065.164-.131A2.125,2.125,0,0,0,726.031,2802.458Z" transform="translate(-598 -2777.011)" fill="#777"/>
        <path id="Path_11963" data-name="Path 11963" d="M726.49,2804.881a.745.745,0,0,0-.884-.491.174.174,0,0,1,.065.131c-.393.819.36,1.441.819,1.867A2,2,0,0,0,726.49,2804.881Zm-.688-.2c.1-.229.524-.066.59.2C726.2,2804.783,726,2804.488,725.8,2804.685Z" transform="translate(-598 -2777.011)" fill="#777"/>
        <path id="Path_11964" data-name="Path 11964" d="M664.912,2802.163l-.065.066h.1Z" transform="translate(-598 -2777.011)" fill="#777"/>
        <path id="Path_11965" data-name="Path 11965" d="M726.916,2802.752c.065.033.1.132.164.1.032-.066.229-.2.065-.229l-.065.065-.1-.131c-.065-.1.033-.164.1-.229a.17.17,0,0,0,.13.065c-.065-.131-.065-.229-.229-.164Z" transform="translate(-598 -2777.011)" fill="#777"/>
        <path id="Path_11966" data-name="Path 11966" d="M728.449,2803.991a5.066,5.066,0,0,0-.125.694A1.811,1.811,0,0,0,728.449,2803.991Z" transform="translate(-598 -2777.011)" fill="#777"/>
        <path id="Path_11967" data-name="Path 11967" d="M728.449,2803.991a2.1,2.1,0,0,0,.006-1.369C728.414,2803.05,728.462,2803.553,728.449,2803.991Z" transform="translate(-598 -2777.011)" fill="#777"/>
        <path id="Path_11968" data-name="Path 11968" d="M726.555,2802.818c-.163.2-.229.557,0,.688l.164-.164C726.752,2803.146,726.719,2802.884,726.555,2802.818Zm.066.393-.066-.164c.066-.033.1.033.131.066C726.686,2803.146,726.654,2803.178,726.621,2803.211Z" transform="translate(-598 -2777.011)" fill="#777"/>
        <path id="Path_11969" data-name="Path 11969" d="M727.669,2803.047l-.164-.229a.594.594,0,0,0-.065.688c.2.065.164-.164.229-.229h-.164c-.1-.033-.065-.164-.065-.23C727.505,2802.916,727.6,2803.047,727.669,2803.047Z" transform="translate(-598 -2777.011)" fill="#777"/>
        <path id="Path_11970" data-name="Path 11970" d="M727.865,2803.211a1.139,1.139,0,0,0,.23,1.245,1.741,1.741,0,0,0,.065-1.6Z" transform="translate(-598 -2777.011)" fill="#777"/>
        <path id="Path_11971" data-name="Path 11971" d="M764.321,2802.916c.1.164.033.459.229.524v-.327C764.485,2803.047,764.485,2802.851,764.321,2802.916Z" transform="translate(-598 -2777.011)" fill="#777"/>
        <path id="Path_11972" data-name="Path 11972" d="M699.6,2805.5a2.8,2.8,0,0,0,.1-1.933c-.164-.229-.262-.72-.688-.589a2.971,2.971,0,0,0-.491,2.129c.1.229.262.524.589.393.623-.491.361-1.343.262-1.933.164.131.164.295.295.426a1.778,1.778,0,0,1-.425,1.769c-.164.164-.492.131-.361.393C699.173,2806.093,699.4,2805.766,699.6,2805.5Z" transform="translate(-598 -2777.011)" fill="#777"/>
        <path id="Path_11973" data-name="Path 11973" d="M763.273,2804.1a1.693,1.693,0,0,1,.229-.688c.065-.2-.033-.262-.2-.295C763.273,2803.44,763.142,2803.833,763.273,2804.1Z" transform="translate(-598 -2777.011)" fill="#777"/>
        <path id="Path_11974" data-name="Path 11974" d="M701.073,2804.1c.262.1.295-.2.36-.361-.065-.1-.229.295-.36.066,0-.1-.066-.262.065-.361.1-.032.164.066.23.131v-.131a.262.262,0,0,0-.426-.032A.558.558,0,0,0,701.073,2804.1Z" transform="translate(-598 -2777.011)" fill="#777"/>
        <path id="Path_11975" data-name="Path 11975" d="M763.862,2804.325a2.887,2.887,0,0,0,.033-.917h-.1A1.932,1.932,0,0,0,763.862,2804.325Z" transform="translate(-598 -2777.011)" fill="#777"/>
        <path id="Path_11976" data-name="Path 11976" d="M703.136,2803.8h-.065a6.433,6.433,0,0,1-.078,2.289A4.131,4.131,0,0,0,703.136,2803.8Z" transform="translate(-598 -2777.011)" fill="#777"/>
        <path id="Path_11977" data-name="Path 11977" d="M726.85,2804.226l-.131.1-.1-.1c-.066-.1.065-.163.1-.229.066-.033.1.033.131.033-.032-.1-.1-.262-.229-.1a.549.549,0,0,0,.1.655C726.948,2804.521,726.818,2804.226,726.85,2804.226Z" transform="translate(-598 -2777.011)" fill="#777"/>
        <path id="Path_11978" data-name="Path 11978" d="M727.342,2804.587a.363.363,0,0,0,.1-.295l-.066.033c-.065.033-.1-.066-.164-.1-.065-.1.066-.163.132-.229,0,.033.032.066.1.033.065-.131-.164-.229-.23-.1A.541.541,0,0,0,727.342,2804.587Z" transform="translate(-598 -2777.011)" fill="#777"/>
        <path id="Path_11979" data-name="Path 11979" d="M702.023,2804.292l-.262-.262a.664.664,0,0,0-.23.655c.033.1.164.295.295.229.1-.1.229-.163.2-.327-.066.065-.164.065-.262.1a.25.25,0,0,1-.1-.3A.219.219,0,0,1,702.023,2804.292Z" transform="translate(-598 -2777.011)" fill="#777"/>
        <path id="Path_11980" data-name="Path 11980" d="M700.483,2804.914c.23-.131.23-.393.23-.622,0-.2-.2-.2-.361-.2-.229.163-.065.425-.1.655C700.319,2804.816,700.319,2805.013,700.483,2804.914Zm0-.589h.1v.262h-.1Z" transform="translate(-598 -2777.011)" fill="#777"/>
        <path id="Path_11981" data-name="Path 11981" d="M702.252,2804.587c-.066.458-.2,1.113.229,1.474.59-.262.361-1.147.426-1.769C702.645,2803.8,702.448,2804.423,702.252,2804.587Z" transform="translate(-598 -2777.011)" fill="#777"/>
        <path id="Path_11982" data-name="Path 11982" d="M741.557,2804.325a.574.574,0,0,0,.295.655v-.393C741.819,2804.488,741.688,2804.292,741.557,2804.325Z" transform="translate(-598 -2777.011)" fill="#777"/>
        <path id="Path_11983" data-name="Path 11983" d="M740.116,2804.587l-.164,1.113a2.923,2.923,0,0,0,.459-1.081Z" transform="translate(-598 -2777.011)" fill="#777"/>
        <path id="Path_11984" data-name="Path 11984" d="M727.374,2804.751c-.556.229-.393,1.015-.327,1.539h.033c.1-.36.556-.491.72-.819a1.26,1.26,0,0,1-.655.983c.295-.033.491-.328.72-.524.2-.262.1-.524.066-.819A.661.661,0,0,0,727.374,2804.751Z" transform="translate(-598 -2777.011)" fill="#777"/>
        <path id="Path_11985" data-name="Path 11985" d="M740.771,2804.881V2806h.131C740.836,2805.635,741.262,2805.045,740.771,2804.881Z" transform="translate(-598 -2777.011)" fill="#777"/>
        <path id="Path_11986" data-name="Path 11986" d="M700.581,2805.569c.1-.1.2-.131.295-.065-.033-.262-.327-.164-.393,0,0,.262-.065.557.164.721C701.3,2805.962,700.418,2806.028,700.581,2805.569Z" transform="translate(-598 -2777.011)" fill="#777"/>
        <path id="Path_11987" data-name="Path 11987" d="M701.236,2806c.033.1.164.262.295.23.2-.066.2-.394.2-.361l-.2.131a.264.264,0,0,1-.1-.3c-.065-.131.033-.229.164-.2.033.065.164.1.131.2h.033v-.131h-.033a.375.375,0,0,0-.262-.229C701.236,2805.5,701.236,2805.733,701.236,2806Z" transform="translate(-598 -2777.011)" fill="#777"/>
        <path id="Path_11988" data-name="Path 11988" d="M699.4,2806c-.295.295-.262.655-.295,1.114a3.767,3.767,0,0,0,1.311,1.375,2.7,2.7,0,0,0-.066-1.9A.97.97,0,0,0,699.4,2806Zm-.1.393c.262-.491.786-.065.95.262A.836.836,0,0,0,699.3,2806.388Z" transform="translate(-598 -2777.011)" fill="#777"/>
        <path id="Path_11989" data-name="Path 11989" d="M702.317,2806.814c-.262-.36-.949-.557-1.179-.066a2.461,2.461,0,0,0,0,1.606c.262-.361.787-.656,1.114-1.049-.033.459-.557.95-1.016,1.212a1.706,1.706,0,0,0,1.311-1.212h-.2Z" transform="translate(-598 -2777.011)" fill="#777"/>
        <path id="Path_11990" data-name="Path 11990" d="M699.239,2807.633a1.283,1.283,0,0,0,.655.721A3.326,3.326,0,0,1,699.239,2807.633Z" transform="translate(-598 -2777.011)" fill="#777"/>
        <path id="Path_11991" data-name="Path 11991" d="M608.149,2808.943c-1.7-.131-3.537-.229-5.273-.426v.655l5.306.492C608.149,2809.4,608.411,2809.14,608.149,2808.943Z" transform="translate(-598 -2777.011)" fill="#777"/>
        <path id="Path_11992" data-name="Path 11992" d="M612.9,2809.369l-.033.753,9.662.885a4.152,4.152,0,0,0,.066-.885Z" transform="translate(-598 -2777.011)" fill="#777"/>
        <path id="Path_11993" data-name="Path 11993" d="M605.464,2816.215c4.108.735,8.319,1.08,12.479,1.637a5.538,5.538,0,0,0,2.653-.3c1.343-.786,1.578-2.538,1.867-3.766a7.166,7.166,0,0,0,0-2.129l-19.521-2c-.3-.066-.2.262-.3.393l1.343,4.978A1.937,1.937,0,0,0,605.464,2816.215Zm15.591-3.44c.032.131.065.361-.131.459-3.374-.524-6.977-.786-10.416-1.343a1.006,1.006,0,0,1-.885-.131C613.194,2812.12,617.288,2812.513,621.055,2812.775Zm-.459,1.6v.459c-4.487-.557-8.942-1.441-13.4-2.2Z" transform="translate(-598 -2777.011)" fill="#777"/>
        <path id="Path_11994" data-name="Path 11994" d="M629.325,2820.014c2.265,0,5.028.819,6.731-.753.164-.131.557.065.622-.23a21.709,21.709,0,0,0,.2-4.847,1.21,1.21,0,0,0-.59-.95,60.423,60.423,0,0,0-6.976-.688c-.2.066-.3.3-.361.458a39.531,39.531,0,0,0-.251,5.891C628.67,2819.386,628.768,2819.921,629.325,2820.014Zm2.6-6.584a18.565,18.565,0,0,1,4.52.656,16.6,16.6,0,0,1-.061,4.9l-.389.041a29.3,29.3,0,0,1-3.841-.36c-.131-.065,0-.164.066-.229,1.179-.164,2.423.294,3.7.065l.295-.426-.066-3.7c-.426-.982-1.7-.36-2.456-.786-.754.229-1.376-.458-1.966.131A.24.24,0,0,1,631.929,2813.43Zm.393.361a14.155,14.155,0,0,1,3.374.393,18.479,18.479,0,0,1,.163,3.832c-.065.131-.065.295-.229.295-1.048-.1-2.227-.23-3.373-.328A22.235,22.235,0,0,1,632.322,2813.791Zm-3.112-.131a.645.645,0,0,1,.295-.524,3.346,3.346,0,0,1,1.867.524c-.131,1.7.262,3.177.131,4.913-.655.393-1.539.393-2.129.818.884.164,1.638-.785,2.555-.491,1.376.033,2.391.393,3.767.426-1.867,1.015-4.062.3-6.093.426-.524-.164-.5-.693-.524-1.179C629.052,2816.984,629.145,2815.166,629.21,2813.66Z" transform="translate(-598 -2777.011)" fill="#777"/>
        <path id="Path_11995" data-name="Path 11995" d="M741,2818.311l.066-.033a1.911,1.911,0,0,1,1.375.983l-.065-.23a1.8,1.8,0,0,0-1.736-1.015c-2.142.381-2.653,4.577-2.653,4.577-.164,1.781.2,4,1.9,5.216a1.312,1.312,0,0,0,1.376-.327,1.513,1.513,0,0,1-.884.3,1.474,1.474,0,0,1-1.147-.59,3.927,3.927,0,0,0,1.245.1,2.437,2.437,0,0,0,1.114-1.179,4.032,4.032,0,0,0-.59.721,1.6,1.6,0,0,1-1.7.1l.131-.1c1.015-.066,1.638-1.212,1.932-2,.525-1.835.688-4.389-.982-5.667l.033-.065c1.539.524,1.67,2.227,1.768,3.635.2.2.262.525.557.557C742.834,2821.422,742.54,2819.49,741,2818.311Zm-1.507,4.683a1.568,1.568,0,0,1-1.179.394c.1-.262.59-.1.819-.394l-.786-.065a2.084,2.084,0,0,1,.2-1.015,1.719,1.719,0,0,1,.884.425,1.109,1.109,0,0,1,.164,1.18,1.5,1.5,0,0,1-1.278.72,1.973,1.973,0,0,0,1.179-.851C739.461,2823.257,739.624,2823.093,739.493,2822.994Zm1.573,1.933a2.755,2.755,0,0,1-1.933,1.769,3.752,3.752,0,0,1-.86-2.219,1.949,1.949,0,0,0,1.548-.827,1.408,1.408,0,0,0-.229-1.507,1.8,1.8,0,0,0-1.048-.459c.1-.294,0-.72.294-.884A4.314,4.314,0,0,1,741.066,2824.927Zm-.23-3.832c.066-.066.131-.164.23-.164a.857.857,0,0,1-.983.3l-.353-.306A1.153,1.153,0,0,0,740.836,2821.095Z" transform="translate(-598 -2777.011)" fill="#777"/>
        <path id="Path_11996" data-name="Path 11996" d="M608.608,2823.813a.279.279,0,0,0,.426,0,1.893,1.893,0,0,1-.885-.294,48.9,48.9,0,0,1-7.14-1.311,1.965,1.965,0,0,0-.851-.524c.491.754,1.572.721,2.325,1.016C604.514,2823.06,606.479,2823.486,608.608,2823.813Z" transform="translate(-598 -2777.011)" fill="#777"/>
        <path id="Path_11997" data-name="Path 11997" d="M601.926,2823.682a13.79,13.79,0,0,0,.295,4.193c1.187.205,2.211.45,3.505.655l-.262-4.192C604.284,2824.174,603.1,2823.944,601.926,2823.682Zm1.245,4.029c-1.245.229-.524-1.015-.884-1.6l-.066-1.539h.131a1.338,1.338,0,0,0,1.048.426C603.367,2825.844,603.269,2826.794,603.171,2827.711Z" transform="translate(-598 -2777.011)" fill="#777"/>
        <path id="Path_11998" data-name="Path 11998" d="M609.722,2823.944l-.459-.065.459.164Z" transform="translate(-598 -2777.011)" fill="#777"/>
        <path id="Path_11999" data-name="Path 11999" d="M610.147,2824.043c.066-.033.1.065.164.131,3.832.524,7.6,1.506,11.464,2.129h1.114c-4.357-.688-8.647-1.474-12.938-2.326l.131.131Z" transform="translate(-598 -2777.011)" fill="#777"/>
        <path id="Path_12000" data-name="Path 12000" d="M654.758,2824.534c-4.081-1.1-6.419,4.291-6.485,4.88,2.629-3.832,4.287-5.551,7.89-3.975,2.653,1.67,3.807,6.121,3.41,9.773a10.391,10.391,0,0,1-1.408,4.291c-.2-.2-.295-.426-.59-.59,1.671-1.9,1.572-4.847,1.18-7.3-.459-1.6-.983-3.636-2.817-4.193a6.264,6.264,0,0,1,2.129,2.653c1.146,2.948.786,6.879-1.31,9.27a3.515,3.515,0,0,1-3.44,1.244c-1.965-.589-3.013-2.718-3.406-4.552-.557-3.276.1-6.813,2.948-8.746a3.852,3.852,0,0,0-1.048.492,7.221,7.221,0,0,0-2.486,4.069,12.526,12.526,0,0,0-.233,5.069c0,.327.229.688.065.95a9.031,9.031,0,0,1-1.473-3.734l-.262.131a10.952,10.952,0,0,0,1.834,6.616,5.138,5.138,0,0,0,4.847,2.359c1.966-.23,3.669-2,4.488-3.734,1.932-3.865,1.864-9.546-.831-13.061A4.768,4.768,0,0,0,654.758,2824.534Z" transform="translate(-598 -2777.011)" fill="#777"/>
        <path id="Path_12001" data-name="Path 12001" d="M738.707,2825.287a.7.7,0,0,0,.2.819.922.922,0,0,0,.917.2c.262-.2.622-.426.491-.852a1.013,1.013,0,0,0-.524-.328C739.461,2825.091,738.871,2824.861,738.707,2825.287Z" transform="translate(-598 -2777.011)" fill="#777"/>
        <path id="Path_12002" data-name="Path 12002" d="M608.313,2826.237a14.431,14.431,0,0,0,.164,2.129,10.5,10.5,0,0,0,1.965.36l-.131-2.1Z" transform="translate(-598 -2777.011)" fill="#777"/>
        <path id="Path_12003" data-name="Path 12003" d="M624.821,2826.532l-1.7-.2A5.042,5.042,0,0,0,624.821,2826.532Z" transform="translate(-598 -2777.011)" fill="#777"/>
        <rect id="Rectangle_187" data-name="Rectangle 187" width="0.066" height="0.098" transform="translate(28.885 49.586)" fill="#777"/>
        <path id="Path_12004" data-name="Path 12004" d="M627.18,2826.7l-.033.065c3.734.1,6.813.59,10.416.066C634.222,2827.22,630.553,2826.827,627.18,2826.7Z" transform="translate(-598 -2777.011)" fill="#777"/>
        <path id="Path_12005" data-name="Path 12005" d="M620.006,2827.285l.1,4.127c1.179.262,2.423.525,3.537.655v-4.192l-3.537-.688Z" transform="translate(-598 -2777.011)" fill="#777"/>
        <path id="Path_12006" data-name="Path 12006" d="M613.456,2827.22l.032,2.194a17.265,17.265,0,0,0,2.129.426,16.483,16.483,0,0,0-.032-2.194Z" transform="translate(-598 -2777.011)" fill="#777"/>
        <path id="Path_12007" data-name="Path 12007" d="M626.721,2827.482c-.033,1.539-.164,2.948-.131,4.487-.033-.164.1-.262.2-.36l-.066-2.784C626.819,2828.366,627.016,2827.908,626.721,2827.482Z" transform="translate(-598 -2777.011)" fill="#777"/>
        <path id="Path_12008" data-name="Path 12008" d="M626.59,2832.493v-.36c0,.131-.2.229-.033.36Z" transform="translate(-598 -2777.011)" fill="#777"/>
        <rect id="Rectangle_188" data-name="Rectangle 188" width="0.033" height="0.197" transform="translate(28.557 55.646)" fill="#777"/>
        <path id="Path_12009" data-name="Path 12009" d="M626.59,2833.967l.066-.229-.1-.655Z" transform="translate(-598 -2777.011)" fill="#777"/>
        <path id="Path_12010" data-name="Path 12010" d="M654.627,2837.668a.9.9,0,0,0,.23,1.016c.2.131.426,0,.589-.131.23-.2.2-.557.2-.885A.525.525,0,0,0,654.627,2837.668Zm.59.492c-.065-.1-.1-.23-.229-.262l-.131.131.2-.459c.361-.1.23.328.361.524C655.381,2838.16,655.283,2838.16,655.217,2838.16Z" transform="translate(-598 -2777.011)" fill="#777"/>
        <g id="Group_5507" data-name="Group 5507" transform="translate(52.939 51.505)">
          <path id="Path_12011" data-name="Path 12011" d="M657.182,2830.168a3.256,3.256,0,0,0-2.915-1.638,3.965,3.965,0,0,0-2.817,2.784c-.917,2.522-.687,5.765,1.409,7.665a2.5,2.5,0,0,0,2.194.458,3.924,3.924,0,0,0,1.867-1.408A8.005,8.005,0,0,0,657.182,2830.168Zm-.36,6.911c-.229-.033-.229-.393-.491-.164-.066-.426.589-.59.556-.065Zm.1-2.162c.066-.164.1-.459.361-.36a.743.743,0,0,1,.2.524c-.033.065-.131.065-.2.065C657.346,2834.884,656.953,2834.884,656.92,2834.917Zm.361-.721a.678.678,0,0,0-.59.426.914.914,0,0,0,.426,1.179.852.852,0,0,0,.524-.294,3.625,3.625,0,0,1-.459,1.343c-.065-.3-.131-.59-.425-.721-.328-.131-.492.262-.656.426a.908.908,0,0,0,.361,1.113h.3a2.841,2.841,0,0,1-2.13,1.6,2.912,2.912,0,0,1-2.522-1.6,7.539,7.539,0,0,1,.393-7.73,2.611,2.611,0,0,1,2.785-1.048,3.263,3.263,0,0,1,1.637,1.474,7.334,7.334,0,0,1,.852,4.553A.837.837,0,0,0,657.281,2834.2Z" transform="translate(-650.939 -2828.516)" fill="#777"/>
          <path id="Path_12012" data-name="Path 12012" d="M654.693,2830.659c.36-.164.426-.524.459-.884-.066-.295-.263-.655-.655-.59a.826.826,0,0,0-.394.983A.662.662,0,0,0,654.693,2830.659Zm.164-.95v.36c-.2.1-.295-.425-.524-.229C654.333,2829.578,654.791,2829.283,654.857,2829.709Z" transform="translate(-650.939 -2828.516)" fill="#777"/>
          <path id="Path_12013" data-name="Path 12013" d="M656.887,2830.659a.541.541,0,0,0-.655-.426.919.919,0,0,0-.294,1.081c.1.164.294.459.589.36C656.92,2831.445,656.887,2831.052,656.887,2830.659Zm-.294.459c-.131-.033-.23-.393-.426-.164a.539.539,0,0,1,.164-.491c.295-.033.2.294.295.425C656.626,2830.954,656.691,2831.085,656.593,2831.118Z" transform="translate(-650.939 -2828.516)" fill="#777"/>
          <path id="Path_12014" data-name="Path 12014" d="M653.088,2831.674a.925.925,0,0,0,.2-.949c-.131-.492-.852-.492-.95-.066a1.006,1.006,0,0,0,.163,1.048A.492.492,0,0,0,653.088,2831.674Zm-.36-1.081c.229,0,.229.2.295.361,0,.1.065.229-.033.295-.164-.033-.2-.361-.426-.23l-.066.066C652.564,2830.921,652.531,2830.692,652.728,2830.593Z" transform="translate(-650.939 -2828.516)" fill="#777"/>
          <path id="Path_12015" data-name="Path 12015" d="M655.119,2831.249a1.617,1.617,0,0,0-1.441.36,3.806,3.806,0,0,0-.95,3.177,2.676,2.676,0,0,0,1.474,2.129,1.5,1.5,0,0,0,1.736-.655,4.219,4.219,0,0,0,.229-4A1.786,1.786,0,0,0,655.119,2831.249Zm-.622.163a2.009,2.009,0,0,0-1.278,1.245A1.812,1.812,0,0,1,654.5,2831.412Zm.4,1.09c.543,0,.984.687.984,1.535s-.441,1.534-.984,1.534-.985-.687-.985-1.534S654.35,2832.5,654.894,2832.5Zm.041,4.278a1.234,1.234,0,0,1-1.356-.52,2.951,2.951,0,0,1-.655-2,2.548,2.548,0,0,0,1.278,2.293c.786.36,1.248-.316,1.674-.84a4.5,4.5,0,0,0,.455-1.289A2.311,2.311,0,0,1,654.935,2836.78Zm1.2-4.073a2.322,2.322,0,0,0-1.312-1.295h-.2a1.187,1.187,0,0,1,.787.2l.622.753.1.345a2.228,2.228,0,0,1,.2.671Z" transform="translate(-650.939 -2828.516)" fill="#777"/>
          <path id="Path_12016" data-name="Path 12016" d="M657.117,2832.133c-.491.164-.426.655-.426,1.048.066.262.36.59.655.36.262-.131.295-.491.36-.753C657.608,2832.46,657.477,2832.166,657.117,2832.133Zm.229.95c-.131-.1-.2-.459-.426-.229-.1-.295.426-.688.492-.2C657.379,2832.788,657.444,2832.984,657.346,2833.083Z" transform="translate(-650.939 -2828.516)" fill="#777"/>
          <path id="Path_12017" data-name="Path 12017" d="M651.745,2833.967a.551.551,0,0,0,.688-.229,1.063,1.063,0,0,0-.164-1.081c-.065-.1-.2-.033-.295-.1-.2,0-.393.229-.458.393A.848.848,0,0,0,651.745,2833.967Zm.229-1.113a.424.424,0,0,1,.295.327l-.065.3-.361-.3-.1.131C651.68,2833.116,651.876,2832.919,651.974,2832.854Z" transform="translate(-650.939 -2828.516)" fill="#777"/>
          <path id="Path_12018" data-name="Path 12018" d="M652.1,2835.015c-.458.1-.524.59-.491,1.016a.641.641,0,0,0,.655.458.933.933,0,0,0,.426-.95A.744.744,0,0,0,652.1,2835.015Zm.3.885h-.2c0-.1-.1-.164-.164-.23-.033.066-.131.066-.2.066,0-.229.426-.688.557-.2Z" transform="translate(-650.939 -2828.516)" fill="#777"/>
          <path id="Path_12019" data-name="Path 12019" d="M653.219,2836.915c-.491.164-.426.655-.426,1.048.1.2.295.426.524.426.426-.1.524-.524.557-.884A.643.643,0,0,0,653.219,2836.915Zm.36.884c-.262.033-.327-.393-.556-.229-.033-.393.556-.524.556-.065Z" transform="translate(-650.939 -2828.516)" fill="#777"/>
        </g>
        <g id="Group_5508" data-name="Group 5508">
          <path id="Path_12020" data-name="Path 12020" d="M768.284,2806.29c-.426-.2-1.015-.1-1.179-.524l-1.834-.066c-.328-.163.065-.589.1-.884a5.215,5.215,0,0,0,.655-1.671c.033-.818,1.016-.753,1.54-1.178,2.03-.164,2.489-2.457,2.882-4.062a2.277,2.277,0,0,0-.393-1.9c-.262-1.6.262-3.112-.229-4.651-.852-.95-.393-3.05-3.751-3.091a30.185,30.185,0,0,1-2.129-2.252c-1.179-1.408-2.276-3.075-4.045-3.566-3.079-.9-7.734-.626-11.656-.733-4.676,0-11.812-.287-13.728.733a30.806,30.806,0,0,0-7.992,5.716c-3.726-2.621-7.418-4.7-11.546-5.4a62.746,62.746,0,0,0-17.96-.054,16.718,16.718,0,0,0-5.3,1.61c-.246-.655-.86-2.375-.942-2.579-1.671-.1-3.693.024-5.4-.009,0-.1-.066-.262.032-.327l3.308-.131.541-.107a5.581,5.581,0,0,0-1.351-3.6,1.769,1.769,0,0,0-1.392-.533c-8.418.131-17.221.549-25.671.942-1.6.123-2.129,1.637-2.252,2.907-2.006-.328-2.293.737-2.334,1.1a13.742,13.742,0,0,1-3.046-.974,2.257,2.257,0,0,0-1.834.065,1.237,1.237,0,0,0-.729.991s-.483.09-.811.188a7.129,7.129,0,0,0-3.668-.949c-.393.131-1.31.581-1.212,1.457-.753-.385-2.538-.982-3.193.287a4.767,4.767,0,0,0-1.884,1.187,21.691,21.691,0,0,0-1.965,1.883l-.1-.131c.032-.032.065-.065.032-.1-.937.148-1.429.168-2.411.332-.238.13-.237.438-.369.614-.122,0-.386.109-.532.123a30.3,30.3,0,0,0-.389,3.386,52.5,52.5,0,0,1-3.373,4.192c-6.862.18-20.423,2.926-26.024,4.466-3.084.846-3.876,4.258-3.766,6.659-1.229.9-2.441,1-2.866,2.444-.23,1.637-.533,10.072,2.907,11.832a9.631,9.631,0,0,0-1.761.369c-1.67.786-.819,2.931-.819,4.339-.041,2.334,1.269,4.1,2.416,5.568.557.885,1.883.86,2.784,1.065.082,1.638,2.047,9.5,9.834,9.638,9.287.166,11.2-4.5,11.333-5.3a23.883,23.883,0,0,0,10.891.082c.123,3.889.737,10.6,10.236,13.077,3.046.524,6.583,1.539,9.629.459,6.134-2.563,8.331-9.128,8.451-15.035,1.3,1.322,3.4.8,4.82.393a1.492,1.492,0,0,0,1.31.546c1.038-.109,2.293.137,2.62-1.119,1.761-.228,3.514-.582,5.3-.846,1.365.546,2.735,1.081,4.176.328.328-.546.955-.464,1.638-.546a1.578,1.578,0,0,0,1.938-.055c2.26-.688,6.086-.682,7.369-1.774a3.443,3.443,0,0,0,.819-1.965l3.161-.464c3.57-.492,8.287,2.063,10.973-1.474,5.8-.852,11.726-1.6,17.523-2.359.459,2.326,1.212,4.815,3.472,6.093l5.011.426c.459-.131.819-.328,1.212.1,1.834.032,3.6.426,5.4.36,1.8-.36,2.98-2.326,3.6-3.832h1.965a19.968,19.968,0,0,1,.164-6.092l12.643-2a9.96,9.96,0,0,1,4.348-2.768,10.453,10.453,0,0,0,1.76-.393c.033-1.736-.024-3.677.041-5.282a6.426,6.426,0,0,1-.859.107,17.266,17.266,0,0,1,1.064-1.679c1.245-.229,2.227-.27,3.439-.4,1.229-.049,3.468-.934,3.439-1.974A38,38,0,0,0,768.284,2806.29Zm-2.653-.066c-.033,0-.786.262-1.146,0C764.845,2805.962,765.238,2806.224,765.631,2806.224Zm-1.179-1.342a1,1,0,0,1-1.146.163c-1.54-1.6-1.343-4.552-.394-6.387a1.493,1.493,0,0,1,.754-.589,1.28,1.28,0,0,1,1.081.72A6.77,6.77,0,0,1,764.452,2804.882Zm-.852-9.04a2.559,2.559,0,0,0-1.179,1.31c.229-.492-.278-.721-.606-.721a6.306,6.306,0,0,0,1.2-1.343,9.481,9.481,0,0,0,1.015-3.145c1.638-.065,3.071-.282,4.606-.323-.008.246-.205,2.129.328,2.764a3.88,3.88,0,0,1,.552-.041c0,.368.312,1.3-.245,1.367a11.876,11.876,0,0,0-3.833.59A2.13,2.13,0,0,0,763.6,2795.842Zm-68.325,22.3c.295.131.688.164.852.524-.033,1.015.164,2.358-1.016,2.849-1.616.568-2.1-1.441-1.965-2.259a3.32,3.32,0,0,1,2.49-.59C695.767,2818.474,695.406,2818.311,695.275,2818.147Zm-3.861-1.318c-.008-.336-.069-4.807-.069-4.807.356.008,1.887-.115,2.686-.131.041,1.49.045,4.336.061,4.606Zm3.337-10.015c.164.033.131.295.2.426h-.655C694.293,2806.978,694.653,2807.076,694.751,2806.814Zm-.327-7.009a10.045,10.045,0,0,1,2.98-.23l.131.1a52.082,52.082,0,0,1-2.882,6.845C694.587,2804.226,694.522,2802.13,694.424,2799.8Zm.753,8.024c-.164.229-.59.033-.852.164-.1-.065-.032-.2-.032-.295C694.587,2807.731,695.079,2807.338,695.177,2807.829Zm-.721,3.112c9.3-.819,18.572-1.179,27.907-2,5.044-.262,10.285-.622,15.46-1.048,1.277,0,2.817.262,3.963-.262,5.9-.393,11.89-.852,17.458-1.179h2.85c-2.26.295-4.357.295-6.551.557-19.653,1.375-40.877,3.079-61.021,4.454A.9.9,0,0,1,694.456,2810.941Zm6.093-10.448a2.279,2.279,0,0,1,2.227,1.244,6.7,6.7,0,0,1-.229,6.387c-.426.36-.786.885-1.311.95a2.451,2.451,0,0,1-1.539-.36,5.826,5.826,0,0,1-1.277-5.274A3.7,3.7,0,0,1,700.549,2800.493Zm-.786-.754c.1-.327.622-.524,1.015-.59a1.7,1.7,0,0,1,1.638.819,2.339,2.339,0,0,0-2.293-.458Zm25.318,2.719c.295-.983.59-2.326,1.835-2.555.688,0,1.081.688,1.408,1.179.655,1.7.688,4.192-.688,5.568a1.391,1.391,0,0,1-1.244.164C724.983,2805.864,724.885,2804.095,725.081,2802.458Zm6.912-10.515a15.181,15.181,0,0,1,3.668-.982v-.262c-1.375-.2-2.456.688-3.734.884-.327-1.6-2.1-1.441-3.112-2.162l.1-.065a87.488,87.488,0,0,1,12.217.655,12.09,12.09,0,0,1,1.965.229c-1.134.315-2.25.7-3.4.917a.516.516,0,0,1-.132.122c-1.953,1.259-4.373,1.323-6.43,2.334a.548.548,0,0,1-.47.015,1.233,1.233,0,0,1-.212.019c-.164.131-.229-.131-.295-.295v-1.113C731.927,2792.3,732.124,2792.009,731.993,2791.943Zm-.295,3.08c-.23.1-.36-.164-.426-.361l-.065-.753c.229-.033.491-.033.556.229A2,2,0,0,0,731.7,2795.023Zm0-1.474c-.131.065-.393-.066-.524.065-.066-.36-.2-.688.1-.95.328-.131.262.2.36.36C731.5,2793.188,731.763,2793.319,731.7,2793.549Zm8.254-7.141c-.033-.426,0-.884.426-1.081.295.131.425-.2.622-.327.1-.426-.033-.852-.459-.95-.065,0-.163,0-.163-.066-.131-.982,1.048-.36,1.572-.523h.131a16.844,16.844,0,0,0-.655,4.585c.065.065.1.164.164.131l.131-.131a10.507,10.507,0,0,1,.884-4.585c1.736,0,3.439-.066,5.011.065a37.685,37.685,0,0,0-3.635,6.289c-1.147-.066-2.293-.1-3.374-.23-2.1-.262-3.669-.426-5.9-.524l-.131-.131-1.408.131a19.591,19.591,0,0,1,2.489-.425,21.651,21.651,0,0,0,3.177-.23c.655-.131.688-.884.754-1.31C739.985,2786.965,739.559,2786.539,739.952,2786.408Zm-7.14,7.828a2.141,2.141,0,0,0-.459.95c-.1-.393-.229-1.31.589-1.277.459-.164.23.426.459.589.033.426-.459.328-.721.525C732.55,2794.761,733.008,2794.531,732.812,2794.236Zm-.459,1.474c.295.164.229.917.753.557-.1-.36-.524-.425-.36-.884.2-.23.491-.066.655-.36,0,.491.295,1.6-.459,1.637-.032.164.1.262.033.426a1.6,1.6,0,0,1-.753-.426A3.144,3.144,0,0,1,732.353,2795.71Zm4.88,2.719c-1.277-.262-2.915.065-4.192-.065-.1.065-.033.2-.066.294h-.033c-.163-.36.066-.819.164-1.212a8.531,8.531,0,0,1,.885.164c-.066.131-.3.164-.23.36.328.426.525-.294.754-.294,1.408.065,2.784-.2,3.963.229,0,.327-.36.655-.459,1.015a31.563,31.563,0,0,0-1.015,3.538c-1.834,1.179-4-.033-6.027.1a4.33,4.33,0,0,0,1.9-3.472c.065,0,.131.033.164-.065v-.164a21.225,21.225,0,0,1,4.094.065c.262-.2.884.164.917-.294C737.855,2798.4,737.463,2798.593,737.233,2798.429Zm.3,7.664a1.35,1.35,0,0,1-.458-1.277Zm-4.716-2.587c-.033.131,0,.36-.164.36-.295.131-.23-.2-.295-.295C732.091,2803.08,732.812,2803.178,732.812,2803.506Zm-1.049.655a6.773,6.773,0,0,1-2.03-.36v-.295A2.869,2.869,0,0,1,731.763,2804.161Zm-1.9.065c2.1.394,4.127.394,6.19.885a1.1,1.1,0,0,1-.36.95,30.517,30.517,0,0,1-6.256-.721C729.667,2805.012,729.471,2804.423,729.864,2804.226Zm.949,1.769-1.474.1.1-.393Zm8.68-6.321a1.6,1.6,0,0,1,1.769-.59,2.41,2.41,0,0,1,1.048,1.015,6.364,6.364,0,0,1-.229,5.994,1.78,1.78,0,0,1-1.376.787,2.123,2.123,0,0,1-1.638-1.376A6.432,6.432,0,0,1,739.493,2799.674Zm16.213-1.474c-.262.556,0,1.408-.294,1.9a2.168,2.168,0,0,1-.95,1.54c-3.374.131-6.551.622-9.859.688a10.488,10.488,0,0,0-.328-3.243l.1-.1c.458.1,1.015-.23,1.474.033l.131-.1C749.254,2798.724,752.464,2798.265,755.706,2798.2Zm-9.629-.426c2.719-.131,5.5-.393,8.09-.459.295-.229,1.016,0,1.31-.229.262,0,.754.131.459.524l-.295.295c-3.013.229-6.059.524-9.007.655C746.011,2798.724,746.208,2798.1,746.077,2797.774Zm14.837,7.042v-.491a3.041,3.041,0,0,0,.59,1.375C761.111,2805.635,761.046,2805.143,760.914,2804.816Zm.1.95a.97.97,0,0,1-.393-1.015A3.825,3.825,0,0,0,761.013,2805.766Zm.131-1.769a5.991,5.991,0,0,0,.753,1.769A2.5,2.5,0,0,1,761.144,2804Zm-.295-.72c-.59,0-1.179.262-1.7,0a8.142,8.142,0,0,0,1.474-.23l-1.474-.131-14.707,1.376.23-1.6c5.535-.328,10.972-1.015,16.475-1.245A2.628,2.628,0,0,1,760.849,2803.277Zm-.295,2.423c-.262-.065-.262-.327-.229-.524A2.681,2.681,0,0,1,760.554,2805.7Zm-1.113-.294c-4.193-.2-9.008.163-13.3-.295-.033-1.016,1.179-.262,1.67-.655,3.668-.23,7.075-.459,10.841-.721Zm-14.543-6.78h-.688c.033-.262-.1-.689.295-.721.426.229,1.081-.262,1.343.229C746.011,2798.822,745.258,2798.527,744.9,2798.626Zm16.311,2.423c-2.03.295-4.192.328-6.223.459.983-.819.819-2.227,1.081-3.374,1.408-.1,3.341-.262,4.946-.295.163.655-.262,1.343-.295,1.966-.131.458-.688.753-.819,1.244l.131.1c1.179-.754,1.114-2.2,1.408-3.309l.688-.1C761.963,2798.822,761.308,2799.87,761.209,2801.049Zm-4.913-8.516c1.638-.229,3.505-.262,5.241-.393a.379.379,0,0,0,.262.524c.651-.082,1.511.144,1.367-.634l.5-.021a8.983,8.983,0,0,1-.754,2.784c-.544.778-1.146,1.736-2.063,1.769l-4.684.295c-.2-.131.066-.393.066-.59A23.761,23.761,0,0,0,756.3,2792.533Zm5.077,4.258-.164.688c-1.67.262-3.21.164-4.847.426-.164-.164.033-.524.065-.753C758,2796.889,759.735,2796.955,761.373,2796.791Zm.459.688-.23-.033.131-.72a.376.376,0,0,1,.393.163A.7.7,0,0,1,761.832,2797.479Zm4.487,4.684a5.208,5.208,0,0,1,.131-1.179c.819-.2,1.572-.328,2.424-.59l.36.066C768.644,2801.606,767.269,2801.54,766.319,2802.163Zm3.079-2.2c-1.048.033-1.834.656-2.883.59a19.467,19.467,0,0,0-.36-2.784l.164-.1c1.277-.131,2.588-.2,3.832-.426C769.922,2798.167,769.987,2799.215,769.4,2799.968Zm.753-3.177c-1.179.459-2.849.295-4.127.59l-.458-.819a40.453,40.453,0,0,1,4.061-.491C769.922,2796.267,769.922,2796.595,770.151,2796.791Zm-.536-2.8c-.1,0-.348.078-.512.078-.262-.295-.164-.754-.164-1.114a3.087,3.087,0,0,1,.676-.09A2.237,2.237,0,0,1,769.615,2794Zm.041-1.433a2.066,2.066,0,0,1-.782.1,8.508,8.508,0,0,0,0-1.06,5.3,5.3,0,0,0,.655-.086C769.553,2791.825,769.656,2792.214,769.656,2792.562Zm-1.781-3.644c-.426-.066-1.425.078-1.72-.381A5.073,5.073,0,0,1,767.875,2788.918Zm-6.633-5.359c1.736,1.8,3.177,3.832,4.913,5.5.8.266,2.129-.229,2.489.819.213.409.488.844.684,1.269-.307.1-3.471.4-5.073.5-2.423.2-4.487.36-7.075.524-.458-.033-1.146.131-1.342-.59-.033-.032-.066-.065-.132-.032-.032,0-.065.032-.065.1.131.131.033.458.131.655.623.819.033,2,.164,2.817a10.412,10.412,0,0,1-.164,1.736c-4.192.327-7.828.524-11.922.819a3.172,3.172,0,0,0-2.883-1.7,4.227,4.227,0,0,0-2.194,1.573c-1.347-.674-3.1.088-4.525-.432a.542.542,0,0,1-.069,0h-.005l-.008,0a.628.628,0,0,1-.272-.139.534.534,0,0,1-.038-.054.4.4,0,0,1-.455.04,1.494,1.494,0,0,1,.336-.384.467.467,0,0,1,.07-.28,1.684,1.684,0,0,0,.135-.25,16.864,16.864,0,0,0-.181-1.9c-.065-.2-.327-.262-.294-.491a4.052,4.052,0,0,0,1.113-.59,16.355,16.355,0,0,1,1.9-.393,17.9,17.9,0,0,0,2.882-1.081c1.474-.557,3.243-.589,4.717-1.179,2-2.424,2.555-5.535,5.011-7.664a2.792,2.792,0,0,1,1.589-.557C754.044,2782.318,759.359,2781.815,761.242,2783.559Zm-19.357-1.54c2.62,0,5.338.033,7.926.2a5.162,5.162,0,0,0-1.539.753c-4.619-.164-9.237.065-13.856.065C736.382,2781.823,739.329,2782.183,741.885,2782.019Zm-1.8,1.8a.28.28,0,0,1-.295.1v-.393C739.952,2783.657,740.148,2783.461,740.083,2783.821Zm-6.518-.132a37.03,37.03,0,0,1,5.732-.163c.131.229-.033.655.36.688.328.393,1.179-.2,1.016.655-.295.426-1.278.065-1.016.884-.2.754-.393,1.474-.655,2.194l-.36.23c-3.6.2-6.977,1.081-10.678.819a5.076,5.076,0,0,1-.59-.3A32.234,32.234,0,0,1,733.565,2783.689Zm-22.928-1.015c6.359.246,9.908,2.075,16.573,6.551a20.544,20.544,0,0,0,3.6,1.539c.525.361.525.95.59,1.54a.681.681,0,0,0-.59.426c.066,1.048-.294,2.423.885,2.817.1.393.1.95-.23,1.179a7.727,7.727,0,0,0-1.31.229c-.425-.688-.622-1.572-1.474-2a.232.232,0,0,0-.021-.086c-.067-.026-.136-.048-.205-.07-.022,0-.045,0-.068,0-.05-.014-.1-.024-.151-.035l-.113,0a.414.414,0,0,1-.067.031,5.19,5.19,0,0,1-.523.073c-.125.043-.252.081-.377.122a.479.479,0,0,1-.09.079c-.129.07-.265.129-.4.19a9.256,9.256,0,0,0-1.753,1.626l.033.066c1.08-.786,2.063-2.129,3.5-1.769a5,5,0,0,1,1.7,2.784,1.319,1.319,0,0,0,.066-.72c.721.1,1.769-.721,2.162.229.2,1.965-.033,4.061-1.933,5.077a3.021,3.021,0,0,1-.753.3c-.655-1.965,1.081-4-.361-5.7a2.426,2.426,0,0,0-1.408-.655c-3.177.589-3.668,4.192-4.749,6.616a3,3,0,0,1-1.212,2.227l-.018,0a.645.645,0,0,1-.027.15,3,3,0,0,1-.26.467.559.559,0,0,1-.109.108c.143.072.088.257.152.384-.885.1-2.064.163-3.046.295-3.538,0-6.813.491-10.35.491l.13-.229c.988-.095,1.96-.177,2.927-.255-.739-.007-1.478-.026-2.217,0a.418.418,0,0,1-.061-.01c-1.465.085-2.931.167-4.4.218a.558.558,0,0,1-.258-1.044c-.037-.193.167-.406.242-.581a10.05,10.05,0,0,0,.163-6.714,3.734,3.734,0,0,0-2.423-1.966c-1.933-.36-3.374,1.147-4.521,2.489-1.211.2-2.3-.081-3.512.148,0-1.31-.082-4.627-.082-5.118,1.7-.589,3.005-.958,4.774-1.515,1.277-.458,2.751-.786,4.127-1.179.033-.1-.1-.131-.131-.2-3.079.884-5.79,1.523-8.77,2.6a9.9,9.9,0,0,0-.123-1.884l-.2-1.064c3.243-.1,6.019.278,9.393.245a2.733,2.733,0,0,0,1.9-.2,57.606,57.606,0,0,0,4.717-5.667c.131-.327.459-.688.164-1.048-.164-.336-.9-.5-1.433-.581a52.293,52.293,0,0,0-7.345-.434c-2.2.065-5.143-.126-7.043.72-.884.361-1.473.615-2.358.942l-.065-.229C696.471,2781.855,707.445,2782.551,710.637,2782.674Zm-16.868,7.73c-.557-1.736-1.138-3.209-1.6-4.946.95-.458,1.474-.819,2.415-1.187a6.994,6.994,0,0,1,2.653-.418c4.062-.327,10.736-.2,12.332.377.574.328-.327,1.31-.769,1.982l-3.538,4.192-.655.426Zm-5.8-8.319,2.358.065c1.049,3.308,2.031,6.715,2.948,9.99v.164c-.445.059-.767.048-1.187.116v.018l1.187.03c.524,6.059.41,12.966.737,19.091-.368.062-2.6.168-2.6.168-.164-5.011-.263-10.252-.427-15.46.087-1.066-.133-2.251.008-3.3-.02-.132-.032-.267-.039-.4,0-.066.005-.133,0-.2h-.038c-1.343-3.373-1.834-6.747-3.014-10.088Zm-4.618,40.025c-2.129.426-4.127-.033-6.191-.3,1.114-.1,2.277-.327,3.382-.471.131-.36-.073-.97.156-1.3.982.327,2.129.262,3.144.524,2.424.032,4.815.589,7.3.655-1.67.2-3.275.327-5.011.524-.3-.262-.59-.033-.95-.2-.95-.327-1.867.164-2.817.066-.065.065-.164.1-.131.2C682.6,2821.947,682.992,2822.012,683.353,2822.11Zm-34.1-4.717h.524a16.576,16.576,0,0,0-3.407,2.162,2.024,2.024,0,0,0-.491.426A7.3,7.3,0,0,1,649.256,2817.393Zm-2.719.295c.393-.065.754-.131,1.147-.2-.23.393-.721.426-1.016.721C646.636,2818.081,646.505,2817.885,646.537,2817.688Zm1.671-3.734c-3.538.459-3.177,4.422-4.488,6.715a12.417,12.417,0,0,1-2.554,3.734c-.2.065-.361.229-.623.164a30.643,30.643,0,0,1-1.015-4.488c-.24-1.948-.568-8.663.295-8.778,1.405-.186,13.789-1.506,18.473-1.7a27.514,27.514,0,0,0,3.6-.36v-.066c-1.507-.163-3.341.066-4.913.066-3.8.229-16.967,1.736-17.819,1.7a7.339,7.339,0,0,0-1.7-1.932,143.378,143.378,0,0,1,16.738-1.965c2.26.032,4.258-.23,6.452-.23a25.063,25.063,0,0,1,4.4,5.94,45.346,45.346,0,0,1,2.38,18c-.163.393,0,1.114-.655,1.081l-.589-.065c-.033-5.962-.295-11.857-2.457-16.934a3.083,3.083,0,0,0-2.489-1.474A105.786,105.786,0,0,0,648.208,2813.954Zm-12.152-5.142a4.282,4.282,0,0,1,2.795,2.2h-.464c-1.769-.066-11.437-1.016-13.435-1.114a9.909,9.909,0,0,1,3.308-1.7C630.881,2808.321,633.615,2808.475,636.056,2808.812Zm-6.518-.917c.2-.229.458-.2.72-.262a202.184,202.184,0,0,1,20.139-2.167,31.546,31.546,0,0,1,7.015.4l2.62.666c-10.154.246-19.789,1.447-22.928,2.211A40.277,40.277,0,0,0,629.538,2807.9Zm37.667,9.5c.022,0,.044,0,.066-.006a2.992,2.992,0,0,1-.13-.354h0l-.005-.022a12.554,12.554,0,0,0-.372-1.433.387.387,0,0,1-.013-.17,24.946,24.946,0,0,0-3.868-7.284c-.3-1.867.491-4.094-.885-5.568l.2-.164c.055,0,.106-.005.16,0a.74.74,0,0,1-.019-.079.525.525,0,0,1,.015-.081h-.222l.2-.6c.065-1.9-.287-2.58-.123-4.627.409-1.556,3.036-8.458,3.152-8.925.475-1.384,1.638-4.136,2.211-4.1,2.555-.032,5.045.492,7.6.655-2.653.066-5.371.066-7.959.1a1.353,1.353,0,0,0-.491.884l.262.262c-1.441,3.079-2.293,6.42-3.505,9.6-.205.459-.622,1.146.131,1.474.688.09,7.28-.033,7.894,0v.884c-1.6,1.343-3.112,2.981-4.651,4.258l-.191.005a.605.605,0,0,1-.055.077.421.421,0,0,1-.043.058.1.1,0,0,1-.018.012l.143.012c-.491.361-.917,1.245-1.539,1.147a1.535,1.535,0,0,0-.3,1.408c.2.3.622.164.884.1.328-.131.066-.589.229-.819l5.962-5.371,2.129-.164a2.8,2.8,0,0,0-.524,2.522,2.723,2.723,0,0,0,1.8,1.736,2.406,2.406,0,0,0,2.35-.9c1.179.033,2.641,0,3.742.05l.59,1.146a75.893,75.893,0,0,1-.238,10.412,1.53,1.53,0,0,1-.551.93l-.005.012c-.2.273-.513.565-.79.871a.957.957,0,0,1-.345.469,1.279,1.279,0,0,0-.132.287l.128-.011c-.229.819.348,1.8-.208,2.518-3.767.533-8.271.942-12.205,1.446C667.456,2819.386,667.32,2817.749,667.205,2817.393Zm11.038-17.228a2.772,2.772,0,0,0-1.6-2.26c.295-.066.885-.033,1.179-.459.086-.176.131-.34.23-.5l.819-.062c.348-.041.671-.737.573-1.392a4.231,4.231,0,0,0-.213-1.285c-.229-.786-.705-2.924-.77-3.055a39.554,39.554,0,0,0-.213-4.937c-.491-.622-1.31-.459-2.03-.59-.1-.131,0-.36-.1-.524-.131-.164-.426-.131-.426-.393,1.048.36,2.784-.2,3.014,1.343,1.212,4.487,2.1,8.975,2.882,13.56.045.672.332,1.286-.1,1.941a3.112,3.112,0,0,1-.59.024c-.045-.27.1-1.146-.491-1.375Zm2.064.819v.524l-2.359.065a1.778,1.778,0,0,1,.459-.884C679.029,2800.787,679.914,2800.427,680.307,2800.984ZM665.6,2804.62c-.1.131-.295.065-.458.065a3.911,3.911,0,0,0,.065-.884l.164.065,6.125-5.666a35.319,35.319,0,0,1,4.192-.164v.1c-1.277.295-2.751.164-4.061.36-1.965,1.9-4.16,3.8-6.125,5.732Zm1.016-16.214c-.394-.262.163-.753.229-1.113.36,3.078.982,6.125,1.048,9.269h-.459C667.074,2793.811,666.976,2791.158,666.616,2788.406Zm.392,8.156H663.9l-.295-.262c.95-2.457,1.638-5.011,2.588-7.468A74.419,74.419,0,0,1,667.008,2796.562Zm.263-10.35.294-.459c1.18-.131,2.49,0,3.7-.131.065,3.636.327,7.271.229,10.875l-3.112.065C667.926,2793.155,667.631,2789.651,667.271,2786.212Zm4.487-.459a.32.32,0,0,1,.295-.131c.131,4.095.229,8.025.1,12.152h-.295C671.725,2793.745,671.889,2789.782,671.758,2785.753Zm1.048,4.356c.1,2.457.066,4.914.229,7.337a.462.462,0,0,0,.2.328c-.2.033-.5-.049-.549-.013-.327-4.094-.073-8.176-.237-12.139.819.033,1.67-.032,2.489.066-.164.524-.884.491-1.31.72C672.478,2787.227,672.9,2788.8,672.806,2790.109Zm1.769,8.517c1.048.36,1.8-1.147,2.653,0l.524.753a2.415,2.415,0,0,1-.229,2.358,2.3,2.3,0,0,1-2.359.786,2.4,2.4,0,0,1-1.474-1.736A1.949,1.949,0,0,1,674.575,2798.626Zm3.594-2.3c.091-.75.148-1.957.246-2.58.205.737.676,1.74.143,2.5C678.415,2796.329,678.169,2796.361,678.169,2796.329Zm-.483-10.052a11.578,11.578,0,0,1,.361,3.177c.2,2.1.082,7.98-1.049,8.091a24.324,24.324,0,0,1-3.144.2.424.424,0,0,1-.393-.36,54.9,54.9,0,0,1-.287-7.092c0-1.514-.434-3.389,1.237-3.815A5.875,5.875,0,0,1,677.686,2786.277Zm-2.391-.459v-.294c.131.033.328-.066.393.1C675.525,2785.655,675.492,2785.917,675.295,2785.818Zm-8.024-.523c-.131-.066,0-.164.032-.262h8.222c-.033.065.032.1.065.13C672.806,2785.393,670.088,2785.229,667.271,2785.295Zm19.374,1.78.147.316a30.639,30.639,0,0,0-4.258,2.915c-.066.164.131.3.229.328,1.343.085,3.513.126,4.979.2.643,1.2.458,3.226.524,4.651v1.081c-1.867.012-3.628.074-5.429-.049a41.956,41.956,0,0,0-1.29-6.019C682.161,2790.371,685.138,2787.8,686.645,2787.075Zm-5.159,2.936c-.328-1.179-1.6-5.249-1.72-5.576,2.015-.009,5.425-.021,5.945-.025a16.841,16.841,0,0,1,.852,2.089C684.8,2787.563,683.189,2788.865,681.486,2790.011Zm5.384-2.26.757,2.682c-1.506-.066-3.869-.164-4.372-.193A43.515,43.515,0,0,1,686.87,2787.751Zm1.453,9.089-.041.328c-1.822.1-3.336.041-5.3.041l-.041-.328Zm.107.7c.1,4.847.327,9.531.491,14.182-.25,0-4.979-.209-5.274-.229.193-2.62.254-7.779-.319-9.437a28.891,28.891,0,0,0-.434-4.516Zm-5.69,17.4a11.7,11.7,0,0,0,.825-2.46.588.588,0,0,1,.081-.177l-.031-.281,5.306.393c0,.25.172,2.547.139,3.955-.254-.02-.566-.046-.909-.076a2.577,2.577,0,0,1-.942.157,9.26,9.26,0,0,1-1.531-.133,21.572,21.572,0,0,1-2.457-.521c-.206-.027-.375-.052-.491-.074l.031-.214A.581.581,0,0,1,682.74,2814.94Zm.318-2.1c-.262,1.048-.622,2.1-.917,3.111a2.858,2.858,0,0,1-.295,2.326,13.593,13.593,0,0,1-1.548.241c.451-.941-.327-1.883.369-2.5h.008a.7.7,0,0,1,.032-.13c0-.013,0-.019.006-.036a.514.514,0,0,1,.083-.139c-.065,0-.131.01-.2.011a1.491,1.491,0,0,1,1.028-.95c.9-1.056.7-3.173.778-4.954l-.037-6.9a4.363,4.363,0,0,1-.425-.884c.392-.033.851-.156,1.1.417A48.609,48.609,0,0,1,683.058,2812.841Zm-2.686,6.125c.066.229-.131.327-.2.491-.131.524.02.966-.082,1.519-4.029.492-8.14.872-12.2,1.429-.055-.344-.137-1.654-.229-1.965C672.02,2819.883,676.18,2819.457,680.372,2818.966Zm7.075-36.816c1.147,3.308,2,6.715,3.046,10.023.36,7.926.557,16.606.557,24.369a9.863,9.863,0,0,1-1.671-.1c-.229-8.09-.458-16.574-.687-24.435-.721-2.686-1.413-5.437-2.4-8.025-2.482-.045-4.263.041-6.674-.02-.184-.7-1.413-.778-2.395-.86-2.457-.295-6.653-.573-9.04-.79C674.607,2782.347,681.06,2782.314,687.447,2782.15Zm-19.849-.164-.164-.131c5.634-.032,11.5-.36,17.295-.425l.065.13v.164C679.357,2781.823,673.265,2782.085,667.6,2781.986Zm19.915-3.832a3.639,3.639,0,0,1,1.015,2.691c-.328,0-1.179.12-1.911.11,0,0,.055-2.894-1.79-3.161C684.827,2777.794,686.825,2777.532,687.513,2778.154Zm-11.882-.106c1.228-.082,8.475-.205,8.475-.205a1.965,1.965,0,0,1,1.671,1.228,5.728,5.728,0,0,1,.36,1.834c-3.537.1-7.271.263-10.842.295A4.163,4.163,0,0,1,675.631,2778.048Zm-5.02.106c1.573-.065,3.178-.164,4.488-.131a3.8,3.8,0,0,0-.295,3.21l-4.651.1C669.924,2780.283,669.793,2778.94,670.611,2778.154Zm-10.153.393c3.21-.229,6.158-.262,9.466-.393-.885.836-.262,3.243-.262,3.243-.746.008-2.179.09-2.506.049a5.039,5.039,0,0,0-2.989-.7c-.573.123-.663.549-.991.876-1.244-.229-2.817.524-3.832-.426A2.7,2.7,0,0,1,660.458,2778.547Zm6.747,3.832-.2.132a25.506,25.506,0,0,1-3.57-.295,1.549,1.549,0,0,1,.918-.95C665.535,2781.1,666.288,2781.921,667.205,2782.379Zm-4.127-.393c-.2.328-.721.131-1.081.23-.229-.066-.688.131-.884-.2A13.208,13.208,0,0,1,663.078,2781.986Zm-5.9-.294c.393-.557,1.016-.262,1.573-.262a3.219,3.219,0,0,1,1.375.786c-1.015.1-1.932.032-2.948.065C656.92,2782.117,657.117,2781.855,657.182,2781.692Zm-2.26.687-3.537.132c-.1-.164-.033-.328-.066-.525C652.253,2781,653.841,2781.954,654.922,2782.379Zm-8.909-.36a4.957,4.957,0,0,1,3.145.492v.1c-1.212-.066-2.49.393-3.6.327C645.391,2782.478,645.784,2782.183,646.013,2782.019Zm-3.406.917a1.687,1.687,0,0,1,1.474.23c-.59.2-1.278.065-1.834.295C642.181,2783.264,642.377,2783,642.607,2782.936Zm-3.505,5.47c1.015-.95,2.137-2.374,3.8-2.293a33.682,33.682,0,0,1,7.238.95c.393.095.168,1.057.066,1.7-.348,1.851-.426,3.833-.655,5.765-3.767.033-7.829-.229-11.4-.229C638.21,2793.585,638.885,2789.634,639.1,2788.406Zm-.974,1.311.368-.553c-.131.229.41.585.016.847,0-.1.066-.2-.065-.262a1.121,1.121,0,0,0-.164.721c-.176,1.314-.278,2.542-.421,3.791l-.308-.021C637.739,2792.623,637.931,2791.223,638.128,2789.717Zm-.9,4.5c-.062,0-.614.02-.7,0,0-1.081.18-2.145.278-3.161l.95-1.048C637.628,2791.092,637.268,2793.974,637.227,2794.22Zm-1.208-7.411c.328.033.954-.237,1.38-.237a11.069,11.069,0,0,0-.827.913C636.506,2787.289,636.183,2786.842,636.019,2786.809Zm-.225-.45c.413-.046,1.406-.2,1.842-.225,0,0-.148.2-.041.184-.286.082-1.924.184-1.985.553h-.328A.594.594,0,0,1,635.794,2786.359Zm-1.048.868c.557-.36.946-.049,1.474,0a1.567,1.567,0,0,1,.106.586,22.063,22.063,0,0,0-1.711,2A11.5,11.5,0,0,1,634.746,2787.227Zm.655,5.536.946-1.061c.02.84-.123,1.515-.193,2.5-.565.016-1.179.065-1.768.1C634.418,2793.713,635.073,2793.221,635.4,2792.763Zm-9.63,2.718c.688-.115,4.891-.5,7.73-.715.437-.027,1.834.06,2,.027,5.142.033,10.547.1,15.722.393-.033.393.426.393.622.59.426.032.655-.229.95-.459,2.162.033,6.338.459,7.272.393.36-1.08,3.832-9.367,4.716-11.365.082-.606-1.31-.483-2.194-.524-7.239.065-15.165-.066-22.535.982a2.742,2.742,0,0,1,1.179-.819c1.8-.523,3.668-.393,5.5-.818a138.592,138.592,0,0,1,32.1.818c.381.062.749,1.74,1.048,2.784a77.9,77.9,0,0,1,3.038,14.535l-.123.291a4.52,4.52,0,0,1-.737.02c.471-1.658-2.44-13.306-3.128-15.926-.164-.328-.3-.754-.688-.885a92.427,92.427,0,0,0-10.678-1.114c-.827-.064-1.778,2.225-2.423,3.964-.463,1.246-2.326,6.281-2.817,7.754-.9,1.962-.41,3.235-.393,4.856.024.631.3,1.764-.644,1.829l-.547.027c-9.2.524-18.036.994-26.814,2.042-.066.164-.262.065-.229.229,7.107-.786,14.542-1.376,21.879-1.7.017.034.026.077.042.112.1,0,.2,0,.3.009a.721.721,0,0,1,.073-.021,2.788,2.788,0,0,1,.332,0,.393.393,0,0,1,0-.1c1.375-.033,2.841-.176,4.09-.2l.016.142h.469c0-.05,0-.092,0-.114.3-.055.688-.044.819.218a1.808,1.808,0,0,1,.6,1.146l.032.508v3.21c-1.441-1.9-3.826-2.189-6.119-2.407-7.834-.6-15.395.616-22.846,1.583a41.159,41.159,0,0,0-5.721,1.152,8.5,8.5,0,0,0-2.653,1.441c.131-1.269.065-3.177.1-4.029.033-1.662.319-4-1.408-4.553a170.131,170.131,0,0,0-19.817-.884C606.179,2798.642,621.742,2796.038,625.771,2795.481Zm33.933-.164c-2.1-.262-4.127-.294-6.19-.426a28.637,28.637,0,0,1,.688-7.206c.753-.622,1.572-.507,2.784-.589a22.328,22.328,0,0,1,3.767.131A33.719,33.719,0,0,0,659.7,2795.317Zm-58.171,12.905c.066-2.685.131-5.306,1.54-7.533.294-.459.917-.1,1.343-.295,6.255.131,12.446.524,18.637.819a1.187,1.187,0,0,1,1.244.721,37.017,37.017,0,0,1,.2,7.828c-.219.863-1.005,6.665-2.511,9.023-1.283,1.2-5.268.11-7.709-.049-3.5-.589-9.678-1.37-10.606-2.134-1.376-1.507-1.644-3.4-2.069-5.3A9.594,9.594,0,0,1,601.533,2808.222Zm.79,7.329c-.655-.327-2.211.062-2.034-1.236C600.829,2815.162,602.1,2814.2,602.323,2815.551Zm-1.609-1.465v-3.669c.23-.1.262.2.393.295a12.483,12.483,0,0,0,.819,3.668C601.5,2814.184,601.042,2814.544,600.714,2814.086Zm-1.965-2.261c-.065-1.146-.393-2.686.066-3.767.589-.032,1.179.328,1.7.132a6.811,6.811,0,0,0-1.179-.262h-.393c.262-.426.851-.623,1.277-.917l.95-.557c-.044.594.2,1.468-.453,1.8a2.071,2.071,0,0,1,.289,1.446c-.491,0-1.146-.262-1.376.262a45.684,45.684,0,0,0,.492,5.241c.868.659,1.891.6,2.533.912.955,1.419,2.347,1.485,3.461,1.676,4.6.841,9.044,1.592,13.9,2.091a2.74,2.74,0,0,0,2.381-.978,9.609,9.609,0,0,0,1.441-3.766c.327-1.6.687-3.243,1.048-4.848.229-.131,13.309,1.1,14.182,1.244a51.753,51.753,0,0,0,.164,9.205,17.116,17.116,0,0,0,.95,3.832c-.524.426-.786-.213-1.769-.1a105.08,105.08,0,0,1-15.755-.36c-2-.2-4.094-.491-6.092-.884-.005-.024-.015-.047-.02-.071-.082-.018-.163-.038-.243-.058l-.275-.043c0,.015.012.026.014.041-1.7-.2-3.57-.623-5.24-.884l0-.06-.335-.042c-.015,0-.026-.009-.041-.012l.018.048c-.688-.131-1.212-.131-1.9-.229a27.454,27.454,0,0,1-4.647-1.071h-.009a1.08,1.08,0,0,0-.193-.051l.071.009h0c0-.006,0-.009,0-.014a.639.639,0,0,1-.245-.092l-.153-.046.008.021a6,6,0,0,1-2.183-1.446C599.038,2817.781,599.109,2814.323,598.749,2811.825Zm37.929,22.83a37.172,37.172,0,0,1-9.662.426c-8.385-1.409-16.77-3.243-25.09-5.011-.011-.007-.017-.016-.028-.023a1.155,1.155,0,0,1-.237-.109.512.512,0,0,1-.513-.265,13.212,13.212,0,0,0-1.171-1.894,4.336,4.336,0,0,1-.512-.992,3.779,3.779,0,0,1-.421-2.024c-.1-1.351-.672-3.439.655-4.094a9.91,9.91,0,0,1,1.605-.164,2.293,2.293,0,0,0,.917.426c6.42,1.736,13,2.522,19.652,3.636a125.1,125.1,0,0,0,17.524.36,2.623,2.623,0,0,1,.955,1.174c.328,1.037-.491,2.948-.955,4.656-.246.666-.333,1.376-.628,2.031A2.68,2.68,0,0,1,636.678,2834.655Zm1.769,7.73c.262.819.688,1.539,1.015,2.326A2.67,2.67,0,0,1,638.447,2842.385Zm1.081,1.376a2.743,2.743,0,0,1-.361-2.49,20.915,20.915,0,0,1,.525,2.2c.229.589.753,1.081.884,1.7C639.954,2844.973,639.888,2844.219,639.528,2843.761Zm1.768,1.342a11.738,11.738,0,0,1-1.7-4.422l.361-.654c.163,2.161,1.31,4,2.391,5.862C641.919,2845.988,641.526,2845.529,641.3,2845.1Zm1.9,1.082c-1.343-2.1-2.653-4.193-2.849-6.748.294-.2.163-.59.524-.688a16.307,16.307,0,0,1,.491,2,26.228,26.228,0,0,0,2.588,5.6C643.753,2846.447,643.426,2846.217,643.2,2846.185Zm2,.524c-1.834-2.523-3.439-5.176-3.832-8.32.2-.328.59-.36.885-.59l.229.656c.655,2.489,1.343,5.011,3.079,7.074.524.328.753.918,1.179,1.278A8.376,8.376,0,0,1,645.194,2846.709Zm9.925-.132a6.218,6.218,0,0,1-6.518-2.292,9,9,0,0,1-1.867-4.946c1.015,2.653,3.373,6.059,6.649,5.994,3.013.164,5.437-2.424,6.616-4.88a11.137,11.137,0,0,1,.459-1.114C659.9,2842.319,658.329,2845.628,655.119,2846.577Zm3.472-5.535c-1.31,1.867-3.243,3.341-5.6,2.948-2.85-.589-5.143-3.407-5.8-6.093-1.146-4.487-.393-9.924,3.472-13.036a5.343,5.343,0,0,1,4.389-.982,6.608,6.608,0,0,1,3.538,2.653C661.408,2830.463,661.146,2837.046,658.591,2841.042Zm-4.553-22.011c-3.7-.458-6.944,1.474-9.139,4.553a7.364,7.364,0,0,1,1.278-2.129c2.129-2.62,4.979-4.193,8.385-3.734,3.341.622,6.322,3.7,7.665,6.747a21.939,21.939,0,0,1,1.8,5.995C662.98,2825.68,659.541,2819.719,654.038,2819.031Zm12.326,15.04a3.422,3.422,0,0,1-2.183-.71c.032-.425.142-2.342.142-2.342.458.295,1.359.1,1.359,1.168.295.361.923.274,1.283.274C666.883,2833.2,667.085,2833.678,666.364,2834.071Zm3.265.486-.066-.066c.164-.1.393-.033.59-.065C670.12,2834.72,669.76,2834.622,669.629,2834.557Zm.366-.677c-.328.082-2.277.388-3.358.518a2.731,2.731,0,0,0,.666-2.331c.623-.393.568-1.244.617-1.927.088-1.774.164-2.866.1-4.558l-.066-1.114c.656.2,1.474-.065,1.966.525.917,1.539.819,5.153.753,6.375C670.644,2832.089,670.813,2833.279,669.995,2833.88Zm2.451-.568c-.164.327-.131.786-.459,1.016a11.665,11.665,0,0,1-1.539.294c1.048-.578,1.321-8.167-.426-10.154-.4-.5-1.476-.357-1.965-.5.025-.161-.137-.573-.1-.683,1.769.492,4.16-.032,4.717,2.227C672.872,2827.94,673.134,2830.954,672.446,2833.312Zm-.159-9.4c.415-.1,3.685-.546,4.188-.562a8.159,8.159,0,0,1-.394,4.138c-.917.131-1.7.284-2.62.382C673.265,2826.6,673.5,2824.8,672.287,2823.917Zm7.659,9.166c-.2-.131-.622.033-.524-.361a3.874,3.874,0,0,1,.885-.13C680.241,2832.788,680.143,2833.017,679.946,2833.083Zm-7.107.393A28.737,28.737,0,0,0,673.4,2830c.339-.054,6.257-.852,7.141-1.114a.1.1,0,0,0,0-.063l0,0h0c-.018-.051-.083-.082-.131-.13l-7.026,1.01c0-.355.055-.934.055-1.425.163,0,2.254-.306,3.2-.5,1.376.163,2.719.524,4.062.818l-.164.229,0,0c.484.194.129,2.6-.166,3.306C677.916,2832.788,673.205,2833.361,672.839,2833.476Zm3.963-10.121c1.081.131,2.125.221,3.148.446.84.189.852,3.014.819,4.422-1.289-.2-2.616-.459-3.848-.737A28.193,28.193,0,0,0,676.8,2823.355Zm5.208,9.6c-.36.3-.983.2-1.474.3.753-1.442.622-3.366.721-4.946,0-1.769.352-4.6-1.311-4.946l-3.537-.361c-1.441.263-3.166.4-4.64.6a32.665,32.665,0,0,0-3.876-.5v-.164c2.62-.262,5.449-.631,8-.991,1.933.1,3.427.5,5.294.762,1.114.589,1.245,2,1.474,3.177C682.714,2827.847,682.55,2831.942,682.01,2832.952Zm1.637-.36c-.392-.033-.687.229-1.113.13l.131-.163a30.131,30.131,0,0,0,.36-7.108c-.093-1.015-.475-2.626-1.179-2.882.688-.1,1.769-.59,2.391.065.688,2.588.229,5.437.2,8.09C684.2,2831.347,684.5,2832.362,683.647,2832.592Zm.656.065c.758-.852.594-4.946.655-7.5-.131-1.113.218-2.44-.8-3.095a5.448,5.448,0,0,0-.841-.246c.754-.163,2-.295,2.588.328a37.938,37.938,0,0,1-.492,10.219C685.121,2832.657,684.663,2832.559,684.3,2832.657Zm9.138-5.175s-.033,3-.917,3.472-6.747,1.408-6.747,1.408a32.861,32.861,0,0,0,.431-10.329c.464-.026,4.574-.5,5.077-.6a1.807,1.807,0,0,1,1.861.841C693.7,2823.813,693.343,2825.877,693.441,2827.482Zm.262.917v-1.343l31.444-4.258h.3l.065,1.245Zm31.9-7.6c-2.817.459-5.732.524-8.615,1.048-2.391.164-4.847.655-7.238.721-2.621.295-5.274.851-7.861.884-2.719.3-5.536.59-8.091,1.114a7.067,7.067,0,0,1,.131-1.835c10.711-1.277,21.356-2.391,32.034-3.569Zm.425-2c-10.94,1.277-21.224,2.391-32.295,3.6-.393-.458-.819-1.277-1.507-1.441-.262-.459-.131-1.081-.557-1.474a3.924,3.924,0,0,1,1.081-.033c.224,1.952,1.168,2.575,2,2.495a2.192,2.192,0,0,0,1.72-2.948l1.13-.038a2.36,2.36,0,0,0,1.179,2.26,1.684,1.684,0,0,0,1.572-.2,2.965,2.965,0,0,0,.884-2.456c3.473-.328,6.519-.557,10.056-.95,5.405-.59,10.842-1.179,16.279-1.769A9.075,9.075,0,0,0,726.031,2818.8Zm-26.137-1.081a1.194,1.194,0,0,1,.982.557c.2.852-.12,3.182-2,2.653-.851-.36-.95-1.212-.95-2.031a2.889,2.889,0,0,1,2.359-.589l.131-.1Zm32.2,2.064a15.038,15.038,0,0,0,.262,7.631C730.945,2825.386,731.076,2822.012,732.091,2819.785Zm.589-3.865c-1.8,1.244-2.423,3.21-2.882,5.109.3-2.587.983-5.339,3.472-6.714.164.131.491-.066.721-.131a4.4,4.4,0,0,1,1.179.229C734.384,2814.871,733.663,2815.756,732.68,2815.92Zm2.981,14.51c-.1-.262-.327-.656-.065-.852a6.389,6.389,0,0,0,.949,1.507C736.185,2830.986,735.759,2830.79,735.661,2830.43Zm.328-1.016c-.066-.229.1-.327.262-.458a6,6,0,0,0,1.474,2.227C736.84,2831.249,736.382,2830.1,735.989,2829.414Zm4.487.295c-1.409.164-1.932-1.375-2.457-2.293a2.889,2.889,0,0,0,2.162,1.474c1.31.033,2.293-1.146,3.014-2.129A3.794,3.794,0,0,1,740.476,2829.709Zm1.965-2.587c-.622.72-1.441,1.7-2.555,1.277-2.325-1.31-2.423-4.225-2.161-6.715.327-1.6,1-3.861,2.751-4.192a2.342,2.342,0,0,1,2.293,1.375A9.068,9.068,0,0,1,742.441,2827.122Zm-1.375-11.5a3.833,3.833,0,0,0-3.7,1.179l-.786.917a5.28,5.28,0,0,1,3.243-3.177,3.87,3.87,0,0,1,3.734,1.965,7.869,7.869,0,0,1,1.015,2.686A5.906,5.906,0,0,0,741.066,2815.625Zm4.487,3.177c1.375,0,2.719.2,4.061.295a3.007,3.007,0,0,1-.1.95A7.27,7.27,0,0,0,745.553,2818.8Zm13.331.589-12.25,1.7.032-.721c1.049.164,2.261.164,3.243.262a4.074,4.074,0,0,0,.295-1.081c3.373-.36,6.649-.884,9.99-1.277Zm5.6-7.336c.065,1.441-.164,2.686-.164,4.16l-16.868,2a1.24,1.24,0,0,1-.04-.536.539.539,0,0,1-.062-.426q.048-.195.1-.382c0-.033-.024-.056-.021-.092a3.547,3.547,0,0,1,2.546-3.135l-.465-.048c3.636-.393,7.239-.851,10.907-1.179.066,1.015-.164,1.867-.164,2.849a5.614,5.614,0,0,0,1.638-.065c.753-1.048,1.376-2.1,2.064-3.079Zm-1.278-1.507a3.683,3.683,0,0,1,1.048-.131c-.818,1.474-1.572,2.948-2.456,4.356l-1.016.066Zm-1.375-.492a3.715,3.715,0,0,1,1.375-.163l-.491.884A3.683,3.683,0,0,1,761.832,2810.056Zm-35.44,3.309c-1.9.164-3.931.327-5.863.589-4.913.492-9.6.917-14.576,1.474-3.9.328-7.7.688-11.628,1.114.017-.418.017-4.471,0-4.717,24.173-1.67,48.444-3.7,72.354-5.306a2.213,2.213,0,0,0,.229,2.064,1.722,1.722,0,0,0,.492.426C753.84,2810.581,739.788,2811.662,726.392,2813.365Zm41.4-4.487c-.491-.459-1.081-.983-.885-1.638.1-.229.033-.524.295-.655,1.409.426,2.85.819,4.258,1.244C770.638,2808.918,768.9,2808.775,767.793,2808.878Z" transform="translate(-598 -2777.011)" fill="#777"/>
          <path id="Path_12021" data-name="Path 12021" d="M765.926,2806.046a.7.7,0,0,1,.393.047.23.23,0,0,1-.295.132c.032-.127-.021-.169-.1-.179-.088.006-.177.015-.262.015A1.939,1.939,0,0,1,765.926,2806.046Z" transform="translate(-598 -2777.011)" fill="#777"/>
          <rect id="Rectangle_189" data-name="Rectangle 189" width="0.066" height="0.098" transform="translate(167.075 28.755)" fill="#777"/>
          <rect id="Rectangle_190" data-name="Rectangle 190" width="0.066" height="0.131" transform="translate(165.306 29.213)" fill="#777"/>
          <path id="Path_12022" data-name="Path 12022" d="M762.487,2806.454h-.23A.158.158,0,0,1,762.487,2806.454Z" transform="translate(-598 -2777.011)" fill="#777"/>
          <rect id="Rectangle_191" data-name="Rectangle 191" width="0.066" height="0.131" transform="translate(164.323 20.239)" fill="#777"/>
          <path id="Path_12023" data-name="Path 12023" d="M736.775,2805.635a1.458,1.458,0,0,1-.131-.655C736.742,2805.176,736.676,2805.438,736.775,2805.635Z" transform="translate(-598 -2777.011)" fill="#777"/>
          <rect id="Rectangle_192" data-name="Rectangle 192" width="0.066" height="0.098" transform="translate(134.976 26.331)" fill="#777"/>
          <rect id="Rectangle_193" data-name="Rectangle 193" width="0.066" height="0.131" transform="translate(134.091 26.2)" fill="#777"/>
          <path id="Path_12024" data-name="Path 12024" d="M743.915,2797.97l.1.1v.131Z" transform="translate(-598 -2777.011)" fill="#777"/>
          <rect id="Rectangle_194" data-name="Rectangle 194" width="0.033" height="0.131" transform="translate(43.133 61.476)" fill="#777"/>
          <path id="Path_12025" data-name="Path 12025" d="M651.909,2795.317l.131-.131.065.066C652.073,2795.317,651.974,2795.317,651.909,2795.317Z" transform="translate(-598 -2777.011)" fill="#777"/>
          <rect id="Rectangle_195" data-name="Rectangle 195" width="0.065" height="0.131" transform="translate(134.386 50.503)" fill="#777"/>
          <path id="Path_12026" data-name="Path 12026" d="M767.977,2808.351c.24,0,.434-.259.434-.579s-.194-.579-.434-.579-.434.259-.434.579S767.737,2808.351,767.977,2808.351Zm.021-1c.16,0,.289.188.289.42s-.129.42-.289.42-.29-.188-.29-.42S767.838,2807.35,768,2807.35Z" transform="translate(-598 -2777.011)" fill="#777"/>
        </g>
        <path id="Path_12027" data-name="Path 12027" d="M689.656,2783.69a1.136,1.136,0,0,0-.637,1.436c.157.675.7,1.127,1.206,1.009a1.136,1.136,0,0,0,.637-1.437C690.705,2784.023,690.165,2783.572,689.656,2783.69Zm.507,2.13c-.343.08-.714-.259-.83-.758s.068-.967.41-1.046.714.259.83.758S690.505,2785.74,690.163,2785.82Z" transform="translate(-598 -2777.011)" fill="#777"/>
        <path id="Path_12028" data-name="Path 12028" d="M692.836,2812.9c-.522,0-.948.557-.952,1.25a1.132,1.132,0,0,0,.939,1.259c.522,0,.949-.556.952-1.249A1.133,1.133,0,0,0,692.836,2812.9Zm0,2.189c-.351,0-.634-.418-.631-.929s.29-.925.642-.924.634.419.631.931S693.187,2815.088,692.835,2815.086Z" transform="translate(-598 -2777.011)" fill="#777"/>
      </g>
      <path id="Path_12029" data-name="Path 12029" d="M628.948,2813l.131,5.569s-.951,1.829,2.823,1.408,4.781-.331,4.892-1.769l.081-4.028-1.507-.95Z" transform="translate(-0.762 381.422)" fill="#cd1a2f"/>
      <path id="Path_12030" data-name="Path 12030" d="M601.3,2810.188h-1.4l.23,5.011a16.383,16.383,0,0,0,2.522.626C603.049,2815.785,601.034,2813.248,601.3,2810.188Z" transform="translate(-0.713 381.422)" fill="#cd1a2f"/>
    </g>
  </g>
</svg>
