<svg xmlns="http://www.w3.org/2000/svg" xmlns:xlink="http://www.w3.org/1999/xlink" width="17.89" height="18" viewBox="0 0 17.89 18">
  <defs>
    <clipPath id="clip-path">
      <rect id="Rectangle_1358" data-name="Rectangle 1358" width="17.89" height="18" fill="#e91431"/>
    </clipPath>
  </defs>
  <g id="Group_10562" data-name="Group 10562" clip-path="url(#clip-path)">
    <path id="Path_18397" data-name="Path 18397" d="M132.39,10.222c0-2,0-3.786,0-5.576,0-1.077.006-2.155,0-3.232,0-.72.128-1.4,1-1.414.936-.013,1.058.692,1.055,1.458-.011,2.848,0,5.7,0,8.809.789-.783,1.431-1.418,2.07-2.057.245-.245.486-.5.724-.748.486-.513,1.06-.78,1.619-.209s.264,1.14-.223,1.635c-1.071,1.087-2.133,2.185-3.208,3.268-2.064,2.08-1.857,2.21-3.98.013-1.061-1.1-2.135-2.182-3.208-3.268-.486-.492-.8-1.071-.243-1.636.6-.616,1.18-.266,1.694.262.837.858,1.7,1.692,2.709,2.7" transform="translate(-124.486 0)" fill="#e91431"/>
    <path id="Path_18398" data-name="Path 18398" d="M1.946,507.469a2.379,2.379,0,0,0,2.587,2.156q4.419.015,8.838,0a2.312,2.312,0,0,0,2.552-2.191c.109-.674.349-1.185,1.086-1.1.794.089.92.708.872,1.4a4.2,4.2,0,0,1-3.873,3.82c-.864.047-1.732.02-2.6.023-.832,0-1.664,0-2.5,0v-.007c-1.664,0-3.329.045-4.99-.011a4.083,4.083,0,0,1-3.916-4.068.679.679,0,0,1,.106-.3.985.985,0,0,1,1.514-.2,1.052,1.052,0,0,1,.319.481" transform="translate(0 -493.586)" fill="#e91431"/>
  </g>
</svg>
