<svg xmlns="http://www.w3.org/2000/svg" width="33.362" height="43.881" viewBox="0 0 33.362 43.881">
  <g id="Group_34421" data-name="Group 34421" transform="translate(0)">
    <path id="Path_40078" data-name="Path 40078" d="M47.319,284.546l5.652-7.928,2.512,3.611,4.4-5.887,6.594,10.2Z" transform="translate(-40.215 -257.071)" fill="#c9c9c9"/>
    <circle id="Ellipse_12672" data-name="Ellipse 12672" cx="2.355" cy="2.355" r="2.355" transform="translate(7.104 10.597)" fill="#c9c9c9"/>
    <g id="Group_34376" data-name="Group 34376" transform="translate(0 0)">
      <path id="Path_40079" data-name="Path 40079" d="M87.508,365.735h-.961v2.033h.961q1.138,0,1.138-1.005Q88.646,365.735,87.508,365.735Z" transform="translate(-71.839 -330.749)" fill="#c9c9c9"/>
      <path id="Path_40080" data-name="Path 40080" d="M33.907,185.251H11.888a1.217,1.217,0,0,0-1.217,1.217v41.447a1.217,1.217,0,0,0,1.217,1.217H42.816a1.217,1.217,0,0,0,1.217-1.217V195.063Zm-11.665,38.8a2.544,2.544,0,0,1-.668,1.889,2.514,2.514,0,0,1-1.85.663,2.807,2.807,0,0,1-2.033-.724,2.757,2.757,0,0,1-.751-2.082h1.867q0,1.094.829,1.094.718,0,.718-.84v-5.336h1.889Zm6.833-1.486a2.259,2.259,0,0,1-.967.895,3.406,3.406,0,0,1-1.558.326H25.379v2.74H23.49v-7.81h3.06a2.972,2.972,0,0,1,2.121.69,2.442,2.442,0,0,1,.729,1.862A2.566,2.566,0,0,1,29.075,222.563ZM37.686,224a3.813,3.813,0,0,1-.707,1.271,3.643,3.643,0,0,1-1.243.95,3.936,3.936,0,0,1-1.729.365,4.1,4.1,0,0,1-2.066-.5,3.442,3.442,0,0,1-1.364-1.409,4.681,4.681,0,0,1,0-4.132,3.458,3.458,0,0,1,1.359-1.409,4.056,4.056,0,0,1,2.049-.5,3.9,3.9,0,0,1,2.419.718,3.059,3.059,0,0,1,1.182,1.944h-2a1.544,1.544,0,0,0-.608-.668,1.857,1.857,0,0,0-.983-.249,1.837,1.837,0,0,0-1.436.6,2.346,2.346,0,0,0-.541,1.629,2.384,2.384,0,0,0,.569,1.712,2.13,2.13,0,0,0,1.618.6,1.913,1.913,0,0,0,1.9-1.425H33.72v-1.359h3.966Zm3.364-7.825h-27.4v-28.1H32.023v7.477a1.746,1.746,0,0,0,1.747,1.747H41.05Z" transform="translate(-10.671 -185.251)" fill="#c9c9c9"/>
    </g>
  </g>
</svg>
