<svg xmlns="http://www.w3.org/2000/svg" width="15.827" height="15.827" viewBox="0 0 15.827 15.827">
  <g id="Group_31868" data-name="Group 31868" transform="translate(-956.687 -655.863)">
    <path id="Path_21819" data-name="Path 21819" d="M970.21,658.167a7.866,7.866,0,0,0-11.124,0,7.91,7.91,0,0,0-1.4,9.226l-1,4.3,4.3-1a7.867,7.867,0,0,0,9.226-12.524Zm-.4,10.724a7.306,7.306,0,0,1-8.651,1.252l-.095-.051-3.62.842.842-3.62-.051-.095a7.341,7.341,0,0,1,1.252-8.651,7.3,7.3,0,1,1,10.324,10.324Z" fill="#333"/>
    <path id="Path_21820" data-name="Path 21820" d="M1011.439,708.69a2.107,2.107,0,0,0-1.612.866.9.9,0,0,0-.242.759.5.5,0,0,0,.411.4.383.383,0,0,1,.288.479l-1.027,3.634a1.113,1.113,0,0,0,.157,1,1.28,1.28,0,0,0,1.043.469,2.153,2.153,0,0,0,1.639-.86.9.9,0,0,0,.242-.758.5.5,0,0,0-.411-.4.383.383,0,0,1-.288-.479l1.027-3.634a1.1,1.1,0,0,0-.169-.985A1.3,1.3,0,0,0,1011.439,708.69Zm-.982,7.038a.735.735,0,0,1-.592-.245.554.554,0,0,1-.064-.5l1.027-3.634a.949.949,0,0,0-.691-1.181.511.511,0,0,1,.13-.255,1.522,1.522,0,0,1,1.172-.657.755.755,0,0,1,.608.262.54.54,0,0,1,.075.489l-1.026,3.634a.949.949,0,0,0,.691,1.181.512.512,0,0,1-.13.255A1.594,1.594,0,0,1,1010.457,715.728Z" transform="translate(-46.803 -47.078)" fill="#333"/>
    <path id="Path_21821" data-name="Path 21821" d="M1025.27,680.32a1.451,1.451,0,1,0,1.451,1.451A1.453,1.453,0,0,0,1025.27,680.32Zm-.885,1.451a.885.885,0,1,1,.885.885A.886.886,0,0,1,1024.385,681.771Z" transform="translate(-59.826 -21.795)" fill="#333"/>
  </g>
</svg>
