<svg xmlns="http://www.w3.org/2000/svg" width="26.599" height="25" viewBox="0 0 26.599 25">
  <g id="Group_39257" data-name="Group 39257" transform="translate(-855.2 -718.198)">
    <path id="Path_1085" data-name="Path 1085" d="M868.769,739.982c.415,0,.83.016,1.244,0a1.571,1.571,0,0,1,1.538.884.263.263,0,0,0,.274.159c.579-.006,1.16.027,1.737-.009a3.245,3.245,0,0,0,3-1.771,7.389,7.389,0,0,0,.387-1.355c.009-.035-.05-.11-.095-.133a1.65,1.65,0,0,1-.939-1.593c.01-2.626,0-5.252.005-7.879a1.481,1.481,0,0,1,.765-1.351c.177-.1.211-.171.183-.387a7.937,7.937,0,0,0-.946-2.821,9,9,0,0,0-1.221-1.687,8.068,8.068,0,0,0-2.334-1.783,8.5,8.5,0,0,0-7.409-.144,8.53,8.53,0,0,0-4.7,5.762,7.158,7.158,0,0,0-.148.8.274.274,0,0,0,.127.209,1.58,1.58,0,0,1,.85,1.487c0,2.652,0,5.3,0,7.956a1.559,1.559,0,0,1-1.379,1.541,1.6,1.6,0,0,1-1.738-.977.292.292,0,0,0-.17-.118,3.561,3.561,0,0,1-2.125-2.093,6.088,6.088,0,0,1-.436-3.081,4.856,4.856,0,0,1,1.06-2.752,2.6,2.6,0,0,1,1.336-.941.711.711,0,0,0,.452-.4,1.088,1.088,0,0,1,.45-.505c.405-.147.484-.435.53-.794a8.8,8.8,0,0,1,.7-2.345,9.073,9.073,0,0,1,1.961-2.858,9.648,9.648,0,0,1,7.391-2.774,9.6,9.6,0,0,1,6.625,3.267,8.8,8.8,0,0,1,1.829,3.194c.191.61.282,1.249.434,1.871a.47.47,0,0,0,.209.284,1.562,1.562,0,0,1,.793.795.394.394,0,0,0,.207.2,3.545,3.545,0,0,1,2.265,2.43,6.082,6.082,0,0,1,.293,2.7,4.552,4.552,0,0,1-1.474,3.174,3.909,3.909,0,0,1-.907.543.754.754,0,0,0-.443.354,1.558,1.558,0,0,1-.761.725.3.3,0,0,0-.132.206,4.3,4.3,0,0,1-1.8,3.326,4.05,4.05,0,0,1-2.021.754c-.795.062-1.594.083-2.39.1a.334.334,0,0,0-.331.209,1.506,1.506,0,0,1-1.345.828c-.9.02-1.8,0-2.7.008a1.655,1.655,0,0,1-1.621-1.365,1.6,1.6,0,0,1,1.583-1.856C867.869,740,868.319,739.982,868.769,739.982Zm-9.817-7.724v1.708c0,.734,0,1.467,0,2.2a.622.622,0,0,0,.375.584.436.436,0,0,0,.534-.2.978.978,0,0,0,.123-.477q.011-3.78.005-7.559a1.2,1.2,0,0,0,0-.155c-.055-.424-.387-.659-.722-.5a.572.572,0,0,0-.314.568Q858.955,730.341,858.952,732.257Zm19.089.055v-1.5c0-.8-.006-1.605,0-2.407a.53.53,0,0,0-.746-.537.658.658,0,0,0-.294.64q0,3.779,0,7.559a1.1,1.1,0,0,0,0,.156.591.591,0,0,0,.4.536.432.432,0,0,0,.508-.212.858.858,0,0,0,.12-.427C878.045,734.85,878.042,733.581,878.042,732.313Zm-20.184-3.3a1.216,1.216,0,0,0-.167.077,2.54,2.54,0,0,0-.854.967,4.809,4.809,0,0,0-.489,2.813,4.3,4.3,0,0,0,.686,1.965,1.756,1.756,0,0,0,.823.725Zm21.281,6.567a2.365,2.365,0,0,0,.974-.977,4.835,4.835,0,0,0,.532-2.928,4.185,4.185,0,0,0-.747-2.018,5.3,5.3,0,0,0-.7-.676l-.055.053Zm-10.372,5.49c-.44,0-.881-.005-1.321,0a.529.529,0,0,0-.5.45.454.454,0,0,0,.312.5,1.09,1.09,0,0,0,.394.079q1.114.011,2.228,0a1.151,1.151,0,0,0,.441-.09.486.486,0,0,0,.248-.58.5.5,0,0,0-.5-.359C869.631,741.061,869.2,741.07,868.767,741.07Z" transform="translate(0 0)" fill="#fff"/>
  </g>
</svg>
