<svg xmlns="http://www.w3.org/2000/svg" width="62" height="62" viewBox="0 0 62 62">
  <g id="Group_31872" data-name="Group 31872" transform="translate(-591 -119)">
    <circle id="Ellipse_12575" data-name="Ellipse 12575" cx="31" cy="31" r="31" transform="translate(591 119)" fill="#f5f5f5"/>
    <g id="Group_31852" data-name="Group 31852" transform="translate(606.979 134.833)">
      <g id="Group_31850" data-name="Group 31850" transform="translate(0 0)">
        <path id="Path_480" data-name="Path 480" d="M1021.237,175.436H1020.2v.385c-.005,2.315.03,4.633-.024,6.948a6.88,6.88,0,0,1-13.4,1.846,7.149,7.149,0,0,1-.36-2.318c-.007-1.478,0-2.958,0-4.436,0-.549.118-.7.66-.788a8.562,8.562,0,0,0,5.174-3.114c.428-.5.794-1.057,1.175-1.6.263-.373.241-.678-.033-.874s-.579-.109-.843.3a13.7,13.7,0,0,1-1.978,2.419,6.639,6.639,0,0,1-8.687.547,10.454,10.454,0,0,1-2.269-2.4c-.16-.228-.3-.468-.472-.692a.524.524,0,1,0-.858.593c.441.624.866,1.267,1.365,1.842a8.424,8.424,0,0,0,3.161,2.394,14.975,14.975,0,0,0,1.922.579c.491.126.63.256.632.756q0,1.271,0,2.543a1.245,1.245,0,0,1-.04.336.5.5,0,0,1-.978-.052,2.332,2.332,0,0,1-.027-.37c0-.641-.007-1.282,0-1.923,0-.194-.046-.3-.253-.347a10.323,10.323,0,0,1-6.234-4.548c-.159-.229-.321-.457-.465-.7a1.514,1.514,0,0,1-.017-1.671.452.452,0,0,0,.018-.507,23.032,23.032,0,0,1-1.748-4.533,10.185,10.185,0,0,1-.377-3.19,3.905,3.905,0,0,1,1.983-3.153,13.455,13.455,0,0,1,1.575-.795.483.483,0,0,0,.321-.364,2.8,2.8,0,0,1,2.886-1.849,2.2,2.2,0,0,1,1.5,2.158,1.888,1.888,0,0,1-1.452,1.92,2.989,2.989,0,0,1-2.52-.787c-.078-.069-.224-.147-.3-.119a5.42,5.42,0,0,0-2.268,1.408,2.714,2.714,0,0,0-.677,1.754,9.24,9.24,0,0,0,.553,3.472c.436,1.224.972,2.412,1.466,3.615.056.138.117.237.309.231a1.566,1.566,0,0,1,1.447.792,10.445,10.445,0,0,0,2.475,2.793,5.587,5.587,0,0,0,6.078.391,8.483,8.483,0,0,0,2.6-2.448c.194-.268.373-.547.56-.82a1.568,1.568,0,0,1,1.364-.723.4.4,0,0,0,.3-.173,18.486,18.486,0,0,0,1.928-5.474,9.284,9.284,0,0,0,.1-1.852,2.945,2.945,0,0,0-1.694-2.4,9.56,9.56,0,0,0-1.207-.562.334.334,0,0,0-.282.076,3.119,3.119,0,0,1-1.919.852,1.829,1.829,0,0,1-2.052-1.558,2.113,2.113,0,0,1,1.992-2.6,2.955,2.955,0,0,1,2.346,1.874.517.517,0,0,0,.365.4,6.532,6.532,0,0,1,2.432,1.507,3.731,3.731,0,0,1,1.094,2.56,11.1,11.1,0,0,1-.467,3.364,23.049,23.049,0,0,1-1.654,4.2.477.477,0,0,0,.012.535,1.469,1.469,0,0,1-.007,1.643,12.568,12.568,0,0,1-3.841,4.072,8.219,8.219,0,0,1-2.756,1.161c-.293.06-.369.189-.366.479.02,1.4-.013,2.793.021,4.187a5.83,5.83,0,0,0,11.653-.032c.053-2.4.011-4.8.022-7.2,0-.224-.109-.3-.28-.381a4.494,4.494,0,0,1-2.6-3.2,4.552,4.552,0,0,1,2.506-5.073.523.523,0,0,1,.722.21.493.493,0,0,1-.224.688,4.348,4.348,0,0,0-1.359,1.107,3.525,3.525,0,1,0,3.012-1.388c-.061,0-.124-.009-.185-.017-.359-.053-.546-.258-.521-.57a.491.491,0,0,1,.614-.46,6.763,6.763,0,0,1,1.737.4,4.3,4.3,0,0,1,2.7,4.107,4.361,4.361,0,0,1-2.656,4.17.487.487,0,0,0-.322.514c.005,2.451.042,4.9-.024,7.352a8.563,8.563,0,0,1-2.351,5.631.531.531,0,0,1-.791.119.52.52,0,0,1,.007-.8,8.318,8.318,0,0,0,1.666-2.772,7.88,7.88,0,0,0,.448-2.645q0-3.351,0-6.7C1021.255,175.623,1021.244,175.532,1021.237,175.436Zm-11.98-16.639c.069.538.347.949.741.971a2.078,2.078,0,0,0,1.466-.478.463.463,0,0,0,.1-.684,2.165,2.165,0,0,0-1.053-.832.679.679,0,0,0-.9.256A5.323,5.323,0,0,0,1009.256,158.8Zm-6.774.017a3.962,3.962,0,0,0-.138-.535.821.821,0,0,0-.927-.549,2.093,2.093,0,0,0-1.18.854.455.455,0,0,0,.12.724,3.646,3.646,0,0,0,.95.424A.87.87,0,0,0,1002.482,158.814Z" transform="translate(-995.235 -156.656)" fill="#2d2d2d"/>
        <path id="Path_481" data-name="Path 481" d="M1013.179,191.2a8.992,8.992,0,0,1-8.739-7.158,13.191,13.191,0,0,1-.178-1.692c-.03-.384.157-.621.467-.647s.555.213.561.6a7.562,7.562,0,0,0,.56,2.813,7.753,7.753,0,0,0,6.017,4.906,7.661,7.661,0,0,0,5.823-1.233.613.613,0,0,1,.635-.126.524.524,0,0,1,.014.947,8.957,8.957,0,0,1-2.442,1.192A8.8,8.8,0,0,1,1013.179,191.2Z" transform="translate(-995.158 -156.444)" fill="#2d2d2d"/>
        <path id="Path_482" data-name="Path 482" d="M1018.481,170.765a2.055,2.055,0,1,1,2.032,2.072A2.065,2.065,0,0,1,1018.481,170.765Zm3.063.011a1,1,0,0,0-1-1.005,1.027,1.027,0,0,0-1.03,1.015,1.041,1.041,0,0,0,1.01,1.012A1.019,1.019,0,0,0,1021.544,170.776Z" transform="translate(-995.037 -156.554)" fill="#2d2d2d"/>
      </g>
      <g id="Group_31851" data-name="Group 31851" transform="translate(0.001)">
        <path id="Path_483" data-name="Path 483" d="M1010.256,160.815a3.12,3.12,0,0,0,1.919-.852.335.335,0,0,1,.283-.076,9.629,9.629,0,0,1,1.207.562,2.944,2.944,0,0,1,1.694,2.4,9.266,9.266,0,0,1-.1,1.852,18.487,18.487,0,0,1-1.928,5.474c0,.01-.021.017-.029.026l1.007.371v0a23.1,23.1,0,0,0,1.654-4.2,11.179,11.179,0,0,0,.468-3.364,3.742,3.742,0,0,0-1.1-2.56,6.533,6.533,0,0,0-2.432-1.507.517.517,0,0,1-.365-.4,2.954,2.954,0,0,0-2.346-1.874,2.112,2.112,0,0,0-1.992,2.6A1.828,1.828,0,0,0,1010.256,160.815Zm-.754-2.784a.679.679,0,0,1,.9-.256,2.162,2.162,0,0,1,1.053.832.463.463,0,0,1-.1.684,2.079,2.079,0,0,1-1.466.478c-.395-.022-.672-.434-.741-.971A5.126,5.126,0,0,1,1009.5,158.03Z" transform="translate(-995.125 -156.656)" fill="#2d2d2d"/>
        <path id="Path_484" data-name="Path 484" d="M997.374,170.59a.581.581,0,0,1,.048.175l1.02-.459a.386.386,0,0,1-.13-.178c-.493-1.2-1.03-2.391-1.465-3.615a9.246,9.246,0,0,1-.553-3.472,2.717,2.717,0,0,1,.678-1.754,5.431,5.431,0,0,1,2.268-1.408c.077-.028.222.05.3.119a2.989,2.989,0,0,0,2.52.787,1.889,1.889,0,0,0,1.451-1.92,2.205,2.205,0,0,0-1.5-2.158,2.8,2.8,0,0,0-2.887,1.849.48.48,0,0,1-.32.364,13.468,13.468,0,0,0-1.574.795,3.9,3.9,0,0,0-1.983,3.153,10.134,10.134,0,0,0,.376,3.19A23.046,23.046,0,0,0,997.374,170.59Zm2.864-12.005a2.09,2.09,0,0,1,1.179-.854.822.822,0,0,1,.927.549,3.89,3.89,0,0,1,.138.535.87.87,0,0,1-1.175.919,3.648,3.648,0,0,1-.95-.424A.454.454,0,0,1,1000.238,158.585Z" transform="translate(-995.235 -156.656)" fill="#2d2d2d"/>
      </g>
    </g>
  </g>
</svg>
