<svg id="Group_10298" data-name="Group 10298" xmlns="http://www.w3.org/2000/svg" xmlns:xlink="http://www.w3.org/1999/xlink" width="127.794" height="129.196" viewBox="0 0 127.794 129.196">
  <defs>
    <style>
      .cls-1 {
        fill: none;
      }

      .cls-2 {
        clip-path: url(#clip-path);
      }

      .cls-3 {
        fill: #606060;
      }

      .cls-4 {
        fill: #e91431;
      }

      .cls-5 {
        fill: #fff;
      }
    </style>
    <clipPath id="clip-path">
      <rect id="Rectangle_869" data-name="Rectangle 869" class="cls-1" width="127.794" height="129.196"/>
    </clipPath>
  </defs>
  <g id="Group_10297" data-name="Group 10297" class="cls-2">
    <path id="Path_18362" data-name="Path 18362" class="cls-3" d="M87.959,129.2H10.926A10.938,10.938,0,0,1,0,118.271V31.246A13.977,13.977,0,0,1,4.259,21.23L22.268,3.889A13.834,13.834,0,0,1,31.913,0H87.959A10.938,10.938,0,0,1,98.884,10.926V118.271A10.938,10.938,0,0,1,87.959,129.2M31.913,5.671a8.193,8.193,0,0,0-5.713,2.3L8.194,25.314a8.274,8.274,0,0,0-2.523,5.931v87.025a5.262,5.262,0,0,0,5.256,5.255H87.959a5.26,5.26,0,0,0,5.255-5.255V10.926a5.26,5.26,0,0,0-5.255-5.255Z"/>
    <path id="Path_18363" data-name="Path 18363" class="cls-3" d="M26.147,33.456H6.594V27.785H26.147A4.187,4.187,0,0,0,30.329,23.6V3.5H36V23.6a9.864,9.864,0,0,1-9.853,9.853" transform="translate(-1.252 -0.665)"/>
    <path id="Path_18364" data-name="Path 18364" class="cls-3" d="M98.6,25.987H79.037a2.108,2.108,0,0,1,0-4.216H98.6a2.108,2.108,0,0,1,0,4.216" transform="translate(-14.61 -4.135)"/>
    <path id="Path_18365" data-name="Path 18365" class="cls-3" d="M93.9,40.115H54.269a2.108,2.108,0,0,1,0-4.216H93.9a2.108,2.108,0,0,1,0,4.216" transform="translate(-9.906 -6.818)"/>
    <path id="Path_18366" data-name="Path 18366" class="cls-3" d="M90.862,61.9H38.269a2.108,2.108,0,0,1,0-4.216H90.862a2.108,2.108,0,0,1,0,4.216" transform="translate(-6.868 -10.956)"/>
    <path id="Path_18367" data-name="Path 18367" class="cls-3" d="M90.862,76.711H38.269a2.108,2.108,0,0,1,0-4.216H90.862a2.108,2.108,0,0,1,0,4.216" transform="translate(-6.868 -13.768)"/>
    <path id="Path_18368" data-name="Path 18368" class="cls-3" d="M69.438,90.794H38.27a2.108,2.108,0,0,1,0-4.216H69.438a2.108,2.108,0,0,1,0,4.216" transform="translate(-6.868 -16.443)"/>
    <path id="Path_18369" data-name="Path 18369" class="cls-3" d="M69.438,104.878H38.27a2.108,2.108,0,0,1,0-4.216H69.438a2.108,2.108,0,0,1,0,4.216" transform="translate(-6.868 -19.117)"/>
    <path id="Path_18370" data-name="Path 18370" class="cls-3" d="M69.438,118.962H38.27a2.108,2.108,0,0,1,0-4.216H69.438a2.108,2.108,0,0,1,0,4.216" transform="translate(-6.868 -21.792)"/>
    <path id="Path_18371" data-name="Path 18371" class="cls-3" d="M69.438,133.045H38.27a2.108,2.108,0,0,1,0-4.216H69.438a2.108,2.108,0,0,1,0,4.216" transform="translate(-6.868 -24.467)"/>
    <path id="Path_18372" data-name="Path 18372" class="cls-3" d="M24.866,61.9h-5.2a2.108,2.108,0,1,1,0-4.216h5.2a2.108,2.108,0,0,1,0,4.216" transform="translate(-3.334 -10.956)"/>
    <path id="Path_18373" data-name="Path 18373" class="cls-3" d="M24.866,76.711h-5.2a2.108,2.108,0,1,1,0-4.216h5.2a2.108,2.108,0,0,1,0,4.216" transform="translate(-3.334 -13.768)"/>
    <path id="Path_18374" data-name="Path 18374" class="cls-3" d="M24.866,91.1h-5.2a2.108,2.108,0,1,1,0-4.216h5.2a2.108,2.108,0,0,1,0,4.216" transform="translate(-3.334 -16.501)"/>
    <path id="Path_18375" data-name="Path 18375" class="cls-3" d="M24.4,105.443h-5.2a2.108,2.108,0,1,1,0-4.216h5.2a2.108,2.108,0,0,1,0,4.216" transform="translate(-3.245 -19.225)"/>
    <path id="Path_18376" data-name="Path 18376" class="cls-3" d="M24.866,119.835h-5.2a2.108,2.108,0,1,1,0-4.216h5.2a2.108,2.108,0,0,1,0,4.216" transform="translate(-3.334 -21.958)"/>
    <path id="Path_18377" data-name="Path 18377" class="cls-3" d="M24.866,133.342h-5.2a2.108,2.108,0,1,1,0-4.216h5.2a2.108,2.108,0,0,1,0,4.216" transform="translate(-3.334 -24.523)"/>
    <path id="Path_18378" data-name="Path 18378" class="cls-4" d="M116.7,140.775c24.819-6.756,25.564-29.321,25.564-29.321V94.472a4.157,4.157,0,0,0-2.749-3.912l-19.469-7.007-3.346-.966-3.346.966L93.889,90.56a4.157,4.157,0,0,0-2.749,3.912v16.983s.744,22.565,25.564,29.321" transform="translate(-17.309 -15.685)"/>
    <path id="Path_18379" data-name="Path 18379" class="cls-3" d="M116.04,143.023l-.744-.2C88.762,135.6,87.65,111.1,87.642,110.857l0-.094V93.78A7.01,7.01,0,0,1,92.264,87.2l19.645-7.065,4.131-1.192,4.306,1.248L139.814,87.2a7.01,7.01,0,0,1,4.624,6.579l0,17.077c-.007.246-1.12,24.74-27.652,31.963ZM93.311,110.705c.057,1.228,1.291,20.177,22.729,26.433,21.4-6.246,22.667-25.141,22.728-26.435V93.78a1.324,1.324,0,0,0-.874-1.243l-19.383-6.977-2.471-.713-2.472.713L94.185,92.537a1.325,1.325,0,0,0-.874,1.243Z" transform="translate(-16.644 -14.993)"/>
    <path id="Path_18381" data-name="Path 18381" class="cls-5" d="M106.388,127.145a2.794,2.794,0,0,1-2.478-1.5l-4.89-9.4a2.794,2.794,0,0,1,4.957-2.579l3.551,6.827,25.736-14.652a2.793,2.793,0,0,1,2.764,4.855L107.769,126.78a2.791,2.791,0,0,1-1.382.366" transform="translate(-18.676 -21.246)"/>
  </g>
</svg>
