<svg xmlns="http://www.w3.org/2000/svg" width="62" height="62" viewBox="0 0 62 62">
  <g id="Group_31873" data-name="Group 31873" transform="translate(-591 -162)">
    <circle id="Ellipse_12576" data-name="Ellipse 12576" cx="31" cy="31" r="31" transform="translate(591 162)" fill="#f5f5f5"/>
    <g id="Group_31870" data-name="Group 31870" transform="translate(604.188 178.88)">
      <g id="Group_31853" data-name="Group 31853" transform="translate(0 0)">
        <path id="Path_486" data-name="Path 486" d="M1102.527,160.632a10.6,10.6,0,0,1,7.9-2.721,10.279,10.279,0,0,1,6.133,2.48,10.422,10.422,0,0,1,3.668,6.612,10.637,10.637,0,0,1-1.652,7.418c.182,0,.315-.005.447,0a.514.514,0,0,1,.546.541q.014,1.1,0,2.2c0,.364-.218.549-.623.551-1.029,0-2.059.007-3.089,0a.652.652,0,0,0-.51.216q-1.261,1.276-2.535,2.541a.558.558,0,0,1-.791.107.537.537,0,0,1,.035-.828q.873-.878,1.751-1.751c.068-.068.132-.14.2-.21l-.025-.071c-.126,0-.251,0-.376,0a1.633,1.633,0,0,1-1.614-1.131c-.284-.724-.573-1.447-.861-2.171-.023-.058-.054-.114-.111-.232-.064.129-.11.21-.147.3-.816,1.878-1.626,3.76-2.447,5.636a1.643,1.643,0,0,1-2.809.477,2.272,2.272,0,0,1-.362-.711q-1.388-4.169-2.757-8.342c-.03-.092-.07-.179-.137-.345-.127.319-.226.563-.321.809-.345.89-.685,1.782-1.033,2.671a1.672,1.672,0,0,1-1.725,1.184c-.343,0-.687.006-1.03,0a.532.532,0,0,1-.594-.524c0-.307.229-.513.6-.519.352-.007.705,0,1.058,0a.641.641,0,0,0,.713-.493c.616-1.59,1.228-3.181,1.849-4.769a.882.882,0,0,1,.239-.362.511.511,0,0,1,.808.31c.27.789.525,1.584.787,2.375q1.262,3.829,2.527,7.656a1.279,1.279,0,0,0,.2.421.6.6,0,0,0,1.014-.216c.313-.7.613-1.411.919-2.117q1.062-2.448,2.124-4.9c.109-.253.242-.465.558-.457s.437.229.538.483c.456,1.155.922,2.307,1.373,3.464a.635.635,0,0,0,.647.462q2.337,0,4.676,0c.176,0,.253-.051.244-.237a5.3,5.3,0,0,1,0-.7c.018-.231-.082-.276-.291-.275-1.3.008-2.6,0-3.9.008a.679.679,0,0,1-.707-.457c-.7-1.594-1.428-3.179-2.134-4.772-.13-.293-.287-.532-.637-.525s-.491.24-.613.523c-.9,2.076-1.8,4.149-2.7,6.225-.112.261-.261.462-.565.447s-.432-.232-.52-.5q-1.654-5.032-3.319-10.059c-.024-.07-.044-.142-.07-.211a.64.64,0,0,0-.582-.48.629.629,0,0,0-.6.458q-1.11,2.865-2.217,5.731c-.167.432-.333.864-.5,1.3a.575.575,0,0,1-.669.456c-1.085,0-2.171.006-3.257,0-.227,0-.32.06-.3.3a3.857,3.857,0,0,1,0,.639c-.02.231.08.292.29.278a3.426,3.426,0,0,1,.556.011.506.506,0,0,1,.453.485.476.476,0,0,1-.409.518,12.843,12.843,0,0,1-1.525,0,.453.453,0,0,1-.4-.5c-.011-.742-.014-1.484,0-2.226.006-.363.232-.544.633-.545,1.132,0,2.264-.01,3.4.006a.427.427,0,0,0,.476-.335c.821-2.157,1.66-4.307,2.489-6.46a1.637,1.637,0,0,1,1.36-1.129,1.528,1.528,0,0,1,1.513.634,2.581,2.581,0,0,1,.343.722q1.436,4.328,2.86,8.658c.02.059.048.116.1.233.071-.153.121-.257.167-.362q1.035-2.385,2.068-4.77a1.639,1.639,0,0,1,1.266-1.055,1.593,1.593,0,0,1,1.777.934q1.029,2.267,2.037,4.543a.359.359,0,0,0,.394.252c.733-.012,1.466-.014,2.2,0a.488.488,0,0,0,.455-.24,9.607,9.607,0,0,0-14.4-12.593c-.426.386-.619.4-1.038,0a9.6,9.6,0,0,0-13.315.023c-.041.038-.08.078-.122.114a.524.524,0,1,1-.708-.768,9.632,9.632,0,0,1,2.922-2.05,10.535,10.535,0,0,1,11.305,1.358C1102.238,160.378,1102.367,160.5,1102.527,160.632Z" transform="translate(-1084.722 -157.866)" fill="#2d2d2d"/>
        <path id="Path_487" data-name="Path 487" d="M1102.506,189.3c.881-.886,1.677-1.69,2.477-2.49q2.585-2.589,5.173-5.174a1.212,1.212,0,0,1,.278-.227.513.513,0,0,1,.667.726,1.809,1.809,0,0,1-.257.29l-7.792,7.792c-.382.381-.624.378-1.01-.009q-7.062-7.063-14.126-14.128a10.666,10.666,0,0,1-1.705-13,.543.543,0,0,1,.619-.313.444.444,0,0,1,.384.421.986.986,0,0,1-.144.49,9.48,9.48,0,0,0-1.289,4.889,9.246,9.246,0,0,0,2.71,6.6c3.61,3.656,7.258,7.275,10.89,10.908q1.465,1.467,2.929,2.933A2.043,2.043,0,0,1,1102.506,189.3Z" transform="translate(-1084.743 -157.831)" fill="#2d2d2d"/>
      </g>
      <path id="Path_21626" data-name="Path 21626" d="M1118.981,174.375c-.132-.006-.265,0-.447,0l0,0H1117c-.014,0-.022.008-.038.008-.731-.015-1.465-.013-2.2,0a.358.358,0,0,1-.393-.252q-1.005-2.276-2.037-4.543a1.591,1.591,0,0,0-1.778-.934,1.637,1.637,0,0,0-1.266,1.055q-1.03,2.387-2.069,4.77c-.046.1-.1.208-.167.362-.052-.117-.081-.173-.1-.233q-1.428-4.329-2.859-8.658a2.619,2.619,0,0,0-.344-.722,1.528,1.528,0,0,0-1.513-.634,1.634,1.634,0,0,0-1.359,1.129c-.831,2.153-1.669,4.3-2.491,6.46a.426.426,0,0,1-.475.335c-1.132-.016-2.264-.009-3.4-.006-.4,0-.626.182-.634.545-.013.742-.01,1.484,0,2.227a.453.453,0,0,0,.4.5,12.873,12.873,0,0,0,1.525,0,.476.476,0,0,0,.408-.518.506.506,0,0,0-.453-.485,3.415,3.415,0,0,0-.555-.011c-.211.014-.31-.047-.29-.278a3.831,3.831,0,0,0,0-.639c-.02-.236.073-.3.3-.3,1.085.01,2.171.006,3.256,0a.574.574,0,0,0,.669-.457c.168-.432.333-.864.5-1.3q1.107-2.866,2.218-5.731a.627.627,0,0,1,.6-.458.64.64,0,0,1,.582.48c.025.07.046.141.069.212q1.662,5.028,3.32,10.059c.088.269.216.485.52.5s.452-.186.565-.447c.9-2.076,1.8-4.149,2.7-6.225.122-.283.277-.517.612-.523.351-.007.508.232.637.525.707,1.593,1.43,3.178,2.134,4.772a.68.68,0,0,0,.708.457c1.3-.011,2.6,0,3.9-.008.208,0,.308.044.289.275a5.608,5.608,0,0,0,0,.7c.009.185-.068.238-.244.237q-2.338-.008-4.675,0a.636.636,0,0,1-.647-.462c-.451-1.157-.917-2.309-1.373-3.464-.1-.255-.222-.475-.538-.483s-.449.2-.558.457q-1.059,2.45-2.124,4.9c-.307.706-.605,1.415-.92,2.117a.6.6,0,0,1-1.014.216,1.289,1.289,0,0,1-.2-.421q-1.268-3.826-2.527-7.656c-.262-.792-.517-1.586-.787-2.375a.51.51,0,0,0-.808-.31.879.879,0,0,0-.24.362c-.621,1.588-1.233,3.179-1.849,4.769a.64.64,0,0,1-.712.493c-.353,0-.705,0-1.058,0s-.6.211-.6.519a.532.532,0,0,0,.594.524c.344.008.687,0,1.03,0a1.672,1.672,0,0,0,1.726-1.184c.349-.888.689-1.78,1.033-2.671.095-.246.194-.489.321-.809.067.166.107.254.137.345q1.378,4.172,2.758,8.342a2.285,2.285,0,0,0,.361.711,1.625,1.625,0,0,0,.674.494l2.233-1.2q1.181-2.7,2.348-5.407c.037-.086.083-.167.146-.3.058.118.088.173.112.232.288.724.577,1.446.861,2.171a1.633,1.633,0,0,0,1,1.019l4.125.109c.61,0,1.219,0,1.829,0,.4,0,.617-.187.622-.551q.013-1.1,0-2.2A.514.514,0,0,0,1118.981,174.375Z" transform="translate(-1084.678 -157.819)" fill="#2d2d2d"/>
    </g>
  </g>
</svg>
