<svg xmlns="http://www.w3.org/2000/svg" width="11.262" height="15.652" viewBox="0 0 11.262 15.652">
  <g id="Group_31869" data-name="Group 31869" transform="translate(-462.804 -529.459)">
    <path id="Path_21822" data-name="Path 21822" d="M462.9,537.281q0-2.975,0-5.95a1.661,1.661,0,0,1,1.766-1.772q2.682,0,5.364,0a.553.553,0,1,1,.011,1.1q-1.087,0-2.173,0h-3.225a.565.565,0,0,0-.639.634q0,5.993,0,11.985a.562.562,0,0,0,.63.626h5.347a.929.929,0,0,1,.255.028.545.545,0,0,1,.389.58.558.558,0,0,1-.5.492c-.051,0-.1,0-.155,0h-5.312a1.661,1.661,0,0,1-1.758-1.763Q462.9,540.264,462.9,537.281Z" transform="translate(0 0)" fill="#47484a" stroke="#fff" stroke-width="0.2"/>
    <path id="Path_21823" data-name="Path 21823" d="M540.572,640.689h-2.2c-1.017,0-2.034,0-3.051,0a.55.55,0,0,1-.541-.765.539.539,0,0,1,.533-.338h5.252c-.054-.06-.085-.1-.119-.132-.365-.366-.732-.731-1.1-1.1a.553.553,0,1,1,.772-.785q1.075,1.07,2.145,2.145a.547.547,0,0,1,.006.837q-1.076,1.081-2.158,2.157a.552.552,0,1,1-.771-.786c.36-.363.723-.724,1.085-1.085C540.471,640.8,540.508,640.758,540.572,640.689Z" transform="translate(-68.522 -102.853)" fill="#47484a" stroke="#fff" stroke-width="0.2"/>
  </g>
</svg>
