<svg id="Group_35103" data-name="Group 35103" xmlns="http://www.w3.org/2000/svg" xmlns:xlink="http://www.w3.org/1999/xlink" width="38.249" height="50.432" viewBox="0 0 38.249 50.432">
  <defs>
    <linearGradient id="linear-gradient" x1="0.335" y1="0.43" x2="1.333" y2="0.975" gradientUnits="objectBoundingBox">
      <stop offset="0" stop-color="#fc9136"/>
      <stop offset="0.75" stop-color="#fe404c"/>
      <stop offset="1" stop-color="#852d3b"/>
    </linearGradient>
    <linearGradient id="linear-gradient-2" x1="0.379" y1="0.078" x2="0.466" y2="0.238" gradientUnits="objectBoundingBox">
      <stop offset="0" stop-color="#77101a"/>
      <stop offset="1" stop-color="#e91431"/>
    </linearGradient>
    <linearGradient id="linear-gradient-3" x1="0.543" y1="0.825" x2="0.773" y2="1.895" gradientUnits="objectBoundingBox">
      <stop offset="0" stop-color="#b91d2a"/>
      <stop offset="1" stop-color="#fd7c3e"/>
    </linearGradient>
    <linearGradient id="linear-gradient-4" x1="0.61" y1="0.438" x2="0.395" y2="0.146" gradientUnits="objectBoundingBox">
      <stop offset="0" stop-color="#6d0000"/>
      <stop offset="0.385" stop-color="#ab2318" stop-opacity="0.565"/>
      <stop offset="0.793" stop-color="#e64530" stop-opacity="0.157"/>
      <stop offset="1" stop-color="#fd5239" stop-opacity="0"/>
    </linearGradient>
    <clipPath id="clip-path">
      <path id="Path_118" data-name="Path 118" d="M212.572,87.157c.136,2.262-5.065,7.051-5.065,7.051a21.657,21.657,0,0,1-14.632,5.126l.984,3.4,3.072,2.887,4.358,1.945c6.075-1.712,13.646-8.362,13.275-15.247a9.232,9.232,0,0,0-1.777-4.893C212.717,87.334,212.647,87.242,212.572,87.157Z" transform="translate(-192.874 -87.157)" fill="none"/>
    </clipPath>
    <linearGradient id="linear-gradient-5" y1="0.5" x2="1" y2="0.5" gradientUnits="objectBoundingBox">
      <stop offset="0" stop-color="#a2222d"/>
      <stop offset="1" stop-color="#e91431"/>
    </linearGradient>
    <linearGradient id="linear-gradient-6" y1="0.5" x2="1" y2="0.5" gradientUnits="objectBoundingBox">
      <stop offset="0" stop-color="#6e0a15"/>
      <stop offset="1" stop-color="#e91431"/>
    </linearGradient>
    <linearGradient id="linear-gradient-7" x1="0.393" y1="0.222" x2="0.656" y2="0.739" gradientUnits="objectBoundingBox">
      <stop offset="0" stop-color="#6e0a15"/>
      <stop offset="1" stop-color="#a70c1e"/>
    </linearGradient>
    <linearGradient id="linear-gradient-8" x1="0.159" y1="0.425" x2="0.756" y2="0.642" gradientUnits="objectBoundingBox">
      <stop offset="0" stop-color="#6e0a15"/>
      <stop offset="1" stop-color="#831214"/>
    </linearGradient>
    <linearGradient id="linear-gradient-9" x1="0.186" y1="0.418" x2="0.596" y2="0.805" gradientUnits="objectBoundingBox">
      <stop offset="0" stop-color="#6e0a15"/>
      <stop offset="1" stop-color="#6f0c0e"/>
    </linearGradient>
    <linearGradient id="linear-gradient-10" x1="0.162" y1="0.5" x2="0.854" y2="0.5" gradientUnits="objectBoundingBox">
      <stop offset="0" stop-color="#400000"/>
      <stop offset="1" stop-color="#f53737"/>
    </linearGradient>
    <linearGradient id="linear-gradient-11" x1="-0.041" y1="0.5" x2="0.455" y2="0.5" xlink:href="#linear-gradient-5"/>
    <linearGradient id="linear-gradient-12" x1="0.442" y1="0.355" x2="0.644" y2="0.861" xlink:href="#linear-gradient-4"/>
    <linearGradient id="linear-gradient-13" x1="0.076" y1="0.679" x2="0.537" y2="0.321" gradientUnits="objectBoundingBox">
      <stop offset="0" stop-color="#88111c"/>
      <stop offset="1" stop-color="#e91431"/>
    </linearGradient>
    <linearGradient id="linear-gradient-14" x1="0.195" y1="0.413" x2="0.772" y2="0.874" gradientUnits="objectBoundingBox">
      <stop offset="0" stop-color="#6e0a15"/>
      <stop offset="1" stop-color="#aa1223"/>
    </linearGradient>
    <linearGradient id="linear-gradient-15" y1="0.5" x2="1" y2="0.5" gradientUnits="objectBoundingBox">
      <stop offset="0" stop-color="#6e0a15"/>
      <stop offset="1" stop-color="#71070a"/>
    </linearGradient>
  </defs>
  <path id="Path_106" data-name="Path 106" d="M217.712,83.848c-.3-.256-.6-.5-.911-.727L211.948,89.5c2.525,2.559,4.294,6.47,3.485,12.429,0,0,2.284-2.482,3.324-3.944a15.875,15.875,0,0,0,1.965-3.591C222.22,90.4,220.854,86.565,217.712,83.848Z" transform="translate(-183.361 -56.054)" fill="url(#linear-gradient)"/>
  <g id="Group_62" data-name="Group 62" transform="translate(18.019 22.543)">
    <path id="Path_107" data-name="Path 107" d="M211.855,82.362a20.2,20.2,0,0,0-6-3.433l-.068-.025-10.316,4.207c1.378.155,16.16,2.182,14.1,17.333,0,0,2.284-2.483,3.323-3.945a15.839,15.839,0,0,0,1.966-3.591C216.363,88.911,215,85.08,211.855,82.362Z" transform="translate(-195.441 -77.077)" fill="url(#linear-gradient-2)"/>
    <path id="Path_108" data-name="Path 108" d="M204,77.229c-1.168-.4-2.35-.783-3.528-1.182l-4.92,2.03-.13,2.575Z" transform="translate(-195.423 -76.047)" fill="url(#linear-gradient-3)"/>
  </g>
  <path id="Path_109" data-name="Path 109" d="M215.92,84.157c-.072-.061-.146-.118-.219-.178q-.256.124-.519.228c-1.293.512-2.6.966-3.916,1.427-.759.267-1.513.545-2.268.822-.209.077-.325.116-.386.134s-.166.088-.368.187l-1.269.619c3.943,2.244,7.788,6.566,6.665,14.841,0,0,2.284-2.482,3.324-3.944a16.211,16.211,0,0,0,1.965-3.591C220.525,90.514,219.083,86.867,215.92,84.157Z" transform="translate(-181.568 -56.363)" fill="url(#linear-gradient-4)" style="mix-blend-mode: multiply;isolation: isolate"/>
  <g id="Group_68" data-name="Group 68" transform="translate(16.389 29.648)">
    <g id="Group_67" data-name="Group 67" clip-path="url(#clip-path)">
      <g id="Group_66" data-name="Group 66" transform="translate(-0.496 1.343)">
        <path id="Path_110" data-name="Path 110" d="M218.8,89.257C210.3,98.292,203.09,99.1,203.09,99.1c.714.959,13.211,1.545,15.452-2.445.022-.04.038-.08.06-.12a16.749,16.749,0,0,0,.2-7.276Z" transform="translate(-196.061 -89.257)" fill="url(#linear-gradient-5)"/>
        <g id="Group_63" data-name="Group 63" transform="translate(2.225 7.396)">
          <path id="Path_111" data-name="Path 111" d="M195.724,103.169c-.048-.04-.1-.078-.146-.119A1.629,1.629,0,0,0,195.724,103.169Z" transform="translate(-195.578 -101.626)" fill="#fff"/>
          <path id="Path_112" data-name="Path 112" d="M213.994,105.283a15.6,15.6,0,0,0,1.924-4.375c0-.05,0-.084,0-.084a55.855,55.855,0,0,1-16.595,2.522c-.14,0-.278-.006-.418-.013-.237-.01-.364-.02-.364-.02l-.081-.015a6.5,6.5,0,0,1-1.142-.244c-.16-.047-.3-.095-.437-.144-.023-.009-.047-.015-.07-.025a4.314,4.314,0,0,1-1-.519C200.606,106.36,211.933,106.784,213.994,105.283Z" transform="translate(-195.661 -100.823)" fill="url(#linear-gradient-6)"/>
        </g>
        <g id="Group_64" data-name="Group 64" transform="translate(0.017 5.095)">
          <path id="Path_113" data-name="Path 113" d="M192.146,97.335c-.006-.038-.015-.073-.021-.111a3.777,3.777,0,0,0,.185.946c-.017-.069-.029-.143-.044-.213A4.53,4.53,0,0,1,192.146,97.335Z" transform="translate(-192.125 -97.224)" fill="#017276"/>
          <path id="Path_114" data-name="Path 114" d="M212.775,104.513c-12.579,1.686-18.362-3.048-18.362-3.048l-.026-.021c-.056-.042-.108-.089-.163-.134-.1-.085-.2-.171-.3-.257-.047-.044-.093-.086-.138-.132a5.389,5.389,0,0,1-1.376-2.217c2.173,9.119,14.683,9.776,17.2,9.413A15.965,15.965,0,0,0,212.775,104.513Z" transform="translate(-192.229 -97.758)" fill="url(#linear-gradient-7)"/>
        </g>
        <g id="Group_65" data-name="Group 65" transform="translate(0 4.731)">
          <path id="Path_115" data-name="Path 115" d="M192.1,96.655s0,.129.029.35C192.117,96.888,192.1,96.772,192.1,96.655Z" transform="translate(-192.098 -96.655)" fill="#017b80"/>
          <path id="Path_116" data-name="Path 116" d="M192.388,98.5a4.628,4.628,0,0,1-.151-.582c1.215,8.913,10.237,12.292,13.211,12.46h0a16.577,16.577,0,0,0,4.109-2.547C196.306,107.1,193.144,101.228,192.388,98.5Z" transform="translate(-192.148 -97.11)" fill="url(#linear-gradient-8)"/>
        </g>
        <path id="Path_117" data-name="Path 117" d="M205.4,109.922c-9.846-2.4-12.418-9.056-13.078-11.923a4.388,4.388,0,0,1-.218-1.286c0-.035,0-.058,0-.058.03.741.088,1.439.164,2.106a18.41,18.41,0,0,0,3.49,9.109l.02.026c.082.1.171.2.256.292a10.929,10.929,0,0,0,2.009,1.759,9.669,9.669,0,0,0,2.7,1.239,13.211,13.211,0,0,0,3.928-.96C204.917,110.134,205.157,110.026,205.4,109.922Z" transform="translate(-192.098 -91.924)" fill="url(#linear-gradient-9)"/>
      </g>
    </g>
  </g>
  <path id="Path_119" data-name="Path 119" d="M174.233,71.535v-3.77c-2.048-.435-6.355-1.034-6.917,1.492,0,0-.275,2.518,1.295,3.811s6.7-.517,6.7-.517V71.188l-.936,1.092Z" transform="translate(-167.265 -50.377)" fill="url(#linear-gradient-10)"/>
  <path id="Path_120" data-name="Path 120" d="M193.9,70.493" transform="translate(-176.853 -51.501)" fill="#009fa7"/>
  <path id="Path_121" data-name="Path 121" d="M196.735,90.858a8.6,8.6,0,0,1-2.572-2.035A28.19,28.19,0,0,1,191.5,85.7a15.864,15.864,0,0,1-2.222-4.633,19.692,19.692,0,0,1-.588-5.438V40.795h-1.31a7.557,7.557,0,0,0-7.557,7.557V79.028a12.057,12.057,0,0,0,1.89,6.438,12.607,12.607,0,0,0,4.888,4.45,12.032,12.032,0,0,0,4.168,1.241,16.54,16.54,0,0,0,3.056,0c.476-.037.953-.086,1.429-.129Z" transform="translate(-171.781 -40.795)" fill="url(#linear-gradient-11)"/>
  <rect id="Rectangle_23" data-name="Rectangle 23" width="8.856" height="10.59" transform="translate(8.046 25.881)" fill="url(#linear-gradient-12)" style="mix-blend-mode: multiply;isolation: isolate"/>
  <path id="Path_122" data-name="Path 122" d="M205.463,67.28a.365.365,0,0,1-.2.486h0l-.985.4-1.526.613-1.97.792-2.318.93-2.57,1.032-2.726,1.1-2.788,1.119-2.752,1.106c-.874.35-1.747.659-2.621,1.01-.8.321-1.412.583-2.21.9-.69.278-1.564.655-2.255.932l-1.652.663a10.911,10.911,0,0,1-3.872,1.021,8.5,8.5,0,0,1-1.642-.124A7.019,7.019,0,0,1,171.6,78.7a6.321,6.321,0,0,1-1.7-1.179,7.279,7.279,0,0,1-1.429-1.989,11.137,11.137,0,0,1-.948-2.992,20.2,20.2,0,0,1-.265-4.182q.013-.435.04-.868s-.264,3.819,5.582,2.705a.378.378,0,0,0,.046-.012l22.719-7.322a8.029,8.029,0,0,1,9.818,4.42Z" transform="translate(-167.246 -48.61)" fill="url(#linear-gradient-13)"/>
  <g id="Group_69" data-name="Group 69" transform="translate(0 18.919)">
    <path id="Path_123" data-name="Path 123" d="M168.595,72.759c-.051-.031-.1-.062-.145-.094l-.043-.03c-.044-.031-.086-.064-.126-.1l-.045-.036c-.037-.032-.074-.064-.108-.1l-.045-.043q-.048-.047-.092-.1l-.044-.05c-.026-.031-.052-.062-.077-.093l-.045-.06c-.021-.028-.042-.056-.061-.085s-.032-.049-.047-.074-.031-.049-.045-.073-.035-.062-.051-.093-.019-.035-.028-.053c-.022-.043-.042-.086-.06-.128l-.007-.017a2.837,2.837,0,0,1-.217-.87,1.2,1.2,0,0,1-.012-.145v.019c-.029.531-.04,1.035-.039,1.521l2.454,6.22,7.6,3.569c.531-.173,1.054-.38,1.582-.592l1.652-.663c.691-.278,1.565-.655,2.255-.932.631-.253,1.15-.471,1.732-.709.02-.009.042-.02.063-.029-11.819-1.965-14.259-4.462-15.992-6.162Z" transform="translate(-167.249 -70.433)" fill="url(#linear-gradient-14)"/>
    <path id="Path_124" data-name="Path 124" d="M167.717,72.013c-.005-.009-.008-.018-.014-.027-.042-.074-.079-.147-.112-.22-.008-.017-.016-.033-.023-.05-.031-.072-.058-.143-.081-.213-.008-.025-.017-.049-.024-.074-.019-.062-.035-.122-.049-.179-.007-.031-.013-.06-.019-.09s-.017-.084-.023-.124c0-.015-.006-.033-.008-.048l.363,5.379c.044.185.093.362.143.537.01.035.019.07.029.105.04.133.082.258.125.385.036.106.072.212.111.316s.075.2.115.294q.1.248.217.489c.02.043.04.09.061.132l0,.006,5.978,3.809h.008c.182.008.365.011.547.008a10.382,10.382,0,0,0,3.676-.943l.176-.07C176.5,80.6,169.717,77.78,167.717,72.013Z" transform="translate(-167.289 -70.6)" fill="url(#linear-gradient-15)"/>
    <path id="Path_125" data-name="Path 125" d="M174.573,82.225c-5.717-4.318-6.949-9.47-7.209-11.223a2.674,2.674,0,0,1-.068-.622C166.713,80.325,171.445,82.131,174.573,82.225Z" transform="translate(-167.246 -70.38)" fill="#5b090e"/>
  </g>
</svg>
