<svg id="Group_39337" data-name="Group 39337" xmlns="http://www.w3.org/2000/svg" width="30.581" height="23.241" viewBox="0 0 30.581 23.241">
  <g id="Group_35067" data-name="Group 35067" transform="translate(0 0)">
    <path id="Path_42101" data-name="Path 42101" d="M1599.369,1604.158h-26.911a1.837,1.837,0,0,1-1.835-1.835v-19.572a1.837,1.837,0,0,1,1.835-1.835h26.911a1.837,1.837,0,0,1,1.835,1.835v19.572A1.837,1.837,0,0,1,1599.369,1604.158Zm-26.911-22.018a.612.612,0,0,0-.611.612v19.572a.612.612,0,0,0,.611.611h26.911a.612.612,0,0,0,.612-.611v-19.572a.612.612,0,0,0-.612-.612Z" transform="translate(-1570.623 -1580.917)" fill="#e91431"/>
  </g>
  <g id="Group_35068" data-name="Group 35068" transform="translate(2.446 2.446)">
    <path id="Path_42102" data-name="Path 42102" d="M1603.467,1611.839a6.684,6.684,0,0,1-4.757-1.971l-7.907-7.908a.612.612,0,0,1,.865-.865l7.908,7.907a5.5,5.5,0,0,0,7.785,0l7.6-7.6a.612.612,0,0,1,.865.865l-7.6,7.6A6.683,6.683,0,0,1,1603.467,1611.839Z" transform="translate(-1590.623 -1600.917)" fill="#e91431"/>
  </g>
  <g id="Group_35069" data-name="Group 35069" transform="translate(2.446 12.844)">
    <path id="Path_42103" data-name="Path 42103" d="M1591.235,1693.868a.612.612,0,0,1-.432-1.044l6.728-6.728a.611.611,0,0,1,.865.865l-6.728,6.728A.609.609,0,0,1,1591.235,1693.868Z" transform="translate(-1590.623 -1685.917)" fill="#e91431"/>
  </g>
  <g id="Group_35070" data-name="Group 35070" transform="translate(20.183 12.844)">
    <path id="Path_42104" data-name="Path 42104" d="M1742.963,1693.868a.609.609,0,0,1-.432-.179l-6.728-6.728a.612.612,0,1,1,.865-.865l6.728,6.728a.612.612,0,0,1-.432,1.044Z" transform="translate(-1735.623 -1685.917)" fill="#e91431"/>
  </g>
</svg>
