<svg xmlns="http://www.w3.org/2000/svg" xmlns:xlink="http://www.w3.org/1999/xlink" width="55.278" height="62.973" viewBox="0 0 55.278 62.973">
  <defs>
    <clipPath id="clip-path">
      <rect id="Rectangle_1010" data-name="Rectangle 1010" width="55.278" height="62.973" fill="none"/>
    </clipPath>
  </defs>
  <g id="Group_10448" data-name="Group 10448" transform="translate(0 0)">
    <g id="Group_3682" data-name="Group 3682" transform="translate(0 0)" clip-path="url(#clip-path)">
      <path id="Path_3349" data-name="Path 3349" d="M93.235,62.973h-39.8c-.22-.128-.46-.031-.689-.063-1.524.01-3.116-1.8-3.2-3.7-.051-1.16-.021-6.634-.008-7.8a.8.8,0,0,1,.264-.716,2.565,2.565,0,0,1,1.208-.136q17.411,0,34.823,0c.287,0,.573,0,.86,0a1.855,1.855,0,0,0,2.124-2.035,4.533,4.533,0,0,0,.013-1.283c-.03-6.3-.007-8.292-.014-14.593,0-.348.009-.7-.005-1.043a1.789,1.789,0,0,0-1.8-1.793c-.327-.014-.655-.006-.982-.006q-17.524,0-35.047,0a2.056,2.056,0,0,1-1.253-.186,1.2,1.2,0,0,1-.219-.871q-.008-12.309,0-24.618a4.059,4.059,0,0,1,.1-.912,3.825,3.825,0,0,1,3.979-3.2q7.121-.007,14.242,0,6.415,0,12.83,0a1.287,1.287,0,0,1,.661.059,2.59,2.59,0,0,1,.1.965c0,3.314.063,6.629-.021,9.941-.06,2.351.917,4.152,3.562,4.635a2.327,2.327,0,0,1,.812.638q5.345,5.339,10.684,10.685a1.937,1.937,0,0,1,.646.88,3.649,3.649,0,0,1,.054.8q0,15.025,0,30.051a4.476,4.476,0,0,1-1.381,3.418,2.868,2.868,0,0,1-1.8.826c-.248.037-.509-.062-.749.066" transform="translate(-41.885 0)" fill="#e1e4e6"/>
      <path id="Path_3350" data-name="Path 3350" d="M71.036,408.461c0-.041,0-.081,0-.122.209.02.44-.069.615.122Z" transform="translate(-60.102 -345.489)" fill="#edeff0"/>
      <path id="Path_3351" data-name="Path 3351" d="M334.252,408.34c0,.041,0,.081,0,.122h-.614c.176-.19.406-.1.615-.122" transform="translate(-282.287 -345.489)" fill="#edeff0"/>
      <path id="Path_3352" data-name="Path 3352" d="M7.859,215.536q-2.821-.01-5.642-.02A2,2,0,0,1,0,213.322q-.006-9.6,0-19.2a2,2,0,0,1,2.215-2.192q2.821-.014,5.642-.021c.266.007.531.019.8.019H44.7c1.786,0,2.473.692,2.473,2.492q0,9.272,0,18.545c0,.307-.011.614-.016.92a1.946,1.946,0,0,1-2.093,1.864c-.245.016-.491.01-.736.01q-17.615,0-35.23,0a1.739,1.739,0,0,1-1.238-.221" transform="translate(0 -162.371)" fill="#e51833"/>
      <path id="Path_3353" data-name="Path 3353" d="M255.492,1.18l15.474,15.493c-.13.426-.5.354-.805.36-1.144.021-2.288.008-3.433.008-2.125,0-4.251,0-6.376,0a1.922,1.922,0,0,1-1.058-.244,3.985,3.985,0,0,1-3.927-4.085q-.009-5.449,0-10.9c0-.216-.072-.455.125-.635" transform="translate(-216.053 -0.998)" fill="#afb6bc"/>
      <path id="Path_3354" data-name="Path 3354" d="M280.948,101.968q5.486,0,10.972-.008c.236,0,.495.083.7-.119.15.121.122.293.122.453q0,5.726-.011,11.451c-.11-.09-.228-.172-.328-.272q-5.592-5.588-11.179-11.179c-.1-.1-.184-.217-.275-.326" transform="translate(-237.707 -86.167)" fill="#c9d0d7"/>
      <path id="Path_3355" data-name="Path 3355" d="M207.439,236.258a27.064,27.064,0,0,1,3,.024.875.875,0,0,1,.849.818,1.009,1.009,0,0,1-.649,1.074,1.632,1.632,0,0,1-.723.1c-1.247,0-2.5.019-3.742-.01-.439-.01-.568.128-.538.552a11.46,11.46,0,0,1,0,1.472c-.022.374.1.5.482.488,1-.023,2-.01,3.006-.006a3.494,3.494,0,0,1,.609.042,1.178,1.178,0,0,1,1.024,1.118,1.073,1.073,0,0,1-1.149.89c-1.124.018-2.25.034-3.374,0-.5-.017-.621.149-.6.619.035.837.02,1.677.007,2.515-.012.752-.37,1.157-.984,1.153a1.025,1.025,0,0,1-1.08-1.145q-.015-4.295,0-8.589a.949.949,0,0,1,1.039-1.1c.937-.05,1.879-.012,2.819-.012" transform="translate(-172.241 -199.866)" fill="#fefefe"/>
      <path id="Path_3356" data-name="Path 3356" d="M130.3,236.132a21.175,21.175,0,0,0-4.894-.09c-.683.036-.979.444-.984,1.163-.009,1.411,0,2.822,0,4.233,0,1.39,0,2.781,0,4.171,0,.928.328,1.259,1.251,1.267,1.084.009,2.167,0,3.251,0a5.456,5.456,0,0,0,1.378-10.746m-.407,8.717a14.72,14.72,0,0,1-3.118.1c-.325.006-.273-.237-.274-.432,0-1.022,0-2.044,0-3.067,0-1,.013-2-.007-3.005-.007-.373.06-.561.5-.534a26.59,26.59,0,0,1,2.754.088,2.893,2.893,0,0,1,2.063,1.394c1.263,2.041.267,4.947-1.912,5.459" transform="translate(-105.268 -199.63)" fill="#fefefe"/>
      <path id="Path_3357" data-name="Path 3357" d="M60.908,235.266a32.889,32.889,0,0,0-3.985-.053c-.8.008-1.175.438-1.182,1.252-.011,1.411,0,2.823,0,4.235h.008c0,1.493-.015,2.987.007,4.48a1.018,1.018,0,0,0,1,1.04.942.942,0,0,0,1.007-.932,14.649,14.649,0,0,0,.045-1.775c-.006-.342.1-.471.455-.461.715.022,1.432.02,2.148,0a3.667,3.667,0,0,0,3.875-3.655,3.713,3.713,0,0,0-3.376-4.131m1.379,4.05a1.866,1.866,0,0,1-1.84,1.771c-.734.025-1.469-.009-2.2.016-.368.013-.45-.143-.437-.47.02-.509.005-1.02.005-1.632.069-.519-.278-1.323.142-1.714.384-.358,1.17-.083,1.778-.1a5.341,5.341,0,0,1,.914.044,1.9,1.9,0,0,1,1.64,2.085" transform="translate(-47.157 -198.982)" fill="#fefefe"/>
    </g>
  </g>
</svg>
