<svg xmlns="http://www.w3.org/2000/svg" width="34.8" height="33.284" viewBox="0 0 34.8 33.284">
  <path id="Path_42143" data-name="Path 42143" d="M404.181,110.493c-.037-.047-.074-.093-.112-.143-1.424-1.892-4.313-3.4-10.592-5.5v-1.312l.125-.1a5.283,5.283,0,0,0,1.411-2.51,6.187,6.187,0,0,0,1.948-1.8c1.91-.318,2.21-3.059,2.412-4.91l.015-.168a3.584,3.584,0,0,0-.745-2.3,1.323,1.323,0,0,1-.33-.718c-.337-6.149-3.494-8.891-10.24-8.891-6.836,0-9.9,2.659-10.24,8.891a1.242,1.242,0,0,1-.336.693,3.339,3.339,0,0,0-.741,2.455c.188,3.313,1.414,4.405,2.129,4.762a1.733,1.733,0,0,0,1.749-.039l.022-.017c.219,1.379.739,3.631,1.875,4.557l.01.008v1.4c-6.281,2.107-9.17,3.613-10.594,5.505-.038.05-.075.1-.112.143-.522.659-.885,1.313-1.169,4.292l-.06.63h34.8l-.06-.63C405.065,111.807,404.7,111.152,404.181,110.493ZM380,97.937a.615.615,0,0,1-.6-.034c-.308-.154-1.328-.882-1.493-3.8a2.227,2.227,0,0,1,.521-1.709,2.31,2.31,0,0,0,.556-1.311c.256-4.684,1.9-7.8,9.09-7.8,6.072,0,8.791,2.334,9.09,7.8A2.4,2.4,0,0,0,397.7,92.4a2.445,2.445,0,0,1,.539,1.613l-.008.073c-.17,1.559-.428,3.915-1.647,3.915l-.452-.005-.107.44a2.309,2.309,0,0,1-.6.736c.083-.47.134-.868.162-1.125a3.783,3.783,0,0,0,1.131-2.57c.134-1.532-.237-2.679-.98-3.122-.109-.55-.336-1.682-.422-2.051-1.14-4.871-2.65-5.1-7.25-5.1s-6.11.232-7.251,5.1c-.107.458-.319,1.524-.423,2.051-.743.443-1.113,1.59-.979,3.122a4.258,4.258,0,0,0,.749,2.161A.382.382,0,0,1,380,97.937Zm14.45-6.183-3.606-1.712-.25.123a22.94,22.94,0,0,1-8.979,1.968c.108-.541.249-1.234.327-1.567.987-4.214,1.873-4.214,6.13-4.214s5.143,0,6.129,4.214C394.246,90.778,394.349,91.275,394.446,91.753Zm-12.781,5.925-.026-.3-.261-.149a2.453,2.453,0,0,1-.816-1.853c-.108-1.233.212-1.988.485-2.059l.107-.028h.133a24.282,24.282,0,0,0,9.56-1.97,37.495,37.495,0,0,0,4.242,2c.273.071.593.826.485,2.059a2.455,2.455,0,0,1-.816,1.853l-.262.15-.026.3a16.329,16.329,0,0,1-.442,2.5,12.532,12.532,0,0,1-4.128,1.429l-.3.052-.126.279a.51.51,0,1,1-.031-.474l.979-.606a1.66,1.66,0,1,0-.061,1.836,14.357,14.357,0,0,0,3.1-.945,2.476,2.476,0,0,1-.583.79c-1.93,1.573-3.4,2.274-4.768,2.274h-.079c-1.367,0-2.837-.7-4.767-2.274C382.226,101.7,381.758,98.745,381.665,97.678Zm6.362,8.289h.079a7.45,7.45,0,0,0,4.22-1.573,5.444,5.444,0,0,1-1.2,4.038,4.177,4.177,0,0,1-3.105,1.118h-.006a4.181,4.181,0,0,1-3.12-1.132,5.5,5.5,0,0,1-1.2-4.1A7.56,7.56,0,0,0,388.027,105.967Zm-16.146,8.3c.258-2.3.551-2.666.86-3.057.043-.054.086-.108.129-.166,1.23-1.635,3.982-3.055,9.725-5a5.09,5.09,0,0,0,5.413,4.659h.008a5.275,5.275,0,0,0,3.935-1.471,5.691,5.691,0,0,0,1.468-3.19c5.747,1.946,8.5,3.366,9.73,5,.043.058.086.112.129.166.309.391.6.761.86,3.057Z" transform="translate(-370.61 -82.132)" fill="#e91431"/>
</svg>
