<svg xmlns="http://www.w3.org/2000/svg" width="62" height="62" viewBox="0 0 62 62">
  <g id="Group_31874" data-name="Group 31874" transform="translate(-591 -204)">
    <circle id="Ellipse_12577" data-name="Ellipse 12577" cx="31" cy="31" r="31" transform="translate(591 204)" fill="#f5f5f5"/>
    <g id="Group_31855" data-name="Group 31855" transform="translate(606.253 219.823)">
      <g id="Group_297" data-name="Group 297" transform="translate(7.791 8.802)">
        <path id="Path_489" data-name="Path 489" d="M1196.281,174.695c-.613.558-1.2,1.082-1.771,1.619a.458.458,0,0,0-.1.286c-.032.52-.052,1.04-.07,1.561a1.268,1.268,0,0,1-.4.92c-.214.2-.414.421-.626.624a1.088,1.088,0,0,1-1.808-.333c-.3-.639-.578-1.291-.887-1.927a.776.776,0,0,0-.335-.334c-.609-.295-1.232-.564-1.849-.845a1.1,1.1,0,0,1-.36-1.89c1.044-1.042.778-.986,2.242-.99a1.941,1.941,0,0,0,1.74-.835,13.267,13.267,0,0,1,.981-1.1c-.112-.08-.2-.15-.3-.214-1.017-.673-2.035-1.341-3.05-2.016a1.1,1.1,0,0,1-.19-1.856c.159-.161.33-.311.478-.482a1.314,1.314,0,0,1,1.329-.419c1.724.291,3.453.553,5.179.837a.423.423,0,0,0,.455-.162c.262-.319.539-.626.822-.927a5.067,5.067,0,0,1,3.374-1.619c1.354-.111,2.185.869,1.97,2.324a5.112,5.112,0,0,1-1.632,3.092c-.3.273-.594.544-.9.8a.391.391,0,0,0-.148.408c.292,1.784.574,3.569.862,5.352a1.169,1.169,0,0,1-.338,1.078c-.2.193-.39.389-.584.583a1.1,1.1,0,0,1-1.843-.176q-1.028-1.546-2.05-3.1C1196.417,174.883,1196.36,174.806,1196.281,174.695Zm5.891-8.184a.822.822,0,0,0-.949-.954,4.162,4.162,0,0,0-2.794,1.362c-.505.55-1,1.109-1.5,1.664-1.633,1.809-3.263,3.622-4.909,5.421a.981.981,0,0,1-.553.266,5.967,5.967,0,0,1-1.147.054,1.624,1.624,0,0,0-1.5.664c-.2.266-.222.282.1.428.661.3,1.32.611,1.987.9a.94.94,0,0,1,.52.524c.294.675.6,1.344.91,2.015.124.273.176.28.393.066.133-.131.254-.276.4-.394a.715.715,0,0,0,.259-.592c.009-.56.024-1.122.078-1.678a.931.931,0,0,1,.255-.529c.433-.428.9-.824,1.35-1.234q2.867-2.588,5.734-5.179A4.09,4.09,0,0,0,1202.172,166.51Zm-2.641,5.241c-.844.766-1.631,1.475-2.41,2.193a.236.236,0,0,0-.007.223c.736,1.128,1.482,2.25,2.222,3.374.1.158.2.155.327.023a7.118,7.118,0,0,0,.513-.528.62.62,0,0,0,.125-.41c-.129-.915-.281-1.826-.427-2.738C1199.765,173.2,1199.654,172.517,1199.531,171.751Zm-3.561-3.54c-.171-.034-.284-.061-.4-.079-1.279-.2-2.558-.4-3.835-.611-.89-.146-.888-.154-1.515.491a.419.419,0,0,1-.041.042c-.174.144-.129.252.042.364.535.347,1.065.7,1.6,1.053l1.884,1.24Z" transform="translate(-1187.676 -164.587)" fill="#2d2d2d"/>
        <path id="Path_490" data-name="Path 490" d="M1206.224,183.47c.448-.509.869-1,1.3-1.479a1.572,1.572,0,0,1,2.426,2c-.828,1-1.689,1.969-2.568,2.921a1.522,1.522,0,0,1-2.217.023c-.429-.417-.847-.848-1.258-1.285a1.576,1.576,0,0,1,2.145-2.309C1206.1,183.377,1206.147,183.411,1206.224,183.47Zm-1.883,1.038a3.236,3.236,0,0,0,.311.51c.359.391.735.766,1.11,1.142a.631.631,0,0,0,1.039-.03c.343-.379.676-.767,1.013-1.151.447-.51.9-1.014,1.338-1.533a.6.6,0,0,0-.3-1.018.655.655,0,0,0-.65.256q-.773.891-1.556,1.774a.5.5,0,0,1-.833.01,4.947,4.947,0,0,0-.471-.441.478.478,0,0,0-.605-.026A2.719,2.719,0,0,0,1204.341,184.508Z" transform="translate(-1188.917 -165.914)" fill="#2d2d2d"/>
      </g>
      <g id="Group_298" data-name="Group 298" transform="translate(0)">
        <path id="Path_491" data-name="Path 491" d="M1180.279,164.57a32.558,32.558,0,0,1,.024-4.942c.042-.5.184-.6.674-.461a15.119,15.119,0,0,0,7.44.191,11.822,11.822,0,0,0,5.907-3.075c.362-.357.486-.363.849,0a10.2,10.2,0,0,0,2.959,2.065,14.9,14.9,0,0,0,10.388.813c.482-.129.636-.03.675.465a35.987,35.987,0,0,1-.912,11.209c-.166.7-.373,1.385-.557,2.077a.486.486,0,1,0,.927.271c.022-.065.04-.132.06-.2a37.153,37.153,0,0,0,1.372-7.047,35.309,35.309,0,0,0,.06-6.537,1.321,1.321,0,0,0-1.766-1.2,14.2,14.2,0,0,1-5.721.447,11.391,11.391,0,0,1-6.96-3.2,1.3,1.3,0,0,0-1.9,0,11.254,11.254,0,0,1-6.61,3.153,14.274,14.274,0,0,1-6.073-.4,1.342,1.342,0,0,0-1.769,1.208,33.348,33.348,0,0,0-.043,5.18.57.57,0,0,0,.549.453A.429.429,0,0,0,1180.279,164.57Z" transform="translate(-1179.219 -155.032)" fill="#2d2d2d"/>
        <path id="Path_492" data-name="Path 492" d="M1180,167.517a.516.516,0,0,0-.407.683c.159,1.179.367,2.354.634,3.524a28.927,28.927,0,0,0,3.611,9.045,19,19,0,0,0,9.614,8.038,3.578,3.578,0,0,0,2.564.031,18.373,18.373,0,0,0,3.983-2.028c.088-.059.178-.113.287-.181a5.693,5.693,0,0,0,4.378,2.422,5.54,5.54,0,0,0,4.624-1.93,5.433,5.433,0,0,0,1.434-4.179,5.752,5.752,0,0,0-3.5-4.944l.137-.32c.173-.407.354-.811.516-1.222a.478.478,0,0,0-.238-.671.492.492,0,0,0-.651.288c-.038.08-.069.163-.1.244-.171.4-.336.8-.517,1.188-.035.075-.132.178-.193.173a8.752,8.752,0,0,0-2.195-.014,5.85,5.85,0,0,0-1.909.713,6.05,6.05,0,0,0-2.793,4.1,5.012,5.012,0,0,0-.035,1.5,7.611,7.611,0,0,0,.456,1.55.28.28,0,0,1-.125.4,17.4,17.4,0,0,1-3.955,2.017,2.46,2.46,0,0,1-1.7-.009,17.14,17.14,0,0,1-6.434-4.1,23.215,23.215,0,0,1-5.391-9.071,34.409,34.409,0,0,1-1.514-6.564S1180.578,167.411,1180,167.517ZM1205,188.1a4.776,4.776,0,1,1,4.763-4.774A4.781,4.781,0,0,1,1205,188.1Z" transform="translate(-1179.246 -156.015)" fill="#2d2d2d"/>
      </g>
      <path id="Path_494" data-name="Path 494" d="M1208.9,178.862l-1.05-.318a8.752,8.752,0,0,0-2.194-.014,5.854,5.854,0,0,0-1.91.713,6.047,6.047,0,0,0-2.793,4.1,5.052,5.052,0,0,0-.035,1.5,7.566,7.566,0,0,0,.456,1.55.281.281,0,0,1-.126.4l.713.7a5.692,5.692,0,0,0,4.378,2.423,5.54,5.54,0,0,0,4.624-1.93,5.431,5.431,0,0,0,1.434-4.18A5.751,5.751,0,0,0,1208.9,178.862Zm-2.22,10.1a4.776,4.776,0,1,1,4.763-4.774A4.78,4.78,0,0,1,1206.681,188.962Z" transform="translate(-1180.925 -156.879)" fill="#2d2d2d"/>
    </g>
  </g>
</svg>
