<svg xmlns="http://www.w3.org/2000/svg" width="100.793" height="87.141" viewBox="0 0 100.793 87.141">
  <g id="Group_34454" data-name="Group 34454" transform="translate(0 0.001)">
    <path id="Path_165" data-name="Path 165" d="M343.786,1011.733c4.438-4.289,10.365-6.186,16.21-7.681,5.871-1.5,11.892-2.525,17.56-4.659,9.891-3.726,19.106-10.883,29.645-10.223,7.89.494,14.9,5.548,19.224,11.975s6.3,14.1,7.509,21.72c1.41,8.9,1.6,18.854-4.042,26.051-3.372,4.3-8.431,7.038-13.6,8.989s-10.573,3.24-15.684,5.33c-5.835,2.389-11.183,5.783-16.852,8.531s-11.883,4.88-18.169,4.447c-6.667-.461-12.764-3.762-18.1-7.645a34.279,34.279,0,0,1-11.076-12.789c-3.237-6.879-2.649-14.026-1.628-21.249.912-6.448,2.37-12.994,5.546-18.4A20.587,20.587,0,0,1,343.786,1011.733Z" transform="translate(-333.976 -989.128)" fill="#f5f5f5"/>
    <g id="Group_34452" data-name="Group 34452" transform="translate(8.327 15.037)">
      <g id="Group_33270" data-name="Group 33270" transform="translate(0 0)">
        <g id="Path_39983" data-name="Path 39983" transform="translate(0 0)">
          <path id="Path_40107" data-name="Path 40107" d="M416.745,1107.04q0-8.125-.005-16.249a8.62,8.62,0,0,0-.606-3.206,8.843,8.843,0,0,0-8.539-5.512q-15.863,0-31.726,0l-31.826,0A8.722,8.722,0,0,0,335,1090.8q-.024,17.727.013,35.454a9.189,9.189,0,0,0,.428,2.692,8.744,8.744,0,0,0,8.7,6.026h53.28" transform="translate(-333.748 -1080.826)" fill="#fff"/>
          <path id="Path_40107_-_Outline" data-name="Path 40107 - Outline" d="M397.17,1134.957H343.89a9.806,9.806,0,0,1-5.608-1.663,8.574,8.574,0,0,1-3.326-4.534,9.426,9.426,0,0,1-.44-2.764c-.024-11.772-.029-23.7-.013-35.456a8.8,8.8,0,0,1,2.677-6.394,9.449,9.449,0,0,1,6.609-2.57l31.826,0c10.526,0,21.2,0,31.726,0a9.859,9.859,0,0,1,5.374,1.512,8.861,8.861,0,0,1,4.016,7.452c0,5.472.005,10.939.005,16.248h-.49c0-5.309,0-10.776-.005-16.249a8.339,8.339,0,0,0-.589-3.116,8.554,8.554,0,0,0-8.311-5.357c-10.526,0-21.2,0-31.726,0l-31.826,0a8.462,8.462,0,0,0-8.8,8.475c-.016,11.755-.011,23.683.013,35.453a8.936,8.936,0,0,0,.417,2.619,8.465,8.465,0,0,0,8.467,5.854h53.28Z" transform="translate(-333.493 -1080.572)" fill="#fff"/>
          <path id="Path_40108" data-name="Path 40108" d="M388.3,1126.724h-53.28a10.435,10.435,0,0,1-5.968-1.775,9.2,9.2,0,0,1-3.57-4.865,10.055,10.055,0,0,1-.469-2.948c-.024-11.774-.029-23.7-.013-35.463a9.428,9.428,0,0,1,2.871-6.849,10.078,10.078,0,0,1,7.048-2.748l31.827,0q15.863,0,31.726,0a10.491,10.491,0,0,1,5.717,1.613,9.494,9.494,0,0,1,4.306,7.986q.005,8.119.005,16.246a.878.878,0,0,1-1.756,0q0-8.125-.005-16.249a7.712,7.712,0,0,0-.544-2.883,7.94,7.94,0,0,0-7.722-4.957q-15.863,0-31.726,0l-31.826,0a7.843,7.843,0,0,0-8.163,7.843c-.016,11.757-.011,23.685.013,35.451a8.288,8.288,0,0,0,.388,2.429,7.851,7.851,0,0,0,7.863,5.413H388.3a.878.878,0,1,1,0,1.756Z" transform="translate(-324.627 -1071.705)" fill="#444"/>
          <path id="Path_40108_-_Outline" data-name="Path 40108 - Outline" d="M387.921,1126.709h-53.28a10.8,10.8,0,0,1-6.177-1.84,9.565,9.565,0,0,1-3.712-5.057,10.418,10.418,0,0,1-.486-3.055v0c-.024-11.772-.029-23.7-.013-35.464a9.792,9.792,0,0,1,2.983-7.113,10.444,10.444,0,0,1,7.3-2.85l31.827,0q15.863,0,31.726,0a10.856,10.856,0,0,1,5.916,1.672,9.861,9.861,0,0,1,4.474,8.3c0,5.462.005,10.928.005,16.245a1.246,1.246,0,1,1-2.491,0c0-5.3,0-10.771-.005-16.248a7.352,7.352,0,0,0-.518-2.748,7.584,7.584,0,0,0-7.381-4.725q-15.863,0-31.726,0l-31.826,0a7.483,7.483,0,0,0-7.8,7.476c-.016,11.758-.011,23.684.013,35.448a7.912,7.912,0,0,0,.37,2.32,7.5,7.5,0,0,0,7.513,5.156h53.28a1.246,1.246,0,1,1,0,2.491ZM325,1116.751a9.685,9.685,0,0,0,.452,2.84,8.838,8.838,0,0,0,3.429,4.673,10.07,10.07,0,0,0,5.759,1.71h53.28a.511.511,0,1,0,0-1.021h-53.28a8.208,8.208,0,0,1-8.214-5.67,8.645,8.645,0,0,1-.4-2.536v0c-.025-11.765-.029-23.692-.013-35.452a8.052,8.052,0,0,1,2.454-5.86,8.7,8.7,0,0,1,6.076-2.35l31.826,0q15.862,0,31.726,0a8.3,8.3,0,0,1,8.064,5.189,8.083,8.083,0,0,1,.57,3.02c0,5.476.005,10.943.005,16.247a.511.511,0,1,0,1.021,0c0-5.316,0-10.782-.005-16.246a9.127,9.127,0,0,0-4.138-7.677,10.124,10.124,0,0,0-5.518-1.554q-15.863,0-31.726,0l-31.827,0a9.713,9.713,0,0,0-6.793,2.645,9.064,9.064,0,0,0-2.758,6.585C324.973,1093.05,324.977,1104.98,325,1116.751Z" transform="translate(-324.244 -1071.323)" fill="#fff"/>
        </g>
        <g id="Group_33269" data-name="Group 33269" transform="translate(11.032 13.27)">
          <g id="Path_39978" data-name="Path 39978" transform="translate(0 15.416)">
            <path id="Path_40109" data-name="Path 40109" d="M462.715,1411.4c-2.22,0-4.471-.008-6.691-.022a16.163,16.163,0,0,1-2.813-.286,3.6,3.6,0,0,1-3.27-3.757,8.373,8.373,0,0,1,7.166-8.652h0c.178.323.351.644.523.963.463.857.9,1.667,1.387,2.472s1.014,1.586,1.526,2.346c.225.333.45.667.671,1l.127.192.544-.168.014-.211q.025-.375.05-.751c.055-.8.111-1.636.146-2.457a.9.9,0,0,0-.375-.643l-.009-.008-.01-.007a1.537,1.537,0,0,1-.521-.709,5.453,5.453,0,0,0,3.112-.006,1.682,1.682,0,0,1-.581.76l-.013.01a.929.929,0,0,0-.34.627l0,.024v.024c.041.788.1,1.59.159,2.365q.028.378.056.755l.061.843.494-.685q.224-.311.45-.62a28.037,28.037,0,0,0,3.7-6.163c.667.158,1.332.348,1.98.566a8.343,8.343,0,0,1,5.231,8.55,3.53,3.53,0,0,1-3.222,3.336,16.644,16.644,0,0,1-2.866.289C467.186,1411.391,464.935,1411.4,462.715,1411.4Z" transform="translate(-449.626 -1398.276)" fill="#e0e0e0"/>
            <path id="Path_40110" data-name="Path 40110" d="M465.276,1395.264c.569.142,1.135.307,1.689.493a8,8,0,0,1,5.031,8.231,3.217,3.217,0,0,1-2.975,3.065,16.353,16.353,0,0,1-2.807.283c-2.219.015-4.47.022-6.689.022s-4.47-.008-6.685-.022a15.863,15.863,0,0,1-2.764-.281,3.293,3.293,0,0,1-3.018-3.467,8.087,8.087,0,0,1,6.694-8.3c.142.26.282.519.419.772.465.86.9,1.673,1.393,2.484s1.02,1.6,1.535,2.36c.221.327.449.666.669,1l.254.384.44-.136.122-.038.4-.125.028-.422q.025-.377.051-.754c.055-.805.111-1.638.146-2.46a1.172,1.172,0,0,0-.478-.886l-.018-.016-.009-.007a5.8,5.8,0,0,0,1.682,0l-.049.037-.013.009-.012.01a1.233,1.233,0,0,0-.452.833l-.005.048,0,.048c.041.792.1,1.6.159,2.373q.028.377.056.754l.122,1.685.989-1.37.449-.619a29.17,29.17,0,0,0,3.638-5.982m-.377-.721a29.811,29.811,0,0,1-4.209,6.963c-.076-1.039-.161-2.078-.215-3.114a.627.627,0,0,1,.228-.421,1.992,1.992,0,0,0,.814-1.482,5.139,5.139,0,0,1-3.923.016,1.849,1.849,0,0,0,.732,1.419c.119.106.278.267.272.4-.046,1.067-.126,2.134-.2,3.2l-.122.038c-.734-1.11-1.5-2.2-2.191-3.338s-1.31-2.349-1.99-3.581a1.015,1.015,0,0,0-.222,0,8.7,8.7,0,0,0-7.435,8.975,3.894,3.894,0,0,0,3.52,4.041,16.4,16.4,0,0,0,2.868.291q3.347.022,6.693.022t6.693-.022a16.931,16.931,0,0,0,2.917-.294,3.832,3.832,0,0,0,3.473-3.609,8.62,8.62,0,0,0-5.432-8.869,22.855,22.855,0,0,0-2.276-.636Z" transform="translate(-446.436 -1394.543)" fill="#444"/>
          </g>
          <path id="Path_39979" data-name="Path 39979" d="M809.214,1254.676H822.8a2.123,2.123,0,0,1,2.2,1.712,2.15,2.15,0,0,1-1.936,2.6c-.1.007-.2.006-.294.006H795.652a2.1,2.1,0,0,1-2.06-1.229,2.058,2.058,0,0,1,.243-2.261,2.172,2.172,0,0,1,1.846-.83Q802.448,1254.684,809.214,1254.676Z" transform="translate(-762.895 -1251.533)" fill="#e0e0e0"/>
          <g id="Path_39980" data-name="Path 39980" transform="translate(6.571)">
            <path id="Path_40111" data-name="Path 40111" d="M530.983,1238.261a5.094,5.094,0,0,1-3.938-2.128,10.992,10.992,0,0,1-2.193-5.8v-.01a7.583,7.583,0,0,1,.47-3.965,6.179,6.179,0,0,1,5.742-3.859h.077a6.283,6.283,0,0,1,5.858,4.826,14.642,14.642,0,0,1,.236,1.513c-.148,3.409-.879,5.644-2.441,7.469A5.083,5.083,0,0,1,530.983,1238.261Zm-3.019-1.575a4.461,4.461,0,0,0,5.869.154,8.275,8.275,0,0,0,2.886-4.984c.072-.313.12-.63.171-.966.025-.164.051-.334.081-.515l.093-.557-.92.4c.032-.321.048-.645.047-.966v-.016a12.587,12.587,0,0,0-.355-2.353c-.133-.481-.387-.721-.759-.721a1.523,1.523,0,0,0-.585.147,8.6,8.6,0,0,1-7.017-.024,1.275,1.275,0,0,0-.5-.119.784.784,0,0,0-.768.6,7.419,7.419,0,0,0-.38,1.717,14.689,14.689,0,0,0-.025,1.544c0,.06,0,.12,0,.181l-.863-.332.085.527c.027.166.05.322.071.47.043.3.084.575.145.849A8.636,8.636,0,0,0,527.963,1236.687Z" transform="translate(-524.46 -1222.191)" fill="#e0e0e0"/>
            <path id="Path_40112" data-name="Path 40112" d="M527.869,1219.613h.066a5.977,5.977,0,0,1,5.569,4.582,14.381,14.381,0,0,1,.229,1.458q-.016.367-.042.716l-.4.172c.008-.161.011-.323.011-.484v-.032a12.9,12.9,0,0,0-.363-2.411l0-.007,0-.007c-.214-.777-.691-.94-1.054-.94a1.8,1.8,0,0,0-.7.171l-.005,0-.005,0a8.289,8.289,0,0,1-6.761-.026l0,0,0,0a1.572,1.572,0,0,0-.621-.142,1.1,1.1,0,0,0-1.058.807,7.735,7.735,0,0,0-.4,1.789v.008a12.737,12.737,0,0,0-.03,1.3l-.4-.154a7.274,7.274,0,0,1,.519-3.13,5.9,5.9,0,0,1,5.458-3.668m0-.615a6.51,6.51,0,0,0-6.027,4.051,7.886,7.886,0,0,0-.489,4.126,11.411,11.411,0,0,0,2.257,5.956,5.005,5.005,0,0,0,8.223.182c1.822-2.128,2.388-4.7,2.515-7.678a14.944,14.944,0,0,0-.245-1.574A6.576,6.576,0,0,0,527.95,1219Zm-.053,5.16a8.9,8.9,0,0,0,3.6-.76,1.277,1.277,0,0,1,.466-.123c.225,0,.365.142.461.488a12.248,12.248,0,0,1,.346,2.3,9.33,9.33,0,0,1-.113,1.462l.9-.388c-.092.552-.146,1.013-.249,1.463a8.071,8.071,0,0,1-2.779,4.813,4.153,4.153,0,0,1-5.472-.145,8.433,8.433,0,0,1-2.627-4.8c-.087-.395-.132-.8-.212-1.3l.787.3c0-.7-.047-1.427.015-2.144a7.115,7.115,0,0,1,.365-1.649.491.491,0,0,1,.477-.393.966.966,0,0,1,.377.092,8.9,8.9,0,0,0,3.662.788Z" transform="translate(-521.266 -1218.998)" fill="#444"/>
          </g>
        </g>
        <path id="Path_39981" data-name="Path 39981" d="M809.1,1462.534c-2.075-.006-4.15,0-6.223,0h-6.958a3.235,3.235,0,0,0-.681.048,2.155,2.155,0,0,0,.48,4.264q6.271.009,12.541,0A16.91,16.91,0,0,1,809.1,1462.534Z" transform="translate(-752.013 -1427.875)" fill="#e0e0e0"/>
        <path id="Path_39982" data-name="Path 39982" d="M811.687,1362.942a17.063,17.063,0,0,1,4.781-4.315H801.422c-1.9,0-3.792-.01-5.69,0a2.115,2.115,0,0,0-2.154,2.076q0,.079,0,.159a2.125,2.125,0,0,0,2.171,2.079l.1,0Q803.767,1362.943,811.687,1362.942Z" transform="translate(-752.061 -1333.092)" fill="#e0e0e0"/>
        <path id="Ellipse_12586" data-name="Ellipse 12586" d="M13.263,0A13.263,13.263,0,1,1,0,13.263,13.263,13.263,0,0,1,13.263,0Z" transform="translate(59.919 26.809)" fill="#e0e0e0"/>
        <path id="Ellipse_12586_-_Outline" data-name="Ellipse 12586 - Outline" d="M12.753-1a13.749,13.749,0,0,1,9.725,23.478A13.753,13.753,0,1,1,7.4.081,13.667,13.667,0,0,1,12.753-1Zm0,26.526A12.773,12.773,0,1,0-.02,12.753,12.787,12.787,0,0,0,12.753,25.526Z" transform="translate(60.429 27.319)" fill="#444"/>
      </g>
      <path id="Path_39972" data-name="Path 39972" d="M1076.922,1458.722v-5.03h5.03a1.17,1.17,0,0,0,.046-2.339h-5.076v-5.03a1.17,1.17,0,1,0-2.34,0h0v5.03h-5.03a1.17,1.17,0,0,0,0,2.339h5.03v5.031a1.17,1.17,0,0,0,2.34,0" transform="translate(-1002.753 -1412.022)" fill="#e91431"/>
    </g>
  </g>
</svg>
