<svg xmlns="http://www.w3.org/2000/svg" xmlns:xlink="http://www.w3.org/1999/xlink" width="59.091" height="59.091" viewBox="0 0 59.091 59.091">
  <defs>
    <clipPath id="clip-path">
      <path id="Path_17149" data-name="Path 17149" d="M.973,26.263A25.29,25.29,0,1,0,26.263.973,25.29,25.29,0,0,0,.973,26.263" transform="translate(-0.973 -0.973)" fill="none"/>
    </clipPath>
  </defs>
  <g id="Group_39347" data-name="Group 39347" transform="translate(8764.862 8638.551)">
    <g id="Group_9356" data-name="Group 9356" transform="translate(-8760.608 -8631.039)">
      <g id="Group_9355" data-name="Group 9355" transform="translate(0)" clip-path="url(#clip-path)">
        <path id="Path_17119" data-name="Path 17119" d="M33.745,36.046c-.182-.371-1.214-.292-1.525-.021a1.505,1.505,0,0,0-.415,1.128,3.7,3.7,0,0,0,3.443,3.759" transform="translate(-17.742 -19.913)" fill="#fff" fill-rule="evenodd"/>
        <path id="Path_17120" data-name="Path 17120" d="M34.688,40.827a4.14,4.14,0,0,1-3.856-4.21,1.91,1.91,0,0,1,.566-1.454,2.034,2.034,0,0,1,1.53-.3.9.9,0,0,1,.686.464l-.8.39a.137.137,0,0,0,.037.049,1.227,1.227,0,0,0-.873.071,1.125,1.125,0,0,0-.261.8,3.252,3.252,0,0,0,3.029,3.309Z" transform="translate(-17.213 -19.384)" fill="#727272"/>
        <path id="Path_17121" data-name="Path 17121" d="M72.037,36.035c.182-.371,1.239-.285,1.55-.014A1.507,1.507,0,0,1,74,37.149a3.7,3.7,0,0,1-3.443,3.759" transform="translate(-38.821 -19.908)" fill="#fff" fill-rule="evenodd"/>
        <path id="Path_17122" data-name="Path 17122" d="M70.552,40.823l-.061-.885a3.252,3.252,0,0,0,3.03-3.308,1.125,1.125,0,0,0-.262-.8,1.29,1.29,0,0,0-.9-.074A.141.141,0,0,0,72.4,35.7l-.8-.39a.9.9,0,0,1,.682-.461,2.075,2.075,0,0,1,1.557.308,1.887,1.887,0,0,1,.566,1.454,4.14,4.14,0,0,1-3.856,4.21" transform="translate(-38.784 -19.38)" fill="#727272"/>
        <path id="Path_17123" data-name="Path 17123" d="M33.456,89.783l18.771.035c-1.828-5.833-2.663-15.468-9.22-18.682-2.738-1.342-9.55-1.272-9.55-1.272h.43s-6.812-.07-9.551,1.272c-4.223,2.071-5.436,6.6-6.668,10.534-.2.638-2.136,8.146-2.552,8.147l18.771-.036Z" transform="translate(-8.665 -38.443)" fill="#fff" fill-rule="evenodd"/>
        <path id="Path_17124" data-name="Path 17124" d="M51.778,89.745h0L33.222,89.71l-18.547.035h-.008a.377.377,0,0,1-.2-.7,67.6,67.6,0,0,0,2.084-6.825c.156-.575.268-.986.309-1.116l.191-.613c1.181-3.8,2.519-8.112,6.67-10.147,2.538-1.244,8.281-1.312,9.5-1.312h0c1.218,0,6.961.068,9.5,1.311,5.348,2.622,7.01,9.417,8.346,14.877.355,1.453.691,2.825,1.069,4.031a.377.377,0,0,1-.359.489m-37.112-.753h0Zm18.8-.035,17.806.033c-.325-1.1-.621-2.313-.933-3.586-1.366-5.584-2.914-11.914-7.945-14.38-2.3-1.126-7.706-1.226-9.066-1.233h-.206c-1.36.007-6.768.107-9.067,1.234-3.859,1.892-5.147,6.037-6.282,9.693l-.192.615c-.04.126-.149.528-.3,1.088-1.058,3.89-1.612,5.714-1.961,6.568l17.664-.033h.482" transform="translate(-8.216 -37.993)" fill="#727272"/>
        <path id="Path_17125" data-name="Path 17125" d="M24.223,76.358c1.066-1.626,2.9-2.581,4.293-3.918l2.516-2.409c-2.2.12-5.12.424-6.7,1.2-4.223,2.071-5.435,6.6-6.667,10.534-.2.638-2.136,8.147-2.552,8.147l4.55-.009q1.217-3.945,2.428-7.892a21.8,21.8,0,0,1,2.129-5.65" transform="translate(-8.665 -38.534)" fill="#ccc" fill-rule="evenodd"/>
        <path id="Path_17126" data-name="Path 17126" d="M51.778,89.745h0L33.222,89.71l-18.547.035h-.008a.377.377,0,0,1-.2-.7,67.6,67.6,0,0,0,2.084-6.825c.156-.575.268-.986.309-1.116l.191-.613c1.181-3.8,2.519-8.112,6.67-10.147,2.538-1.244,8.281-1.312,9.5-1.312h0c1.218,0,6.961.068,9.5,1.311,5.348,2.622,7.01,9.417,8.346,14.877.355,1.453.691,2.825,1.069,4.031a.377.377,0,0,1-.359.489m-37.112-.753h0Zm18.8-.035,17.806.033c-.325-1.1-.621-2.313-.933-3.586-1.366-5.584-2.914-11.914-7.945-14.38-2.3-1.126-7.706-1.226-9.066-1.233h-.206c-1.36.007-6.768.107-9.067,1.234-3.859,1.892-5.147,6.037-6.282,9.693l-.192.615c-.04.126-.149.528-.3,1.088-1.058,3.89-1.612,5.714-1.961,6.568l17.664-.033h.482" transform="translate(-8.216 -37.993)" fill="#727272"/>
        <line id="Line_222" data-name="Line 222" x1="2.592" y2="11.813" transform="translate(14.706 39.545)" fill="#fff"/>
        <path id="Path_17127" data-name="Path 17127" d="M32.766,99.418a.37.37,0,0,1-.081-.009.377.377,0,0,1-.287-.449l2.592-11.813a.377.377,0,0,1,.736.161L33.134,99.122a.377.377,0,0,1-.368.3" transform="translate(-18.061 -47.683)" fill="#727272"/>
        <line id="Line_223" data-name="Line 223" x2="2.592" y2="11.813" transform="translate(33.602 39.545)" fill="#fff"/>
        <path id="Path_17128" data-name="Path 17128" d="M76.789,99.417a.377.377,0,0,1-.368-.3L73.829,87.308a.377.377,0,0,1,.736-.161L77.157,98.96a.377.377,0,0,1-.287.449.371.371,0,0,1-.081.009" transform="translate(-40.595 -47.683)" fill="#727272"/>
        <path id="Path_17129" data-name="Path 17129" d="M55.315,78.709l.99,15.126L57.1,78.709l-.795-.74Z" transform="translate(-30.53 -42.852)" fill="#727272"/>
        <path id="Path_17130" data-name="Path 17130" d="M39.921,73.39l5.462,5.024,2.41-2.512,2.241,2.512,4.534-6.4L48.632,74.1,44.01,73.39l-2.992-1.829Z" transform="translate(-22.157 -39.366)" fill="#ccc" fill-rule="evenodd"/>
        <path id="Path_17131" data-name="Path 17131" d="M53.1,69.522h0c-1.737,0-3.145-3.128-3.145-4.865V61.512h6.29v3.145c0,1.737-1.408,4.865-3.145,4.865" transform="translate(-27.617 -33.9)" fill="#fff" fill-rule="evenodd"/>
        <path id="Path_17132" data-name="Path 17132" d="M52.655,69.448c-2.069,0-3.522-3.4-3.522-5.241V61.062a.377.377,0,0,1,.377-.377H55.8a.377.377,0,0,1,.377.377v3.145c0,1.841-1.452,5.241-3.522,5.241m-2.768-8.01v2.768c0,1.648,1.368,4.488,2.768,4.488s2.768-2.84,2.768-4.488V61.438Z" transform="translate(-27.167 -33.451)" fill="#727272"/>
        <path id="Path_17133" data-name="Path 17133" d="M53.5,28.721c-.234,6.2-1.76,11.881-7.693,11.589s-7.663-10.854-7.663-10.854V21.265L44.938,19.7l6.613.718,2.725,2.914Z" transform="translate(-21.193 -11.159)" fill="#fff" fill-rule="evenodd"/>
        <path id="Path_17134" data-name="Path 17134" d="M45.789,40.248c-.146,0-.3,0-.445-.011-6.167-.3-7.944-10.726-8.016-11.17a.379.379,0,0,1-.005-.061v-8.19a.377.377,0,0,1,.292-.367L44.4,18.885a.386.386,0,0,1,.125-.007l6.613.717a.375.375,0,0,1,.234.118L54.1,22.627a.375.375,0,0,1,.1.31l-.768,5.369c-.2,5.14-1.259,8.525-3.249,10.349a6.273,6.273,0,0,1-4.393,1.594M38.076,28.974c.106.6,1.891,10.244,7.3,10.51A5.624,5.624,0,0,0,49.673,38.1c1.836-1.683,2.82-4.9,3.006-9.842a.374.374,0,0,1,0-.039l.745-5.21-2.506-2.68-6.41-.7-6.435,1.483Z" transform="translate(-20.744 -10.71)" fill="#727272"/>
        <path id="Path_17135" data-name="Path 17135" d="M35.6,21.535c-.126-.265.854-1.782.971-2.074a7.857,7.857,0,0,0,.723-3.586,1.452,1.452,0,0,1,.038-.693c.363-.871,6.356-1.659,6.931-.8.48.716-1.354,2-2.063,1.974.138.005,2,.04,2.664-.021a5.554,5.554,0,0,0,2.617-.847,1.947,1.947,0,0,1,2.581.494c1.184,1.256,1.143,3.2.9,4.717a10.776,10.776,0,0,0,1.628-9.615C50.9,5.4,44.781,6.76,42.777,5.4s-.577.834-.577.834-6.64.956-8.006,3.677-.769,7.047,1.407,11.628" transform="translate(-18.645 -3.136)" fill="#fff" fill-rule="evenodd"/>
        <path id="Path_17136" data-name="Path 17136" d="M35.149,21.461a.377.377,0,0,1-.341-.215h0c-2.287-4.819-2.8-9.177-1.4-11.957,1.212-2.416,6.08-3.489,7.74-3.789-.46-.886-.2-1.138-.109-1.23.365-.358.966,0,1.5.366a7.21,7.21,0,0,0,2.581.7c2.589.425,6.134,1.006,7.376,5.188a11.058,11.058,0,0,1-1.7,9.965.377.377,0,0,1-.66-.3c.327-2.009.059-3.489-.8-4.4a1.571,1.571,0,0,0-2.114-.429,5.945,5.945,0,0,1-2.775.9c-.694.063-2.536.028-2.705.023h-.007a.377.377,0,1,1,.03-.753h.013a2.864,2.864,0,0,0,1.671-1.137c.037-.067.094-.189.052-.251a4.63,4.63,0,0,0-2.391-.163,9,9,0,0,0-3.887.913,1.1,1.1,0,0,0-.009.439l.006.062a8.208,8.208,0,0,1-.749,3.759,6,6,0,0,1-.3.569,8.36,8.36,0,0,0-.647,1.288.377.377,0,0,1-.369.454m.34-.538h0M41.76,5.033a4.956,4.956,0,0,0,.3.541.377.377,0,0,1-.262.578c-.064.01-6.461.959-7.723,3.473-1.193,2.376-.8,6.238,1.027,10.454.108-.206.241-.447.4-.733.11-.193.234-.412.26-.475a7.542,7.542,0,0,0,.7-3.414l-.005-.059a1.644,1.644,0,0,1,.071-.812c.381-.914,3.51-1.267,4.133-1.327,1.96-.193,3.125-.038,3.459.46a.946.946,0,0,1-.021,1.039,2.866,2.866,0,0,1-.708.782c.394,0,.763-.012.982-.032a5.194,5.194,0,0,0,2.457-.8,2.3,2.3,0,0,1,3.049.56,4.792,4.792,0,0,1,1.137,3.46,10.581,10.581,0,0,0,.751-7.993C50.664,7.01,47.521,6.494,45,6.08a7.563,7.563,0,0,1-2.883-.824c-.143-.1-.259-.17-.353-.223" transform="translate(-18.193 -2.685)" fill="#727272"/>
        <path id="Path_17137" data-name="Path 17137" d="M42.2,6.23s-6.64.956-8.006,3.677-.769,7.047,1.407,11.628c-.126-.266.854-1.782.971-2.075a7.854,7.854,0,0,0,.723-3.586,1.452,1.452,0,0,1,.038-.693c.15-2.337,3.883-3.232,3.883-3.232-1.89-.191-4.806,1.819-4.806,1.819.552-1.873,4.806-3.665,4.806-3.665-2.052-.488-4.806,1.575-4.806,1.575.715-2.334,4.008-2.96,4.008-2.96a3.067,3.067,0,0,0-2.91.57c1.732-2.606,7.613-3.194,7.613-3.194a6.247,6.247,0,0,1-2.343-.7c-2-1.364-.577.834-.577.834" transform="translate(-18.645 -3.136)" fill="#ccc" fill-rule="evenodd"/>
        <path id="Path_17138" data-name="Path 17138" d="M35.149,21.461a.377.377,0,0,1-.341-.215h0c-2.287-4.819-2.8-9.177-1.4-11.957,1.212-2.416,6.08-3.489,7.74-3.789-.46-.886-.2-1.138-.109-1.23.365-.358.966,0,1.5.366a7.21,7.21,0,0,0,2.581.7c2.589.425,6.134,1.006,7.376,5.188a11.058,11.058,0,0,1-1.7,9.965.377.377,0,0,1-.66-.3c.327-2.009.059-3.489-.8-4.4a1.571,1.571,0,0,0-2.114-.429,5.945,5.945,0,0,1-2.775.9c-.694.063-2.536.028-2.705.023h-.007a.377.377,0,1,1,.03-.753h.013a2.864,2.864,0,0,0,1.671-1.137c.037-.067.094-.189.052-.251a4.63,4.63,0,0,0-2.391-.163,9,9,0,0,0-3.887.913,1.1,1.1,0,0,0-.009.439l.006.062a8.208,8.208,0,0,1-.749,3.759,6,6,0,0,1-.3.569,8.36,8.36,0,0,0-.647,1.288.377.377,0,0,1-.369.454m.34-.538h0M41.76,5.033a4.956,4.956,0,0,0,.3.541.377.377,0,0,1-.262.578c-.064.01-6.461.959-7.723,3.473-1.193,2.376-.8,6.238,1.027,10.454.108-.206.241-.447.4-.733.11-.193.234-.412.26-.475a7.542,7.542,0,0,0,.7-3.414l-.005-.059a1.644,1.644,0,0,1,.071-.812c.381-.914,3.51-1.267,4.133-1.327,1.96-.193,3.125-.038,3.459.46a.946.946,0,0,1-.021,1.039,2.866,2.866,0,0,1-.708.782c.394,0,.763-.012.982-.032a5.194,5.194,0,0,0,2.457-.8,2.3,2.3,0,0,1,3.049.56,4.792,4.792,0,0,1,1.137,3.46,10.581,10.581,0,0,0,.751-7.993C50.664,7.01,47.521,6.494,45,6.08a7.563,7.563,0,0,1-2.883-.824c-.143-.1-.259-.17-.353-.223" transform="translate(-18.193 -2.685)" fill="#727272"/>
        <path id="Path_17139" data-name="Path 17139" d="M47.563,39.4a1.214,1.214,0,1,1-1.214-1.214A1.214,1.214,0,0,1,47.563,39.4" transform="translate(-24.993 -21.216)" fill="#727272" fill-rule="evenodd"/>
        <path id="Path_17140" data-name="Path 17140" d="M62.806,39.4a1.214,1.214,0,1,1-1.214-1.214A1.214,1.214,0,0,1,62.806,39.4" transform="translate(-33.284 -21.216)" fill="#727272" fill-rule="evenodd"/>
        <path id="Path_17141" data-name="Path 17141" d="M52.866,42.305a3.487,3.487,0,0,1-.888,3.119c.008-.032-.031-.134-.06-.141s.052.043.139.061c.549.138,1.112.139,1.709.243a3.8,3.8,0,0,1-1.819.394c-.5-.023-.9-.465-.558-.975.079-.121.159-.2.237-.3a13.768,13.768,0,0,0,1.241-2.4" transform="translate(-28.324 -23.454)" fill="#727272"/>
        <path id="Path_17142" data-name="Path 17142" d="M54.079,52.643a1.481,1.481,0,0,1-1.171.83,1.773,1.773,0,0,1-.748-.194,9,9,0,0,0,1.919-.636M55.5,51a8.486,8.486,0,0,1-4.55,1.656,2.746,2.746,0,0,1-.985-.143c1.22,1.258,2.187,1.715,2.947,1.715C54.929,54.226,55.5,51,55.5,51" transform="translate(-27.617 -28.182)" fill="#727272"/>
        <path id="Path_17143" data-name="Path 17143" d="M46.7,34.967A2.707,2.707,0,0,0,43.416,36.2,5.211,5.211,0,0,1,46.7,34.967" transform="translate(-24.058 -19.376)" fill="#444" fill-rule="evenodd"/>
        <path id="Path_17144" data-name="Path 17144" d="M60.378,34.967A2.707,2.707,0,0,1,63.662,36.2a5.21,5.21,0,0,0-3.284-1.231" transform="translate(-33.284 -19.376)" fill="#444" fill-rule="evenodd"/>
        <path id="Path_17145" data-name="Path 17145" d="M45.486,67.641l-3.158,1.788,4.139,5.446,2.545-2.524Z" transform="translate(-23.466 -37.234)" fill="#fff" fill-rule="evenodd"/>
        <path id="Path_17146" data-name="Path 17146" d="M46.018,74.8h-.026a.377.377,0,0,1-.274-.148l-4.139-5.446a.378.378,0,0,1,.114-.556l3.158-1.788a.377.377,0,0,1,.488.1l3.526,4.711a.377.377,0,0,1-.036.493l-2.545,2.524a.376.376,0,0,1-.265.109M42.44,69.095l3.618,4.761,2.006-1.99-3.13-4.182Z" transform="translate(-23.017 -36.784)" fill="#727272"/>
        <path id="Path_17147" data-name="Path 17147" d="M60.909,67.641l3.158,1.788-4.139,5.446-2.545-2.524Z" transform="translate(-31.655 -37.234)" fill="#fff" fill-rule="evenodd"/>
        <path id="Path_17148" data-name="Path 17148" d="M59.479,74.8a.376.376,0,0,1-.265-.109L56.669,72.17a.378.378,0,0,1-.036-.493l3.526-4.711a.377.377,0,0,1,.488-.1L63.8,68.652a.377.377,0,0,1,.114.556l-4.139,5.447a.378.378,0,0,1-.274.148h-.026m-2.046-2.937,2.006,1.99L63.057,69.1l-2.494-1.413Z" transform="translate(-31.206 -36.785)" fill="#727272"/>
      </g>
    </g>
    <path id="Path_17150" data-name="Path 17150" d="M58.119,29.545A28.573,28.573,0,1,0,29.546,58.118,28.573,28.573,0,0,0,58.119,29.545Z" transform="translate(-8764.863 -8638.55)" fill="none" stroke="#d5132d" stroke-width="1.945"/>
  </g>
</svg>
